<svg width="24" height="24" viewBox="0 0 24 24" fill="none" xmlns="http://www.w3.org/2000/svg">
<path d="M4 6.75024H20C20.6904 6.75024 21.25 7.30989 21.25 8.00024V18.0002C21.25 18.6906 20.6904 19.2502 20 19.2502H4C3.30964 19.2502 2.75 18.6906 2.75 18.0002V8.00024C2.75 7.30989 3.30964 6.75024 4 6.75024Z" stroke="#606483" stroke-width="1.5" stroke-linecap="round" stroke-linejoin="round"/>
<path d="M15.625 6.43726V4.83694C15.625 4.46572 15.4406 4.1097 15.1124 3.84721C14.7842 3.58472 14.3391 3.43726 13.875 3.43726H10.375C9.91087 3.43726 9.46575 3.58472 9.13756 3.84721C8.80937 4.1097 8.625 4.46572 8.625 4.83694V6.43726" stroke="#606483" stroke-width="1.5" stroke-linejoin="round"/>
<path d="M19.625 6.43726V9.10445C19.625 9.72315 19.2299 10.3165 18.5266 10.754C17.8234 11.1915 16.8696 11.4373 15.875 11.4373H8.375C7.38044 11.4373 6.42661 11.1915 5.72335 10.754C5.02009 10.3165 4.625 9.72315 4.625 9.10445V6.43726" stroke="#606483" stroke-width="1.5" stroke-linejoin="round"/>
<path d="M10.4375 13.0002H13.5625" stroke="#606483" stroke-width="1.5" stroke-linecap="round"/>
</svg>
