<svg width="26" height="24" viewBox="0 0 26 24" fill="none" xmlns="http://www.w3.org/2000/svg">
<path d="M22.3333 22.2858V4.38102C22.3333 3.67378 22.0524 2.9955 21.5523 2.4954C21.0522 1.99531 20.3739 1.71436 19.6667 1.71436H6.33333C5.62609 1.71436 4.94781 1.99531 4.44772 2.4954C3.94762 2.9955 3.66667 3.67378 3.66667 4.38102V22.2858M22.3333 22.2858H3.66667M22.3333 22.2858H25M22.3333 22.2858H15.6667M3.66667 22.2858H1M3.66667 22.2858H10.3333M15.6667 22.2858V19.0477C15.6667 18.6941 15.5262 18.3549 15.2761 18.1049C15.0261 17.8548 14.687 17.7144 14.3333 17.7144H11.6667C11.313 17.7144 10.9739 17.8548 10.7239 18.1049C10.4738 18.3549 10.3333 18.6941 10.3333 19.0477V22.2858M15.6667 22.2858H10.3333M9 7.04769H10.3333M9 12.381H10.3333M15.6667 7.04769H17M15.6667 12.381H17" stroke="#606483" stroke-width="1.5" stroke-linecap="round" stroke-linejoin="round"/>
</svg>
