<svg xmlns="http://www.w3.org/2000/svg" viewBox="0 0 340 384"><defs><style>.cls-1{fill:#0b8eae;}.cls-2{fill:#f3f3f3;}.cls-3{fill:#e7e7e7;}.cls-4{fill:#cbcbcb;}.cls-5{fill:#dfdfdf;}.cls-6{fill:#2aaae0;}.cls-7{fill:#fff;}</style></defs><g id="Layer_2" data-name="Layer 2"><g id="Layer_1-2" data-name="Layer 1"><polygon class="cls-1" points="2 181 21 162 21 181 2 181"/><polygon class="cls-1" points="337 180 318 161 318 180 337 180"/><path class="cls-2" d="M315.54,384H23.46A3.46,3.46,0,0,1,20,380.54V3.46A3.46,3.46,0,0,1,23.46,0H237.53A3.44,3.44,0,0,1,240,1.06L318,82a3.49,3.49,0,0,1,1,2.41V380.54A3.46,3.46,0,0,1,315.54,384Z"/><path class="cls-3" d="M319,83V93H246.64A7.64,7.64,0,0,1,239,85.36V10l65,67.46Z"/><path class="cls-4" d="M239,75.36V0l80,83H246.64A7.64,7.64,0,0,1,239,75.36Z"/><rect class="cls-5" x="20" y="294" width="299" height="24"/><rect class="cls-6" y="179" width="340" height="130" rx="6.56"/><path class="cls-7" d="M84.21,274.43H74a4.78,4.78,0,0,1-3.56-1.51,5,5,0,0,1-1.48-3.6V226.91a5,5,0,0,1,1.48-3.6A4.78,4.78,0,0,1,74,221.8H87.52a27.79,27.79,0,0,1,12.13,2.59,23.51,23.51,0,0,1,9,7.56,25.53,25.53,0,0,1,4.39,10.3,28.52,28.52,0,0,1-.22,11.59,25.64,25.64,0,0,1-3.7,8.89,24.85,24.85,0,0,1-6.59,6.66,27.11,27.11,0,0,1-8.32,3.78A38.18,38.18,0,0,1,84.21,274.43ZM79.1,264.28h5.11q7.7,0,12.67-3.31a14.82,14.82,0,0,0,6.05-9.36,17.91,17.91,0,0,0,.21-7.31,15.52,15.52,0,0,0-2.66-6.37q-4.4-5.91-13-5.91H79.1Z"/><path class="cls-7" d="M144.4,274.43a23.88,23.88,0,0,1-9.72-2,24.84,24.84,0,0,1-8.21-5.83,26.45,26.45,0,0,1-5.4-8.49,27,27,0,0,1-1.87-10A27.33,27.33,0,0,1,121.07,238a26.41,26.41,0,0,1,5.4-8.53,24.51,24.51,0,0,1,35.86,0A25.78,25.78,0,0,1,167.8,238a27.33,27.33,0,0,1,1.87,10.05,27,27,0,0,1-1.87,10,25.82,25.82,0,0,1-5.47,8.49,24.84,24.84,0,0,1-8.21,5.83A23.88,23.88,0,0,1,144.4,274.43Zm0-43a14.47,14.47,0,0,0-10.87,4.75,16.63,16.63,0,0,0-3.42,5.4,18.13,18.13,0,0,0,0,12.92,15.89,15.89,0,0,0,3.42,5.37,16.31,16.31,0,0,0,5,3.56,14,14,0,0,0,5.87,1.26,14.25,14.25,0,0,0,5.9-1.26,15.4,15.4,0,0,0,5-3.56,15,15,0,0,0,3.46-5.37,18.72,18.72,0,0,0,0-12.92,15.65,15.65,0,0,0-3.46-5.4,14.87,14.87,0,0,0-5-3.53A14.54,14.54,0,0,0,144.4,231.45Z"/><path class="cls-7" d="M213.66,259.81a5,5,0,0,1,8.5,3.53,4.74,4.74,0,0,1-1.44,3.51,25.53,25.53,0,0,1-8.53,5.76,27,27,0,0,1-20.23,0,26.63,26.63,0,0,1-14.28-14.32,27.11,27.11,0,0,1,0-20.24,27,27,0,0,1,5.69-8.6,26.48,26.48,0,0,1,8.59-5.72,26.33,26.33,0,0,1,28.76,5.72,5,5,0,0,1-7.06,7.06,16.37,16.37,0,0,0-5.29-3.57,16.38,16.38,0,0,0-12.6,0,17.43,17.43,0,0,0-5.36,3.58,15.8,15.8,0,0,0-3.53,5.34,16.7,16.7,0,0,0-1.23,6.35,16.46,16.46,0,0,0,1.23,6.31,15.83,15.83,0,0,0,3.53,5.3,17.43,17.43,0,0,0,5.36,3.58,16.38,16.38,0,0,0,12.6,0A16.37,16.37,0,0,0,213.66,259.81Z"/><path class="cls-7" d="M273,266a4.85,4.85,0,0,1,1.15,3.74,5.18,5.18,0,0,1-5,4.54,5,5,0,0,1-2.09-.47,5.21,5.21,0,0,1-1.8-1.41l-13.68-16.56-13.6,16.56a5.21,5.21,0,0,1-1.8,1.41,5,5,0,0,1-2.09.47,5.18,5.18,0,0,1-5-4.54,4.85,4.85,0,0,1,1.15-3.74l14.9-18.08-14.9-18.07a4.81,4.81,0,0,1-1.15-3.71,5,5,0,0,1,1.87-3.42,4.69,4.69,0,0,1,3.67-1.15,4.82,4.82,0,0,1,3.39,1.87L251.53,240l13.68-16.56a4.82,4.82,0,0,1,3.39-1.87,4.69,4.69,0,0,1,3.67,1.15,5,5,0,0,1,1.87,3.42,4.81,4.81,0,0,1-1.15,3.71l-14.9,18.07Z"/></g></g></svg>