<svg xmlns="http://www.w3.org/2000/svg" viewBox="0 0 340 384"><defs><style>.cls-1{fill:#d18830;}.cls-2{fill:#f3f3f3;}.cls-3{fill:#e7e7e7;}.cls-4{fill:#cbcbcb;}.cls-5{fill:#dfdfdf;}.cls-6{fill:#f9ae3d;}.cls-7{fill:#fff;}</style></defs><g id="Layer_2" data-name="Layer 2"><g id="Layer_1-2" data-name="Layer 1"><polygon class="cls-1" points="2 181 21 162 21 181 2 181"/><polygon class="cls-1" points="337 180 318 161 318 180 337 180"/><path class="cls-2" d="M315.54,384H23.46A3.46,3.46,0,0,1,20,380.54V3.46A3.46,3.46,0,0,1,23.46,0H237.53A3.44,3.44,0,0,1,240,1.06L318,82a3.49,3.49,0,0,1,1,2.41V380.54A3.46,3.46,0,0,1,315.54,384Z"/><path class="cls-3" d="M319,83V93H246.64A7.64,7.64,0,0,1,239,85.36V10l65,67.46Z"/><path class="cls-4" d="M239,75.36V0l80,83H246.64A7.64,7.64,0,0,1,239,75.36Z"/><rect class="cls-5" x="20" y="294" width="299" height="24"/><rect class="cls-6" y="179" width="340" height="130" rx="6.56"/><path class="cls-7" d="M140.29,265.93a5,5,0,0,1-3.53,8.5H108.61a4.92,4.92,0,0,1-5-5V226.77a4.92,4.92,0,0,1,5-5h28.58a5,5,0,1,1,0,9.93H113.58v11.45h21.09a4.89,4.89,0,0,1,3.57,1.47,4.79,4.79,0,0,1,1.47,3.54,4.69,4.69,0,0,1-1.47,3.5,5,5,0,0,1-3.57,1.43H113.58v11.37h23.18A4.81,4.81,0,0,1,140.29,265.93Z"/><path class="cls-7" d="M155.05,274.5a4.58,4.58,0,0,1-3.42-1.44,4.76,4.76,0,0,1-1.41-3.45V226.48a5.11,5.11,0,0,1,.36-1.91,4.1,4.1,0,0,1,1.08-1.55,4.18,4.18,0,0,1,1.55-1.08,4.9,4.9,0,0,1,1.84-.36h15a19.54,19.54,0,0,1,8.63,2,17.49,17.49,0,0,1,7,6.08,19.71,19.71,0,0,1,3.28,9,18.7,18.7,0,0,1-1.3,9.5,18.26,18.26,0,0,1-5.75,7.49,16,16,0,0,1-4.33,2.48,23.36,23.36,0,0,1-4.5,1.19,32.84,32.84,0,0,1-4.5.4c-1.48,0-2.9,0-4.24,0h-4.47v9.94a4.75,4.75,0,0,1-1.4,3.45A4.68,4.68,0,0,1,155.05,274.5ZM159.94,250h4.68q3.39.08,6.34-.14a9,9,0,0,0,5-1.88,8.34,8.34,0,0,0,2.73-3.6,10,10,0,0,0,.65-4.68,10.13,10.13,0,0,0-1.55-4.39,8.14,8.14,0,0,0-3.34-2.95,10.34,10.34,0,0,0-4.39-1H159.94Z"/><path class="cls-7" d="M213.15,274.29a27.27,27.27,0,0,1-5.83-.65,21.23,21.23,0,0,1-5.55-2.05A17.63,17.63,0,0,1,197.2,268a13.39,13.39,0,0,1-2.91-5.18,4.46,4.46,0,0,1,.28-3.67,4.88,4.88,0,0,1,2.89-2.45,4.79,4.79,0,0,1,3.74.36,4.55,4.55,0,0,1,2.37,2.88,4.82,4.82,0,0,0,1.52,2.19,8.91,8.91,0,0,0,2.59,1.48,14,14,0,0,0,3.24.79,15.35,15.35,0,0,0,3.38.07,12.87,12.87,0,0,0,4-.86,7,7,0,0,0,2.74-1.8,3.6,3.6,0,0,0,.79-2.88c-.09-1.3-1.09-2.4-3-3.31a61.17,61.17,0,0,0-7.24-2.81l-1.44-.43c-1-.34-2-.73-3.28-1.19a31,31,0,0,1-3.71-1.69,23.5,23.5,0,0,1-3.56-2.38,12.23,12.23,0,0,1-2.84-3.27,12,12,0,0,1-1.55-4.32,14.13,14.13,0,0,1,.32-5.51,15.05,15.05,0,0,1,5.76-8.64,18.82,18.82,0,0,1,4.9-2.56,20,20,0,0,1,5.9-1.11,20.79,20.79,0,0,1,11.05,2.34,15.82,15.82,0,0,1,7.17,7.45A4.81,4.81,0,0,1,228,238a5,5,0,0,1-3.78.11,4.47,4.47,0,0,1-2.7-2.56,6.23,6.23,0,0,0-1.54-2,7.82,7.82,0,0,0-2.17-1.3,12,12,0,0,0-2.52-.68,12.2,12.2,0,0,0-2.62-.14,12.07,12.07,0,0,0-2.34.36,9.74,9.74,0,0,0-2.27.86,7.05,7.05,0,0,0-1.91,1.48,5.45,5.45,0,0,0-1.26,3.81,2.65,2.65,0,0,0,.83,1.55,8.94,8.94,0,0,0,2.55,1.66,46.67,46.67,0,0,0,5,1.94l1.44.5q2.67.87,5.51,2a28.43,28.43,0,0,1,5.29,2.74,15.35,15.35,0,0,1,4.11,4,11.5,11.5,0,0,1,1.94,5.8,12.8,12.8,0,0,1-3.09,10,16.36,16.36,0,0,1-5.73,4.18,23.3,23.3,0,0,1-7.74,1.94,6.26,6.26,0,0,1-.93.08Z"/></g></g></svg>