<svg width="16" height="16" viewBox="0 0 16 16" fill="none" xmlns="http://www.w3.org/2000/svg">
<rect width="16" height="15.6863" rx="7.84314" fill="#EEF2F4"/>
<path d="M6.63623 7.00968V10.343C6.63623 10.4535 6.68412 10.5595 6.76936 10.6376C6.85461 10.7158 6.97022 10.7597 7.09078 10.7597C7.21133 10.7597 7.32694 10.7158 7.41219 10.6376C7.49743 10.5595 7.54532 10.4535 7.54532 10.343V7.00968C7.54532 6.89918 7.49743 6.7932 7.41219 6.71506C7.32694 6.63692 7.21133 6.59302 7.09078 6.59302C6.97022 6.59302 6.85461 6.63692 6.76936 6.71506C6.68412 6.7932 6.63623 6.89918 6.63623 7.00968Z" fill="#8999A5"/>
<path d="M8.90914 6.59302C9.02969 6.59302 9.1453 6.63692 9.23055 6.71506C9.31579 6.7932 9.36368 6.89918 9.36368 7.00968V10.343C9.36368 10.4535 9.31579 10.5595 9.23055 10.6376C9.1453 10.7158 9.02969 10.7597 8.90914 10.7597C8.78858 10.7597 8.67297 10.7158 8.58772 10.6376C8.50248 10.5595 8.45459 10.4535 8.45459 10.343V7.00968C8.45459 6.89918 8.50248 6.7932 8.58772 6.71506C8.67297 6.63692 8.78858 6.59302 8.90914 6.59302Z" fill="#8999A5"/>
<path d="M9.81818 4.50968H12.5455C12.666 4.50968 12.7816 4.55358 12.8669 4.63172C12.9521 4.70986 13 4.81584 13 4.92635C13 5.03686 12.9521 5.14284 12.8669 5.22098C12.7816 5.29912 12.666 5.34302 12.5455 5.34302H12.0427L11.3591 10.9897C11.2973 11.4993 11.0327 11.9701 10.6159 12.3121C10.1991 12.654 9.65936 12.8431 9.1 12.843H6.9C6.34064 12.8431 5.80089 12.654 5.38408 12.3121C4.96727 11.9701 4.70266 11.4993 4.64091 10.9897L3.95636 5.34302H3.45455C3.33399 5.34302 3.21838 5.29912 3.13313 5.22098C3.04789 5.14284 3 5.03686 3 4.92635C3 4.81584 3.04789 4.70986 3.13313 4.63172C3.21838 4.55358 3.33399 4.50968 3.45455 4.50968H6.18182C6.18182 4.06766 6.37338 3.64373 6.71435 3.33117C7.05533 3.01861 7.51779 2.84302 8 2.84302C8.48221 2.84302 8.94467 3.01861 9.28565 3.33117C9.62662 3.64373 9.81818 4.06766 9.81818 4.50968V4.50968ZM8 3.67635C7.75889 3.67635 7.52766 3.76415 7.35718 3.92043C7.18669 4.07671 7.09091 4.28867 7.09091 4.50968H8.90909C8.90909 4.28867 8.81331 4.07671 8.64282 3.92043C8.47234 3.76415 8.24111 3.67635 8 3.67635V3.67635ZM4.87182 5.34302L5.54455 10.898C5.58168 11.2037 5.74048 11.4862 5.99056 11.6913C6.24064 11.8964 6.56444 12.0097 6.9 12.0097H9.1C9.43541 12.0095 9.75898 11.8961 10.0089 11.691C10.2588 11.4859 10.4174 11.2036 10.4545 10.898L11.1291 5.34302H4.87273H4.87182Z" fill="#8999A5"/>
</svg>
