<svg xmlns="http://www.w3.org/2000/svg" viewBox="0 0 340 384"><defs><style>.cls-1{fill:#d18830;}.cls-2{fill:#f3f3f3;}.cls-3{fill:#e7e7e7;}.cls-4{fill:#cbcbcb;}.cls-5{fill:#dfdfdf;}.cls-6{fill:#f9ae3d;}.cls-7{fill:#fff;}</style></defs><g id="Layer_2" data-name="Layer 2"><g id="Layer_1-2" data-name="Layer 1"><polygon class="cls-1" points="2 181 21 162 21 181 2 181"/><polygon class="cls-1" points="337 180 318 161 318 180 337 180"/><path class="cls-2" d="M315.54,384H23.46A3.46,3.46,0,0,1,20,380.54V3.46A3.46,3.46,0,0,1,23.46,0H237.53A3.44,3.44,0,0,1,240,1.06L318,82a3.49,3.49,0,0,1,1,2.41V380.54A3.46,3.46,0,0,1,315.54,384Z"/><path class="cls-3" d="M319,83V93H246.64A7.64,7.64,0,0,1,239,85.36V10l65,67.46Z"/><path class="cls-4" d="M239,75.36V0l80,83H246.64A7.64,7.64,0,0,1,239,75.36Z"/><rect class="cls-5" x="20" y="294" width="299" height="24"/><rect class="cls-6" y="179" width="340" height="130" rx="6.56"/><path class="cls-7" d="M133.78,221.65a4.81,4.81,0,0,1,3.57,1.52,5,5,0,0,1,1.47,3.6v29.3a18.44,18.44,0,0,1-1.29,6.95,17.25,17.25,0,0,1-3.82,5.72,19.09,19.09,0,0,1-6.73,4.32,22.68,22.68,0,0,1-8.24,1.51h-.22a21.89,21.89,0,0,1-7.38-1.29,19.79,19.79,0,0,1-6.48-3.82,18.66,18.66,0,0,1-4.57-6.23,20.19,20.19,0,0,1-1.73-8.6v-3.24a5,5,0,0,1,1.48-3.6,5,5,0,0,1,7.12,0,5,5,0,0,1,1.48,3.6v3.24A8.92,8.92,0,0,0,112.9,263a9.59,9.59,0,0,0,3.42,1.19,22.72,22.72,0,0,0,2.34.21,13.44,13.44,0,0,0,4.4-.72,9.08,9.08,0,0,0,3.52-2.16,7.72,7.72,0,0,0,2.16-5.47v-29.3a5,5,0,0,1,1.48-3.6A4.79,4.79,0,0,1,133.78,221.65Z"/><path class="cls-7" d="M151.64,274.5a4.58,4.58,0,0,1-3.42-1.44,4.76,4.76,0,0,1-1.41-3.45V226.48a5.11,5.11,0,0,1,.36-1.91,4.1,4.1,0,0,1,1.08-1.55,4.18,4.18,0,0,1,1.55-1.08,4.9,4.9,0,0,1,1.84-.36h15.05a19.61,19.61,0,0,1,8.64,2,17.56,17.56,0,0,1,7,6.08,19.81,19.81,0,0,1,3.27,9,18.7,18.7,0,0,1-1.29,9.5,18.37,18.37,0,0,1-5.76,7.49,16.09,16.09,0,0,1-4.32,2.48,23.75,23.75,0,0,1-4.5,1.19,33.12,33.12,0,0,1-4.5.4c-1.49,0-2.91,0-4.25,0h-4.47v9.94a4.75,4.75,0,0,1-1.4,3.45A4.68,4.68,0,0,1,151.64,274.5ZM156.53,250h4.68q3.39.08,6.34-.14a9,9,0,0,0,5-1.88,8.44,8.44,0,0,0,2.74-3.6,10,10,0,0,0-.9-9.07,8.17,8.17,0,0,0-3.35-2.95,10.34,10.34,0,0,0-4.39-1H156.53Z"/><path class="cls-7" d="M214.21,274.36a24.14,24.14,0,0,1-9.69-2,24.52,24.52,0,0,1-8.17-5.8,26.45,26.45,0,0,1-5.4-8.49,27.62,27.62,0,0,1,0-20,25.38,25.38,0,0,1,5.4-8.46,24.4,24.4,0,0,1,17.78-7.85c.39,0,1.24,0,2.56.07a22.34,22.34,0,0,1,4.72.79A27.41,27.41,0,0,1,229,225.9a22.92,22.92,0,0,1,6,5.4A4.87,4.87,0,0,1,236,235a4.72,4.72,0,0,1-1.87,3.32,4.94,4.94,0,0,1-3.67,1.08,4.69,4.69,0,0,1-3.31-1.88,16.83,16.83,0,0,0-3.64-3.2,15.23,15.23,0,0,0-4.64-2,13.54,13.54,0,0,0-3.1-.54l-1.3,0h-.28a13.86,13.86,0,0,0-5.76,1.23,15,15,0,0,0-4.9,3.53,16.58,16.58,0,0,0-3.35,5.29,16.92,16.92,0,0,0-1.19,6.3,17.13,17.13,0,0,0,1.19,6.37,16.58,16.58,0,0,0,3.35,5.29,14.56,14.56,0,0,0,4.9,3.49,14.15,14.15,0,0,0,5.76,1.19,14.56,14.56,0,0,0,10.72-4.68,17.45,17.45,0,0,0,3.82-6.69H214.21a5,5,0,1,1,0-9.94h20.23a4.92,4.92,0,0,1,5,5,27.06,27.06,0,0,1-1.88,10,26.11,26.11,0,0,1-5.4,8.49,24.25,24.25,0,0,1-17.92,7.78Z"/></g></g></svg>