<svg xmlns="http://www.w3.org/2000/svg" viewBox="0 0 340 384"><defs><style>.cls-1{fill:#cf6688;}.cls-2{fill:#f3f3f3;}.cls-3{fill:#e7e7e7;}.cls-4{fill:#cbcbcb;}.cls-5{fill:#dfdfdf;}.cls-6{fill:#ff4d78;}.cls-7{fill:#fff;}</style></defs><g id="Layer_2" data-name="Layer 2"><g id="Layer_1-2" data-name="Layer 1"><polygon class="cls-1" points="2 181 21 162 21 181 2 181"/><polygon class="cls-1" points="337 180 318 161 318 180 337 180"/><path class="cls-2" d="M315.54,384H23.46A3.46,3.46,0,0,1,20,380.54V3.46A3.46,3.46,0,0,1,23.46,0H237.53A3.44,3.44,0,0,1,240,1.06L318,82a3.49,3.49,0,0,1,1,2.41V380.54A3.46,3.46,0,0,1,315.54,384Z"/><path class="cls-3" d="M319,83V93H246.64A7.64,7.64,0,0,1,239,85.36V10l65,67.46Z"/><path class="cls-4" d="M239,75.36V0l80,83H246.64A7.64,7.64,0,0,1,239,75.36Z"/><rect class="cls-5" x="20" y="294" width="299" height="24"/><rect class="cls-6" y="179" width="340" height="130" rx="6.56"/><path class="cls-7" d="M109.25,274.5a4.58,4.58,0,0,1-3.42-1.44,4.76,4.76,0,0,1-1.41-3.45V226.48a5.11,5.11,0,0,1,.36-1.91,4.1,4.1,0,0,1,1.08-1.55,4.18,4.18,0,0,1,1.55-1.08,4.9,4.9,0,0,1,1.84-.36h15a19.61,19.61,0,0,1,8.64,2,17.56,17.56,0,0,1,7,6.08,19.81,19.81,0,0,1,3.27,9,18.7,18.7,0,0,1-1.29,9.5,18.37,18.37,0,0,1-5.76,7.49,16.09,16.09,0,0,1-4.32,2.48,23.75,23.75,0,0,1-4.5,1.19,33.12,33.12,0,0,1-4.5.4c-1.49,0-2.91,0-4.25,0h-4.47v9.94a4.75,4.75,0,0,1-1.4,3.45A4.68,4.68,0,0,1,109.25,274.5ZM114.14,250h4.68q3.39.08,6.34-.14a9,9,0,0,0,5-1.88,8.44,8.44,0,0,0,2.74-3.6,10,10,0,0,0-.9-9.07,8.17,8.17,0,0,0-3.35-2.95,10.34,10.34,0,0,0-4.39-1H114.14Z"/><path class="cls-7" d="M166.92,274.43H156.7a4.78,4.78,0,0,1-3.57-1.51,5,5,0,0,1-1.47-3.6V226.91a5,5,0,0,1,1.47-3.6,4.78,4.78,0,0,1,3.57-1.51h13.53a27.76,27.76,0,0,1,12.13,2.59,23.51,23.51,0,0,1,9,7.56,25.53,25.53,0,0,1,4.39,10.3,28.69,28.69,0,0,1-.21,11.59,25.65,25.65,0,0,1-3.71,8.89,24.85,24.85,0,0,1-6.59,6.66,27.11,27.11,0,0,1-8.32,3.78A38.18,38.18,0,0,1,166.92,274.43Zm-5.11-10.15h5.11q7.71,0,12.67-3.31a14.82,14.82,0,0,0,6-9.36,17.91,17.91,0,0,0,.22-7.31,15.67,15.67,0,0,0-2.67-6.37q-4.4-5.91-13-5.91h-8.42Z"/><path class="cls-7" d="M214.66,231.66v14h21.16a4.94,4.94,0,0,1,3.57,1.44,5,5,0,0,1,0,7.06,4.94,4.94,0,0,1-3.57,1.44H214.66v14a5,5,0,1,1-9.94,0V226.69a4.92,4.92,0,0,1,5-5h28.65a5,5,0,1,1,0,9.93Z"/></g></g></svg>