<svg xmlns="http://www.w3.org/2000/svg" viewBox="0 0 340 384"><defs><style>.cls-1{fill:#0b8eae;}.cls-2{fill:#f3f3f3;}.cls-3{fill:#e7e7e7;}.cls-4{fill:#cbcbcb;}.cls-5{fill:#dfdfdf;}.cls-6{fill:#2aaae0;}.cls-7{fill:#fff;}</style></defs><g id="Layer_2" data-name="Layer 2"><g id="Layer_1-2" data-name="Layer 1"><polygon class="cls-1" points="2 181 21 162 21 181 2 181"/><polygon class="cls-1" points="337 180 318 161 318 180 337 180"/><path class="cls-2" d="M315.54,384H23.46A3.46,3.46,0,0,1,20,380.54V3.46A3.46,3.46,0,0,1,23.46,0H237.53A3.45,3.45,0,0,1,240,1.06L318,82a3.5,3.5,0,0,1,1,2.41V380.54A3.46,3.46,0,0,1,315.54,384Z"/><path class="cls-3" d="M319,83V93H246.64A7.64,7.64,0,0,1,239,85.36V10l65,67.46Z"/><path class="cls-4" d="M239,75.36V0l80,83H246.64A7.64,7.64,0,0,1,239,75.36Z"/><rect class="cls-5" x="20" y="294" width="299" height="24"/><rect class="cls-6" y="179" width="340" height="130" rx="6.56"/><path class="cls-7" d="M103.21,274.12a4.58,4.58,0,0,1-3.42-1.44,4.76,4.76,0,0,1-1.41-3.45V226.1a5.11,5.11,0,0,1,.36-1.91,4.1,4.1,0,0,1,1.08-1.55,4.18,4.18,0,0,1,1.55-1.08,4.9,4.9,0,0,1,1.84-.36h15.05a19.61,19.61,0,0,1,8.64,2,17.56,17.56,0,0,1,7,6.08,19.81,19.81,0,0,1,3.27,9,18.7,18.7,0,0,1-1.29,9.5,18.37,18.37,0,0,1-5.76,7.49,16.09,16.09,0,0,1-4.32,2.48,23.75,23.75,0,0,1-4.5,1.19,33.12,33.12,0,0,1-4.5.4c-1.49,0-2.91,0-4.25,0H108.1v9.94a4.75,4.75,0,0,1-1.4,3.45A4.68,4.68,0,0,1,103.21,274.12Zm4.89-24.55h4.68q3.39.08,6.34-.14a9,9,0,0,0,5-1.88,8.44,8.44,0,0,0,2.74-3.6,10,10,0,0,0-.9-9.07,8.17,8.17,0,0,0-3.35-2.95,10.34,10.34,0,0,0-4.39-1H108.1Z"/><path class="cls-7" d="M185,274.19a5,5,0,0,1-3.89-1.8l-17.85-21.74-9-10.73v29.31a4.73,4.73,0,0,1-1.47,3.52,4.88,4.88,0,0,1-3.54,1.44,4.74,4.74,0,0,1-3.5-1.44,4.81,4.81,0,0,1-1.43-3.52v-43a4.78,4.78,0,0,1,.9-2.84,5.17,5.17,0,0,1,2.41-1.84,4.46,4.46,0,0,1,3-.14,5,5,0,0,1,2.52,1.65L171,244.24l9,11v-29a4.76,4.76,0,0,1,1.47-3.53,4.84,4.84,0,0,1,3.54-1.44,4.75,4.75,0,0,1,3.5,1.44,4.84,4.84,0,0,1,1.43,3.53v43a4.78,4.78,0,0,1-.9,2.84,5.22,5.22,0,0,1-2.41,1.84,7.77,7.77,0,0,1-.83.21A4.5,4.5,0,0,1,185,274.19Z"/><path class="cls-7" d="M220.35,274a24.09,24.09,0,0,1-9.68-2,24.52,24.52,0,0,1-8.17-5.8,26.11,26.11,0,0,1-5.4-8.49,27.48,27.48,0,0,1,0-20,25.07,25.07,0,0,1,5.4-8.46,24.36,24.36,0,0,1,17.78-7.85c.38,0,1.23,0,2.56.07a22.26,22.26,0,0,1,4.71.79,27.16,27.16,0,0,1,7.56,3.24,22.8,22.8,0,0,1,6,5.4,5,5,0,0,1,1.08,3.67,4.75,4.75,0,0,1-1.87,3.32,5,5,0,0,1-3.68,1.08,4.73,4.73,0,0,1-3.31-1.88,16.78,16.78,0,0,0-3.63-3.2,15.19,15.19,0,0,0-4.65-2,13.56,13.56,0,0,0-3.09-.54l-1.3,0h-.29a13.93,13.93,0,0,0-5.76,1.23,15,15,0,0,0-4.89,3.53,16.58,16.58,0,0,0-3.35,5.29,16.92,16.92,0,0,0-1.19,6.3,17.13,17.13,0,0,0,1.19,6.37,16.58,16.58,0,0,0,3.35,5.29,14.63,14.63,0,0,0,4.89,3.49,14.22,14.22,0,0,0,5.76,1.19,14.56,14.56,0,0,0,10.73-4.68,17.45,17.45,0,0,0,3.82-6.69H220.35a5,5,0,1,1,0-9.94h20.23a4.92,4.92,0,0,1,5,5,27,27,0,0,1-1.87,10,26.45,26.45,0,0,1-5.4,8.49A24.29,24.29,0,0,1,220.35,274Z"/></g></g></svg>