<svg xmlns="http://www.w3.org/2000/svg" viewBox="0 0 340 384"><defs><style>.cls-1{fill:#d18830;}.cls-2{fill:#f3f3f3;}.cls-3{fill:#e7e7e7;}.cls-4{fill:#cbcbcb;}.cls-5{fill:#dfdfdf;}.cls-6{fill:#f9ae3d;}.cls-7{fill:#fff;}</style></defs><g id="Layer_2" data-name="Layer 2"><g id="Layer_1-2" data-name="Layer 1"><polygon class="cls-1" points="2 181 21 162 21 181 2 181"/><polygon class="cls-1" points="337 180 318 161 318 180 337 180"/><path class="cls-2" d="M315.54,384H23.46A3.46,3.46,0,0,1,20,380.54V3.46A3.46,3.46,0,0,1,23.46,0H237.53A3.44,3.44,0,0,1,240,1.06L318,82a3.49,3.49,0,0,1,1,2.41V380.54A3.46,3.46,0,0,1,315.54,384Z"/><path class="cls-3" d="M319,83V93H246.64A7.64,7.64,0,0,1,239,85.36V10l65,67.46Z"/><path class="cls-4" d="M239,75.36V0l80,83H246.64A7.64,7.64,0,0,1,239,75.36Z"/><rect class="cls-5" x="20" y="294" width="299" height="24"/><rect class="cls-6" y="179" width="340" height="130" rx="6.56"/><path class="cls-7" d="M139.37,264.71a4.86,4.86,0,0,1,2.81,2.56,5,5,0,0,1,.21,3.78,4.81,4.81,0,0,1-1.87,2.44,4.93,4.93,0,0,1-2.81.87,5.11,5.11,0,0,1-1.73-.29,20.47,20.47,0,0,1-5.07-2.48,20.77,20.77,0,0,1-3.64-3.17,19.66,19.66,0,0,1-2.48-3.42,22,22,0,0,1-1.55-3.31,8.92,8.92,0,0,1-.72-2.38,37.5,37.5,0,0,1-5.62,1.19,32.8,32.8,0,0,1-6.33.18v8.57a4.91,4.91,0,0,1-1.44,3.56,4.95,4.95,0,0,1-7.06,0,4.91,4.91,0,0,1-1.44-3.56V227a5.3,5.3,0,0,1,1.44-3.67,4.58,4.58,0,0,1,3.53-1.58l1.3,0a13.42,13.42,0,0,0,1.65,0c1.15-.1,2.49-.15,4-.15s3.06,0,4.64.07a45.24,45.24,0,0,1,9.15,1,15.74,15.74,0,0,1,6.12,2.77,17.24,17.24,0,0,1,4.64,5.22,16.73,16.73,0,0,1,1.62,13,20.2,20.2,0,0,1-3.17,6.52,21.42,21.42,0,0,1-3.81,4.1,12.28,12.28,0,0,0,.14,1.58,10.42,10.42,0,0,0,.65,2.38A10.58,10.58,0,0,0,139.37,264.71Zm-28.8-14a21.89,21.89,0,0,0,10.62-1.55,15.06,15.06,0,0,0,6.3-4.86,10.66,10.66,0,0,0,1.4-2.55,8,8,0,0,0,.54-2.88,6.21,6.21,0,0,0-.72-2.88,8.07,8.07,0,0,0-2.3-2.63,3.51,3.51,0,0,0-.79-.5,7.15,7.15,0,0,0-1.66-.54,26.61,26.61,0,0,0-2.81-.47c-1.15-.15-2.54-.24-4.17-.29-1.11,0-2.21,0-3.32,0s-2.13.06-3.09.1Z"/><path class="cls-7" d="M195,267.45a4.78,4.78,0,0,1,.18,3.78,4.91,4.91,0,0,1-2.55,2.84,5.58,5.58,0,0,1-2.09.43,5.13,5.13,0,0,1-2.66-.72,4.67,4.67,0,0,1-1.88-2.09l-2.08-4.46H156.22l-2.16,4.46a5,5,0,0,1-2.88,2.56,5,5,0,0,1-6.12-6.88l20.8-42.84a4.32,4.32,0,0,1,1.84-2,5.87,5.87,0,0,1,2.7-.79,4.83,4.83,0,0,1,2.63.75,5,5,0,0,1,1.83,2.13c.39.81.76,1.6,1.12,2.37l1.12,2.38,4.71,10q2.34,5,4.79,10,2.09,4.53,4.21,9T195,267.45Zm-15.84-10.16-8.92-18.93L161,257.29Z"/><path class="cls-7" d="M237.58,264.71a4.81,4.81,0,0,1,2.8,2.56,4.94,4.94,0,0,1-4.46,7.09,5.06,5.06,0,0,1-1.73-.29,20.29,20.29,0,0,1-5.07-2.48,20.77,20.77,0,0,1-3.64-3.17A19.15,19.15,0,0,1,223,265a22,22,0,0,1-1.55-3.31,8.92,8.92,0,0,1-.72-2.38,37.5,37.5,0,0,1-5.62,1.19,32.82,32.82,0,0,1-6.33.18v8.57a4.91,4.91,0,0,1-1.45,3.56,4.94,4.94,0,0,1-7.05,0,4.91,4.91,0,0,1-1.44-3.56V227a5.3,5.3,0,0,1,1.44-3.67,4.56,4.56,0,0,1,3.53-1.58l1.29,0a13.61,13.61,0,0,0,1.66,0c1.15-.1,2.48-.15,4-.15s3.06,0,4.64.07a45,45,0,0,1,9.14,1,15.6,15.6,0,0,1,6.12,2.77,17.15,17.15,0,0,1,4.65,5.22,17.35,17.35,0,0,1,2.12,6.26,16.87,16.87,0,0,1-.5,6.7,20.4,20.4,0,0,1-3.17,6.52,21.18,21.18,0,0,1-3.82,4.1,12.76,12.76,0,0,0,.15,1.58,9.93,9.93,0,0,0,.65,2.38A10.58,10.58,0,0,0,237.58,264.71Zm-28.8-14a21.89,21.89,0,0,0,10.62-1.55,15.23,15.23,0,0,0,6.3-4.86,10.66,10.66,0,0,0,1.4-2.55,8,8,0,0,0,.54-2.88,6.21,6.21,0,0,0-.72-2.88,8.07,8.07,0,0,0-2.3-2.63,3.4,3.4,0,0,0-.8-.5,6.89,6.89,0,0,0-1.65-.54,26.61,26.61,0,0,0-2.81-.47c-1.15-.15-2.55-.24-4.18-.29-1.1,0-2.21,0-3.31,0s-2.14.06-3.09.1Z"/></g></g></svg>