<svg xmlns="http://www.w3.org/2000/svg" viewBox="0 0 340 384"><defs><style>.cls-1{fill:#d18830;}.cls-2{fill:#f3f3f3;}.cls-3{fill:#e7e7e7;}.cls-4{fill:#cbcbcb;}.cls-5{fill:#dfdfdf;}.cls-6{fill:#f9ae3d;}.cls-7{fill:#fff;}</style></defs><g id="Layer_2" data-name="Layer 2"><g id="Layer_1-2" data-name="Layer 1"><polygon class="cls-1" points="2 181 21 162 21 181 2 181"/><polygon class="cls-1" points="337 180 318 161 318 180 337 180"/><path class="cls-2" d="M315.54,384H23.46A3.46,3.46,0,0,1,20,380.54V3.46A3.46,3.46,0,0,1,23.46,0H237.53A3.44,3.44,0,0,1,240,1.06L318,82a3.49,3.49,0,0,1,1,2.41V380.54A3.46,3.46,0,0,1,315.54,384Z"/><path class="cls-3" d="M319,83V93H246.64A7.64,7.64,0,0,1,239,85.36V10l65,67.46Z"/><path class="cls-4" d="M239,75.36V0l80,83H246.64A7.64,7.64,0,0,1,239,75.36Z"/><rect class="cls-5" x="20" y="294" width="299" height="24"/><rect class="cls-6" y="179" width="340" height="130" rx="6.56"/><path class="cls-7" d="M120.64,274.29a27.27,27.27,0,0,1-5.83-.65,21.23,21.23,0,0,1-5.55-2.05,17.63,17.63,0,0,1-4.57-3.57,13.39,13.39,0,0,1-2.91-5.18,4.46,4.46,0,0,1,.28-3.67,4.89,4.89,0,0,1,2.88-2.45,4.81,4.81,0,0,1,3.75.36,4.55,4.55,0,0,1,2.37,2.88,4.82,4.82,0,0,0,1.52,2.19,8.91,8.91,0,0,0,2.59,1.48,14,14,0,0,0,3.24.79,15.35,15.35,0,0,0,3.38.07,12.87,12.87,0,0,0,4-.86,7,7,0,0,0,2.74-1.8,3.6,3.6,0,0,0,.79-2.88c-.1-1.3-1.09-2.4-3-3.31a60.94,60.94,0,0,0-7.23-2.81l-1.44-.43c-1-.34-2-.73-3.28-1.19a31,31,0,0,1-3.71-1.69,23.5,23.5,0,0,1-3.56-2.38,12.23,12.23,0,0,1-2.84-3.27,12,12,0,0,1-1.55-4.32,14.13,14.13,0,0,1,.32-5.51,15.05,15.05,0,0,1,5.76-8.64,18.82,18.82,0,0,1,4.9-2.56,20,20,0,0,1,5.9-1.11,20.79,20.79,0,0,1,11.05,2.34,15.82,15.82,0,0,1,7.17,7.45,4.78,4.78,0,0,1,.18,3.74,4.72,4.72,0,0,1-2.56,2.74,5,5,0,0,1-3.78.11,4.47,4.47,0,0,1-2.7-2.56,6.12,6.12,0,0,0-1.55-2,7.63,7.63,0,0,0-2.16-1.3,12,12,0,0,0-2.52-.68,12.2,12.2,0,0,0-2.62-.14,12.07,12.07,0,0,0-2.34.36,9.57,9.57,0,0,0-2.27.86,7.05,7.05,0,0,0-1.91,1.48,4.68,4.68,0,0,0-1.12,2.19,4.86,4.86,0,0,0-.14,1.62,2.65,2.65,0,0,0,.83,1.55,8.94,8.94,0,0,0,2.55,1.66,46.67,46.67,0,0,0,5,1.94l1.44.5c1.78.58,3.61,1.24,5.51,2a28.43,28.43,0,0,1,5.29,2.74,15.5,15.5,0,0,1,4.11,4,11.5,11.5,0,0,1,1.94,5.8,12.84,12.84,0,0,1-3.09,10,16.36,16.36,0,0,1-5.73,4.18,23.3,23.3,0,0,1-7.74,1.94,6.38,6.38,0,0,1-.93.08Z"/><path class="cls-7" d="M166.21,274.36h-.14a5,5,0,0,1-4.39-3.1l-16.92-42.84a4.84,4.84,0,0,1-.33-1.91,5.35,5.35,0,0,1,.4-1.83,4.88,4.88,0,0,1,1.08-1.59,4.78,4.78,0,0,1,5.36-1,5,5,0,0,1,2.63,2.7L166.57,257l15.05-32.48a4.92,4.92,0,0,1,9,.36,5,5,0,0,1-.11,3.75l-19.87,42.91a4.59,4.59,0,0,1-1.8,2.05A5,5,0,0,1,166.21,274.36Z"/><path class="cls-7" d="M219.06,274.36a24.09,24.09,0,0,1-9.68-2,24.52,24.52,0,0,1-8.17-5.8,26.11,26.11,0,0,1-5.4-8.49,27.48,27.48,0,0,1,0-20,25.07,25.07,0,0,1,5.4-8.46A24.36,24.36,0,0,1,219,221.8c.38,0,1.24,0,2.56.07a22.16,22.16,0,0,1,4.71.79,27.16,27.16,0,0,1,7.56,3.24,22.8,22.8,0,0,1,6,5.4,5,5,0,0,1,1.08,3.67,4.75,4.75,0,0,1-1.87,3.32,5,5,0,0,1-3.68,1.08,4.73,4.73,0,0,1-3.31-1.88,16.78,16.78,0,0,0-3.63-3.2,15.19,15.19,0,0,0-4.65-2,13.56,13.56,0,0,0-3.09-.54l-1.3,0h-.29A13.93,13.93,0,0,0,213.3,233a15,15,0,0,0-4.89,3.53,16.58,16.58,0,0,0-3.35,5.29,16.92,16.92,0,0,0-1.19,6.3,17.13,17.13,0,0,0,1.19,6.37,16.58,16.58,0,0,0,3.35,5.29,14.63,14.63,0,0,0,4.89,3.49,14.22,14.22,0,0,0,5.76,1.19,14.56,14.56,0,0,0,10.73-4.68,17.45,17.45,0,0,0,3.82-6.69H219.06a5,5,0,1,1,0-9.94h20.23a4.92,4.92,0,0,1,5,5,27,27,0,0,1-1.87,10,26.45,26.45,0,0,1-5.4,8.49,24.29,24.29,0,0,1-17.93,7.78Z"/></g></g></svg>