<svg xmlns="http://www.w3.org/2000/svg" viewBox="0 0 340 384"><defs><style>.cls-1{fill:#0b8eae;}.cls-2{fill:#f3f3f3;}.cls-3{fill:#e7e7e7;}.cls-4{fill:#cbcbcb;}.cls-5{fill:#dfdfdf;}.cls-6{fill:#2aaae0;}.cls-7{fill:#fff;}</style></defs><g id="Layer_2" data-name="Layer 2"><g id="Layer_1-2" data-name="Layer 1"><polygon class="cls-1" points="2 181 21 162 21 181 2 181"/><polygon class="cls-1" points="337 180 318 161 318 180 337 180"/><path class="cls-2" d="M315.54,384H23.46A3.46,3.46,0,0,1,20,380.54V3.46A3.46,3.46,0,0,1,23.46,0H237.53A3.45,3.45,0,0,1,240,1.06L318,82a3.5,3.5,0,0,1,1,2.41V380.54A3.46,3.46,0,0,1,315.54,384Z"/><path class="cls-3" d="M319,83V93H246.64A7.64,7.64,0,0,1,239,85.36V10l65,67.46Z"/><path class="cls-4" d="M239,75.36V0l80,83H246.64A7.64,7.64,0,0,1,239,75.36Z"/><rect class="cls-5" x="20" y="294" width="299" height="24"/><rect class="cls-6" y="179" width="340" height="130" rx="6.56"/><path class="cls-7" d="M140.28,222.68a4.75,4.75,0,0,1,1.4,3.49,4.78,4.78,0,0,1-4.9,4.82H126.27v38.24a4.78,4.78,0,0,1-4.82,4.82,4.79,4.79,0,0,1-3.46-1.4,4.61,4.61,0,0,1-1.44-3.42V231H106a4.78,4.78,0,0,1-4.82-4.82,4.71,4.71,0,0,1,1.4-3.49,4.66,4.66,0,0,1,3.42-1.41h30.74A4.74,4.74,0,0,1,140.28,222.68Z"/><path class="cls-7" d="M188.84,265.63a4.89,4.89,0,0,1,1.15,3.74,5.18,5.18,0,0,1-5,4.54,4.94,4.94,0,0,1-2.09-.47,5.21,5.21,0,0,1-1.8-1.41l-13.68-16.56L153.78,272a5.15,5.15,0,0,1-1.81,1.41,4.9,4.9,0,0,1-2.08.47,4.77,4.77,0,0,1-3.17-1.16,4.71,4.71,0,0,1-1.87-3.38,4.85,4.85,0,0,1,1.15-3.74l14.9-18.08L146,229.48a4.81,4.81,0,0,1-1.15-3.71,5,5,0,0,1,1.87-3.42,4.67,4.67,0,0,1,3.67-1.15,4.82,4.82,0,0,1,3.39,1.87l13.6,16.56,13.68-16.56a4.8,4.8,0,0,1,3.39-1.87,4.69,4.69,0,0,1,3.67,1.15,5,5,0,0,1,1.87,3.42,4.85,4.85,0,0,1-1.15,3.71l-14.91,18.07Z"/><path class="cls-7" d="M232.51,222.68a4.75,4.75,0,0,1,1.4,3.49A4.78,4.78,0,0,1,229,231H218.5v38.24a4.78,4.78,0,0,1-4.82,4.82,4.79,4.79,0,0,1-3.46-1.4,4.61,4.61,0,0,1-1.44-3.42V231H198.27a4.78,4.78,0,0,1-4.82-4.82,4.71,4.71,0,0,1,1.4-3.49,4.66,4.66,0,0,1,3.42-1.41H229A4.74,4.74,0,0,1,232.51,222.68Z"/></g></g></svg>