<svg xmlns="http://www.w3.org/2000/svg" viewBox="0 0 340 384"><defs><style>.cls-1{fill:#257c71;}.cls-2{fill:#f3f3f3;}.cls-3{fill:#e7e7e7;}.cls-4{fill:#cbcbcb;}.cls-5{fill:#dfdfdf;}.cls-6{fill:#00a89c;}.cls-7{fill:#fff;}</style></defs><g id="Layer_2" data-name="Layer 2"><g id="Layer_1-2" data-name="Layer 1"><polygon class="cls-1" points="2 181 21 162 21 181 2 181"/><polygon class="cls-1" points="337 180 318 161 318 180 337 180"/><path class="cls-2" d="M315.54,384H23.46A3.46,3.46,0,0,1,20,380.54V3.46A3.46,3.46,0,0,1,23.46,0H237.53A3.44,3.44,0,0,1,240,1.06L318,82a3.49,3.49,0,0,1,1,2.41V380.54A3.46,3.46,0,0,1,315.54,384Z"/><path class="cls-3" d="M319,83V93H246.64A7.64,7.64,0,0,1,239,85.36V10l65,67.46Z"/><path class="cls-4" d="M239,75.36V0l80,83H246.64A7.64,7.64,0,0,1,239,75.36Z"/><rect class="cls-5" x="20" y="294" width="299" height="24"/><rect class="cls-6" y="179" width="340" height="130" rx="6.56"/><path class="cls-7" d="M145.7,266a4.89,4.89,0,0,1,1.15,3.74,5.18,5.18,0,0,1-5,4.54,4.94,4.94,0,0,1-2.09-.47,5.21,5.21,0,0,1-1.8-1.41l-13.68-16.56-13.61,16.56a5.21,5.21,0,0,1-1.8,1.41,4.94,4.94,0,0,1-2.09.47,5.19,5.19,0,0,1-5-4.54,4.86,4.86,0,0,1,1.16-3.74l14.9-18.08-14.9-18.07a4.82,4.82,0,0,1-1.16-3.71,5,5,0,0,1,1.88-3.42,4.66,4.66,0,0,1,3.67-1.15,4.78,4.78,0,0,1,3.38,1.87L124.24,240l13.68-16.56a4.78,4.78,0,0,1,3.38-1.87,4.7,4.7,0,0,1,3.68,1.15,5,5,0,0,1,1.87,3.42,4.85,4.85,0,0,1-1.15,3.71l-14.91,18.07Z"/><path class="cls-7" d="M194.94,274.43H162.08a4.84,4.84,0,0,1-3.54-1.44,4.76,4.76,0,0,1-1.47-3.53V226.69a4.73,4.73,0,0,1,1.47-3.52,4.84,4.84,0,0,1,3.54-1.44,4.75,4.75,0,0,1,3.5,1.44A4.84,4.84,0,0,1,167,226.7v37.79h27.93a4.76,4.76,0,0,1,3.53,1.47,4.88,4.88,0,0,1,1.44,3.54,4.74,4.74,0,0,1-1.44,3.5A4.84,4.84,0,0,1,194.94,274.43Z"/><path class="cls-7" d="M226.26,274.29a27.27,27.27,0,0,1-5.83-.65,21,21,0,0,1-5.54-2.05,17.51,17.51,0,0,1-4.58-3.57,13.39,13.39,0,0,1-2.91-5.18,4.46,4.46,0,0,1,.29-3.67,4.83,4.83,0,0,1,6.62-2.09,4.6,4.6,0,0,1,2.38,2.88,4.72,4.72,0,0,0,1.51,2.19,8.91,8.91,0,0,0,2.59,1.48,14,14,0,0,0,3.24.79,15.35,15.35,0,0,0,3.38.07,12.94,12.94,0,0,0,4-.86,6.91,6.91,0,0,0,2.73-1.8A3.6,3.6,0,0,0,235,259c-.09-1.3-1.09-2.4-3-3.31a61.17,61.17,0,0,0-7.24-2.81l-1.44-.43c-1-.34-2.05-.73-3.28-1.19a30.21,30.21,0,0,1-3.7-1.69,23.1,23.1,0,0,1-3.57-2.38,12.41,12.41,0,0,1-2.84-3.27,12,12,0,0,1-1.55-4.32,14.32,14.32,0,0,1,.32-5.51,15.05,15.05,0,0,1,5.76-8.64,19,19,0,0,1,4.9-2.56,20,20,0,0,1,5.9-1.11,20.85,20.85,0,0,1,11.06,2.34,15.84,15.84,0,0,1,7.16,7.45,4.81,4.81,0,0,1-2.38,6.48,5,5,0,0,1-3.78.11,4.47,4.47,0,0,1-2.7-2.56,6.23,6.23,0,0,0-1.54-2,7.92,7.92,0,0,0-2.16-1.3,12.49,12.49,0,0,0-5.15-.82,12.07,12.07,0,0,0-2.34.36,9.74,9.74,0,0,0-2.27.86,7.05,7.05,0,0,0-1.91,1.48A5.45,5.45,0,0,0,218,238a2.71,2.71,0,0,0,.83,1.55,9,9,0,0,0,2.56,1.66,46.67,46.67,0,0,0,5,1.94l1.44.5c1.77.58,3.61,1.24,5.5,2a28.84,28.84,0,0,1,5.3,2.74,15.31,15.31,0,0,1,4.1,4,11.5,11.5,0,0,1,1.94,5.8,12.8,12.8,0,0,1-3.09,10,16.36,16.36,0,0,1-5.73,4.18,23.18,23.18,0,0,1-7.74,1.94,6.26,6.26,0,0,1-.93.08Z"/></g></g></svg>