<svg xmlns="http://www.w3.org/2000/svg" viewBox="0 0 340 384"><defs><style>.cls-1{fill:#d18830;}.cls-2{fill:#f3f3f3;}.cls-3{fill:#e7e7e7;}.cls-4{fill:#cbcbcb;}.cls-5{fill:#dfdfdf;}.cls-6{fill:#f9ae3d;}.cls-7{font-size:72px;fill:#fff;font-family:OutdoorCode, Outdoor Code;letter-spacing:-0.07em;}</style></defs><g id="Layer_2" data-name="Layer 2"><g id="Layer_1-2" data-name="Layer 1"><polygon class="cls-1" points="2 181 21 162 21 181 2 181"/><polygon class="cls-1" points="337 180 318 161 318 180 337 180"/><path class="cls-2" d="M315.54,384H23.46A3.46,3.46,0,0,1,20,380.54V3.46A3.46,3.46,0,0,1,23.46,0H237.53A3.44,3.44,0,0,1,240,1.06L318,82a3.49,3.49,0,0,1,1,2.41V380.54A3.46,3.46,0,0,1,315.54,384Z"/><path class="cls-3" d="M319,83V93H246.64A7.64,7.64,0,0,1,239,85.36V10l65,67.46Z"/><path class="cls-4" d="M239,75.36V0l80,83H246.64A7.64,7.64,0,0,1,239,75.36Z"/><rect class="cls-5" x="20" y="294" width="299" height="24"/><rect class="cls-6" y="179" width="340" height="130" rx="6.56"/><text class="cls-7" transform="translate(109.16 274.43)">zip</text></g></g></svg>