<svg width="14" height="13" viewBox="0 0 14 13" fill="none" xmlns="http://www.w3.org/2000/svg">
<path d="M13.0523 0.489059C13.184 0.620629 13.2885 0.77687 13.3598 0.948851C13.4311 1.12083 13.4678 1.30518 13.4678 1.49135C13.4678 1.67752 13.4311 1.86187 13.3598 2.03385C13.2885 2.20583 13.184 2.36207 13.0523 2.49364L8.82779 6.71672L12.6188 10.5063C12.8846 10.7721 13.034 11.1327 13.034 11.5086C13.034 11.8845 12.8846 12.2451 12.6188 12.5109C12.353 12.7767 11.9924 12.9261 11.6165 12.9261C11.2406 12.9261 10.88 12.7767 10.6142 12.5109L6.82463 8.71989L3.03504 12.5109C2.76922 12.7767 2.40869 12.9261 2.03275 12.9261C1.65682 12.9261 1.29629 12.7767 1.03046 12.5109C0.764638 12.2451 0.615299 11.8845 0.615299 11.5086C0.615299 11.1327 0.764638 10.7721 1.03046 10.5063L4.82146 6.71672L0.596962 2.49364C0.465339 2.36193 0.360948 2.20558 0.28975 2.03352C0.218552 1.86146 0.181941 1.67706 0.182007 1.49085C0.182073 1.30464 0.218814 1.12027 0.290134 0.948259C0.361454 0.77625 0.465954 0.619973 0.59767 0.48835C0.729386 0.356727 0.885737 0.252337 1.0578 0.181139C1.22986 0.109941 1.41425 0.0733291 1.60046 0.0733949C1.78667 0.0734606 1.97104 0.110203 2.14305 0.181523C2.31506 0.252842 2.47134 0.357343 2.60296 0.489059L6.82463 4.71497L11.0477 0.490475C11.1793 0.358759 11.3355 0.254267 11.5075 0.182974C11.6795 0.111681 11.8638 0.0749864 12.05 0.0749864C12.2362 0.0749864 12.4205 0.111681 12.5925 0.182974C12.7645 0.254267 12.9207 0.358759 13.0523 0.490475V0.489059Z" fill="#232056"/>
</svg>
