<svg width="19" height="14" viewBox="0 0 19 14" fill="none" xmlns="http://www.w3.org/2000/svg">
<path fill-rule="evenodd" clip-rule="evenodd" d="M3.84256 3.916C4.22124 5.07704 5.31274 5.916 6.6002 5.916C7.88765 5.916 8.97915 5.07704 9.35783 3.916C12.1053 3.916 14.8527 3.916 17.6002 3.916C18.0973 3.916 18.5002 3.51305 18.5002 3.016C18.5002 2.51894 18.0973 2.116 17.6002 2.116C14.8527 2.116 12.1053 2.116 9.35783 2.116C9.34811 2.08563 9.36112 2.12609 9.35783 2.116C8.97915 0.954957 7.88765 0.115997 6.6002 0.115997C5.31274 0.115997 4.22124 0.954957 3.84256 2.116C3.09511 2.116 2.34765 2.116 1.6002 2.116C1.10314 2.116 0.700195 2.51894 0.700195 3.016C0.700195 3.51305 1.10314 3.916 1.6002 3.916C2.34765 3.916 3.09511 3.916 3.84256 3.916ZM6.6002 1.916C5.99268 1.916 5.5002 2.40848 5.5002 3.016C5.5002 3.62351 5.99268 4.116 6.6002 4.116C7.20771 4.116 7.7002 3.62351 7.7002 3.016C7.7002 2.40848 7.20771 1.916 6.6002 1.916Z" fill="#606483"/>
<path fill-rule="evenodd" clip-rule="evenodd" d="M0.700195 11.016C0.700195 10.5189 1.10314 10.116 1.6002 10.116C4.34765 10.116 7.09511 10.116 9.84256 10.116C10.2212 8.95496 11.3127 8.116 12.6002 8.116C13.8876 8.116 14.9792 8.95496 15.3578 10.116C15.3578 10.116 17.0788 10.116 17.6002 10.116C18.0973 10.116 18.5002 10.5189 18.5002 11.016C18.5002 11.5131 18.0973 11.916 17.6002 11.916C17.378 11.916 15.3578 11.916 15.3578 11.916C14.9792 13.077 13.8877 13.916 12.6002 13.916C11.3127 13.916 10.2212 13.077 9.84256 11.916C7.09511 11.916 4.34765 11.916 1.6002 11.916C1.10314 11.916 0.700195 11.5131 0.700195 11.016ZM11.5002 11.016C11.5002 10.4085 11.9927 9.916 12.6002 9.916C13.2077 9.916 13.7002 10.4085 13.7002 11.016C13.7002 11.6235 13.2077 12.116 12.6002 12.116C11.9927 12.116 11.5002 11.6235 11.5002 11.016Z" fill="#606483"/>
</svg>
