<svg width="14" height="10" viewBox="0 0 14 10" fill="none" xmlns="http://www.w3.org/2000/svg">
<path d="M0.700012 1.08894C0.700012 0.515175 1.16514 0.0500488 1.7389 0.0500488H12.2611C12.8349 0.0500488 13.3 0.515175 13.3 1.08894C13.3 1.6627 12.8349 2.12783 12.2611 2.12783H1.7389C1.16514 2.12783 0.700012 1.6627 0.700012 1.08894Z" fill="white"/>
<path d="M0.700012 5.00005C0.700012 4.42629 1.16514 3.96116 1.7389 3.96116H12.2611C12.8349 3.96116 13.3 4.42629 13.3 5.00005C13.3 5.57381 12.8349 6.03894 12.2611 6.03894H1.7389C1.16514 6.03894 0.700012 5.57381 0.700012 5.00005Z" fill="white"/>
<path d="M0.700012 8.91116C0.700012 8.3374 1.16514 7.87227 1.7389 7.87227H12.2611C12.8349 7.87227 13.3 8.3374 13.3 8.91116C13.3 9.48492 12.8349 9.95005 12.2611 9.95005H1.7389C1.16514 9.95005 0.700012 9.48492 0.700012 8.91116Z" fill="white"/>
</svg>
