<svg width="22" height="22" viewBox="0 0 22 22" fill="none" xmlns="http://www.w3.org/2000/svg">
<path d="M4.06738 6.31953C4.06738 5.76034 4.52069 5.30703 5.07988 5.30703H15.967C16.5262 5.30703 16.9795 5.76034 16.9795 6.31953C16.9795 6.87871 16.5262 7.33203 15.967 7.33203H5.07988C4.52069 7.33203 4.06738 6.87871 4.06738 6.31953Z" fill="#5FB6E7"/>
<path d="M11.1104 16.1061C11.1104 15.7819 11.3732 15.5192 11.6973 15.5192H14.045C14.3691 15.5192 14.6319 15.7819 14.6319 16.1061C14.6319 16.4302 14.3691 16.693 14.045 16.693H11.6973C11.3732 16.693 11.1104 16.4302 11.1104 16.1061Z" fill="#5FB6E7"/>
<path d="M11.1104 13.7584C11.1104 13.4343 11.3732 13.1715 11.6973 13.1715H16.3926C16.7168 13.1715 16.9795 13.4343 16.9795 13.7584C16.9795 14.0826 16.7168 14.3453 16.3926 14.3453H11.6973C11.3732 14.3453 11.1104 14.0826 11.1104 13.7584Z" fill="#5FB6E7"/>
<path d="M11.1104 11.4107C11.1104 11.0866 11.3732 10.8238 11.6973 10.8238H16.3926C16.7168 10.8238 16.9795 11.0866 16.9795 11.4107C16.9795 11.7349 16.7168 11.9977 16.3926 11.9977H11.6973C11.3732 11.9977 11.1104 11.7349 11.1104 11.4107Z" fill="#5FB6E7"/>
<path d="M4.06738 16.1061C4.06738 15.7819 4.33015 15.5192 4.65429 15.5192H9.34962C9.67377 15.5192 9.93654 15.7819 9.93654 16.1061C9.93654 16.4302 9.67377 16.693 9.34962 16.693H4.65429C4.33015 16.693 4.06738 16.4302 4.06738 16.1061Z" fill="#5FB6E7"/>
<path d="M4.06738 13.7584C4.06738 13.4343 4.33015 13.1715 4.65429 13.1715H9.34962C9.67376 13.1715 9.93654 13.4343 9.93654 13.7584C9.93654 14.0826 9.67377 14.3453 9.34962 14.3453H4.65429C4.33015 14.3453 4.06738 14.0826 4.06738 13.7584Z" fill="#5FB6E7"/>
<path d="M4.06738 11.4107C4.06738 11.0866 4.33015 10.8238 4.65429 10.8238H9.34962C9.67376 10.8238 9.93654 11.0866 9.93654 11.4107C9.93654 11.7349 9.67377 11.9977 9.34962 11.9977H4.65429C4.33015 11.9977 4.06738 11.7349 4.06738 11.4107Z" fill="#5FB6E7"/>
<path d="M19.3272 3.95702V2.60936C19.3272 2.05707 18.8795 1.60936 18.3272 1.60936H2.71971C2.16742 1.60936 1.71971 2.05707 1.71971 2.60936V18.6299C1.71971 19.0969 1.90522 19.5448 2.23542 19.875C2.56562 20.2052 3.01348 20.3907 3.48046 20.3907H18.7403C19.2072 20.3907 19.6551 20.2052 19.9853 19.875C20.3155 19.5448 20.501 19.0969 20.501 18.6299V4.95702C20.501 4.40474 20.0533 3.95702 19.501 3.95702H19.3272ZM3.48046 19.2168C3.3248 19.2168 3.17551 19.155 3.06544 19.0449C2.95538 18.9349 2.89354 18.7856 2.89354 18.6299V2.78319H18.1534V17.4561C18.1534 19.2168 19.3272 19.2168 19.3272 19.2168H3.48046Z" fill="#5FB6E7"/>
</svg>
