<svg width="22" height="22" viewBox="0 0 22 22" fill="none" xmlns="http://www.w3.org/2000/svg">
<path fill-rule="evenodd" clip-rule="evenodd" d="M4.732 3.55622C4.20885 3.5434 3.69484 3.81468 3.42369 4.28162C3.23649 4.604 2.82339 4.71359 2.50101 4.52639C2.17863 4.33919 2.06904 3.92609 2.25624 3.60371C2.78552 2.69224 3.77058 2.18225 4.76507 2.20662C5.78813 2.23169 6.78349 2.81778 7.3257 3.99272C7.7758 4.96809 7.47309 5.99442 6.82903 6.71987C6.31263 7.30152 5.55489 7.72796 4.67529 7.87446V8.84167C4.67529 9.21447 4.37308 9.51667 4.00029 9.51667C3.62749 9.51667 3.32529 9.21447 3.32529 8.84167V7.2549C3.32529 6.88211 3.62749 6.5799 4.00029 6.5799C4.79358 6.5799 5.44117 6.24971 5.81949 5.82359C6.19819 5.39703 6.27311 4.93368 6.09992 4.55839C5.76743 3.8379 5.22659 3.56834 4.732 3.55622Z" fill="#5FB6E7"/>
<path d="M4.84461 11C4.84461 11.4895 4.4478 11.8863 3.95832 11.8863C3.46883 11.8863 3.07202 11.4895 3.07202 11C3.07202 10.5105 3.46883 10.1137 3.95832 10.1137C4.4478 10.1137 4.84461 10.5105 4.84461 11Z" fill="#5FB6E7"/>
<path fill-rule="evenodd" clip-rule="evenodd" d="M8.97961 7.68935C8.97961 7.31656 9.28182 7.01435 9.65461 7.01435H17.9436C18.3164 7.01435 18.6186 7.31656 18.6186 7.68935C18.6186 8.06214 18.3164 8.36435 17.9436 8.36435H9.65461C9.28182 8.36435 8.97961 8.06214 8.97961 7.68935Z" fill="#5FB6E7"/>
<path fill-rule="evenodd" clip-rule="evenodd" d="M8.97961 10.9661C8.97961 10.5933 9.28182 10.2911 9.65461 10.2911H17.9436C18.3164 10.2911 18.6186 10.5933 18.6186 10.9661C18.6186 11.3389 18.3164 11.6411 17.9436 11.6411H9.65461C9.28182 11.6411 8.97961 11.3389 8.97961 10.9661Z" fill="#5FB6E7"/>
<path fill-rule="evenodd" clip-rule="evenodd" d="M3.28531 14.4016C3.28531 14.0288 3.58752 13.7266 3.96031 13.7266L17.9436 13.7266C18.3164 13.7266 18.6186 14.0288 18.6186 14.4016C18.6186 14.7744 18.3164 15.0766 17.9436 15.0766L3.96031 15.0766C3.58752 15.0766 3.28531 14.7744 3.28531 14.4016Z" fill="#5FB6E7"/>
<path fill-rule="evenodd" clip-rule="evenodd" d="M3.28531 17.8057C3.28531 17.4329 3.58752 17.1307 3.96031 17.1307L17.9436 17.1307C18.3164 17.1307 18.6186 17.4329 18.6186 17.8057C18.6186 18.1784 18.3164 18.4807 17.9436 18.4807L3.96031 18.4807C3.58752 18.4807 3.28531 18.1784 3.28531 17.8057Z" fill="#5FB6E7"/>
</svg>
