<svg width="22" height="22" viewBox="0 0 22 22" fill="none" xmlns="http://www.w3.org/2000/svg">
<g clip-path="url(#clip0_52047_300600)">
<path fill-rule="evenodd" clip-rule="evenodd" d="M9.04755 7.66839C9.04755 7.2956 9.34975 6.99339 9.72255 6.99339H18.0115C18.3843 6.99339 18.6865 7.2956 18.6865 7.66839C18.6865 8.04119 18.3843 8.34339 18.0115 8.34339H9.72255C9.34975 8.34339 9.04755 8.04119 9.04755 7.66839Z" fill="#5FB6E7"/>
<path fill-rule="evenodd" clip-rule="evenodd" d="M1.81033 8.98729C1.81033 8.6145 1.96742 8.31229 2.16121 8.31229H6.46992C6.6637 8.31229 6.82079 8.6145 6.82079 8.98729C6.82079 9.36008 6.6637 9.66229 6.46992 9.66229H2.16121C1.96742 9.66229 1.81033 9.36008 1.81033 8.98729Z" fill="#5FB6E7"/>
<path fill-rule="evenodd" clip-rule="evenodd" d="M4.32835 3.07725C4.59873 3.07006 4.84729 3.22495 4.95996 3.47084L8.28098 10.7188C8.43626 11.0577 8.28741 11.4584 7.9485 11.6137C7.60959 11.7689 7.20896 11.6201 7.05368 11.2812L4.39207 5.47234L2.10884 11.2482C1.9718 11.5948 1.57965 11.7648 1.23296 11.6277C0.886277 11.4907 0.716331 11.0985 0.853379 10.7519L3.71857 3.50386C3.81801 3.25233 4.05798 3.08444 4.32835 3.07725Z" fill="#5FB6E7"/>
<path fill-rule="evenodd" clip-rule="evenodd" d="M9.04755 10.945C9.04755 10.5722 9.34975 10.27 9.72255 10.27H18.0115C18.3843 10.27 18.6865 10.5722 18.6865 10.945C18.6865 11.3178 18.3843 11.62 18.0115 11.62H9.72255C9.34975 11.62 9.04755 11.3178 9.04755 10.945Z" fill="#5FB6E7"/>
<path fill-rule="evenodd" clip-rule="evenodd" d="M3.35322 14.3807C3.35322 14.0079 3.65543 13.7057 4.02822 13.7057L18.0115 13.7057C18.3843 13.7057 18.6865 14.0079 18.6865 14.3807C18.6865 14.7535 18.3843 15.0557 18.0115 15.0557L4.02822 15.0557C3.65543 15.0557 3.35322 14.7535 3.35322 14.3807Z" fill="#5FB6E7"/>
<path fill-rule="evenodd" clip-rule="evenodd" d="M3.35322 17.7845C3.35322 17.4117 3.65543 17.1095 4.02822 17.1095L18.0115 17.1095C18.3843 17.1095 18.6865 17.4117 18.6865 17.7845C18.6865 18.1573 18.3843 18.4595 18.0115 18.4595L4.02822 18.4595C3.65543 18.4595 3.35322 18.1573 3.35322 17.7845Z" fill="#5FB6E7"/>
</g>
<defs>
<clipPath id="clip0_52047_300600">
<rect width="21.6" height="21.6" fill="white" transform="translate(0.310364 0.200012)"/>
</clipPath>
</defs>
</svg>
