<svg width="107" height="76" viewBox="0 0 107 76" fill="none" xmlns="http://www.w3.org/2000/svg">
<path d="M70.3134 2.56286C66.2686 2.2932 59.7118 2.78757 55.622 2.56286C51.4874 2.2932 47.4426 1.21459 43.3079 0.855055C39.1732 0.495518 35.9245 0.00129956 32.6887 2.563C37.2251 3.29351 38.4541 6.0234 41.3304 8.27051C36.7463 9.16935 31.9825 8.71993 27.3085 9.16935C22.6345 9.61877 14.7247 11.3432 12.0731 15.2082C16.6122 14.1745 24.9265 16.2783 27.3085 20.2782C23.3086 24.0983 15.0015 25.4802 9.47363 25.615C10.5972 30.4238 18.365 36.0448 22.994 37.7076C27.6231 39.3705 32.8813 41.3479 34.7239 45.932C32.8813 46.2466 28.9683 43.9929 27.3085 45.932C31.1286 48.8982 34.124 51.7711 37.2251 55.5013C40.3261 59.2315 45.4202 62.6056 49.6897 64.9426C53.9142 67.2346 59.3073 67.9986 63.5768 65.7515L94.452 24.18C91.1713 12.3153 82.4478 3.32687 70.3134 2.56286Z" fill="#EF1C31"/>
<path d="M99.3371 45.4091C103.142 28.8387 92.7939 12.3211 76.2234 8.51595C59.653 4.71084 43.1354 15.0592 39.3303 31.6296C35.5251 48.2 45.8735 64.7177 62.4439 68.5228C79.0143 72.3279 95.532 61.9796 99.3371 45.4091Z" fill="url(#paint0_angular_52047_300911)"/>
<path d="M13.5187 20.1913C12.3502 17.9539 8.84467 16.5244 6.86722 17.0838C5.78861 17.3324 4.79988 18.016 3.76621 18.5754C2.73254 19.0726 1.60899 19.3833 0.575317 18.8861C3.72127 22.8637 9.87834 23.3609 13.5187 20.1913Z" fill="#EF1C31"/>
<path d="M25.0947 43.3998C24.0181 44.799 21.4094 45.3645 20.0985 44.7444C19.3768 44.4451 18.7688 43.8573 18.1149 43.3496C17.4538 42.8847 16.7081 42.5373 15.93 42.7561C18.5879 40.3958 22.933 40.7871 25.0947 43.3998Z" fill="#EF1C31"/>
<path d="M93.806 37.5949H77.0116V36.2107C77.0116 29.3418 71.4231 23.7533 64.5542 23.7533C57.6853 23.7533 52.0968 29.3418 52.0968 36.2107V37.5949H46.5601V36.2107C46.5601 29.9009 49.0174 23.9685 53.4791 19.5067C57.9409 15.045 63.8733 12.5877 70.1831 12.5877C76.4929 12.5877 82.4253 15.045 86.8871 19.5067C91.3488 23.9685 93.806 29.9009 93.806 36.2107V37.5949Z" fill="#FFCBB4"/>
<path d="M86.8871 19.5067C82.4253 15.045 76.4929 12.5877 70.1831 12.5877C63.8733 12.5877 57.9409 15.045 53.4791 19.5067C53.1511 19.8344 52.8357 20.1714 52.5293 20.5146L57.7776 25.7628C59.7294 24.4926 62.0569 23.7533 64.5542 23.7533C70.2707 23.7533 75.0997 27.6242 76.5592 32.8826L93.7833 35.2014C93.5357 29.2704 91.1102 23.7298 86.8871 19.5067Z" fill="#FF5A50"/>
<path d="M77.0116 36.2107V37.5949H93.806V36.2107C93.806 29.9009 91.3488 23.9685 86.887 19.5067C82.4253 15.045 76.4929 12.5877 70.183 12.5877V25.0996C74.2313 27.1589 77.0116 31.3661 77.0116 36.2107Z" fill="#EF1C31"/>
<path d="M85.3268 19.4619L65.547 37.5086C64.8231 38.1689 64.797 39.2998 65.4899 39.9924L70.3204 44.8229C71.014 45.5168 72.1472 45.4896 72.8069 44.7631L90.8086 24.9423V19.4619H85.3268Z" fill="#E6F8FF"/>
<path d="M70.3202 44.8229C71.0141 45.5168 72.1473 45.4896 72.807 44.7631L90.8088 24.9423V19.4619L67.9031 42.4058L70.3202 44.8229Z" fill="#AECFD6"/>
<path d="M68.8169 46.6516C67.4401 46.6516 66.1455 46.1154 65.172 45.1419C63.1626 43.1322 63.1626 39.8621 65.172 37.8524C66.1455 36.8789 67.4401 36.3427 68.8169 36.3427C70.1934 36.3427 71.488 36.8789 72.4615 37.8524C74.4712 39.8621 74.4712 43.1319 72.4615 45.1419C71.488 46.1154 70.1934 46.6516 68.8169 46.6516Z" fill="#73B4D8"/>
<path d="M72.4615 37.8524L65.1721 45.1418C66.1455 46.1153 67.4401 46.6515 68.817 46.6515C70.1935 46.6515 71.4881 46.1153 72.4615 45.1418C74.4709 43.1321 74.4709 39.8621 72.4615 37.8524Z" fill="#4988BB"/>
<defs>
<radialGradient id="paint0_angular_52047_300911" cx="0" cy="0" r="1" gradientUnits="userSpaceOnUse" gradientTransform="translate(69.3628 43.1912) rotate(160.045) scale(42.3557 2.40677e+06)">
<stop stop-color="#F7F9FF"/>
<stop offset="1" stop-color="#C4CDDF"/>
</radialGradient>
</defs>
</svg>
