<svg width="16" height="16" viewBox="0 0 16 16" fill="none" xmlns="http://www.w3.org/2000/svg">
<path fill-rule="evenodd" clip-rule="evenodd" d="M8.2255 4.7214C7.82672 4.653 7.41659 4.72794 7.06777 4.93295C6.71894 5.13796 6.45393 5.4598 6.31966 5.84148C6.19748 6.18881 5.81687 6.37132 5.46955 6.24914C5.12222 6.12696 4.9397 5.74635 5.06188 5.39902C5.30064 4.72031 5.7719 4.14799 6.39219 3.78344C7.01248 3.41889 7.74178 3.28563 8.45091 3.40726C9.16004 3.5289 9.80324 3.89758 10.2666 4.448C10.7298 4.99825 10.9834 5.69464 10.9825 6.41388C10.9823 7.56093 10.1308 8.32976 9.49563 8.75322C9.15771 8.9785 8.82454 9.14461 8.57848 9.25397C8.4545 9.30907 8.35026 9.35082 8.27545 9.37932C8.23799 9.39359 8.20775 9.4046 8.18592 9.41236L8.15959 9.42158L8.1514 9.42438L8.1486 9.42532L8.14753 9.42568L8.14707 9.42583C8.14687 9.4259 8.14668 9.42596 7.9437 8.81706L8.14667 9.42597C7.79738 9.5424 7.41983 9.35362 7.3034 9.00433C7.1871 8.65543 7.37531 8.27835 7.72384 8.16145C7.72408 8.16137 7.72433 8.16129 7.72457 8.16121L7.7244 8.16127L7.72577 8.16079L7.73924 8.15607C7.75228 8.15144 7.77317 8.14385 7.80079 8.13333C7.85613 8.11225 7.93782 8.07962 8.03696 8.03556C8.23714 7.94659 8.49896 7.81521 8.75603 7.64382C9.31075 7.27401 9.64913 6.85297 9.64913 6.41357L9.64913 6.41257C9.64974 6.00797 9.50712 5.6162 9.24656 5.30667C8.98599 4.99713 8.62428 4.78981 8.2255 4.7214ZM10.9825 6.41388C10.9825 6.41411 10.9825 6.41433 10.9825 6.41456L10.3158 6.41357H10.9825C10.9825 6.41367 10.9825 6.41378 10.9825 6.41388Z" fill="#D8DEEB"/>
<path fill-rule="evenodd" clip-rule="evenodd" d="M7.33276 11.9668C7.33276 11.5986 7.63124 11.3002 7.99943 11.3002H8.00682C8.37501 11.3002 8.67349 11.5986 8.67349 11.9668C8.67349 12.335 8.37501 12.6335 8.00682 12.6335H7.99943C7.63124 12.6335 7.33276 12.335 7.33276 11.9668Z" fill="#D8DEEB"/>
<path fill-rule="evenodd" clip-rule="evenodd" d="M7.99998 1.26665C4.28127 1.26665 1.26665 4.28127 1.26665 7.99998C1.26665 11.7187 4.28127 14.7333 7.99998 14.7333C11.7187 14.7333 14.7333 11.7187 14.7333 7.99998C14.7333 4.28127 11.7187 1.26665 7.99998 1.26665ZM0.0666504 7.99998C0.0666504 3.61853 3.61853 0.0666504 7.99998 0.0666504C12.3814 0.0666504 15.9333 3.61853 15.9333 7.99998C15.9333 12.3814 12.3814 15.9333 7.99998 15.9333C3.61853 15.9333 0.0666504 12.3814 0.0666504 7.99998Z" fill="#D8DEEB"/>
</svg>
