<svg width="40" height="38" viewBox="0 0 40 38" fill="none" xmlns="http://www.w3.org/2000/svg">
<ellipse cx="20.1102" cy="18.9888" rx="19" ry="18.5" fill="#E7EEF6"/>
<path d="M26.6474 26.8162L21.5821 23.7759C21.2759 23.5871 21.1694 23.1826 21.3557 22.8725C21.3557 22.8725 21.5022 22.6164 21.6619 22.3467L20.4372 21.6119C19.6318 21.1468 19.2524 21.0591 18.5269 21.3423L17.7348 21.6524C17.2555 21.8411 16.7097 21.7939 16.2704 21.531L14.1537 20.2637L11.1451 25.414L13.8609 27.0386C14.0472 27.1465 14.207 27.2948 14.3335 27.4633L15.2454 28.6633C15.7512 29.2632 16.7963 30.0385 17.4619 30.4362L19.5519 31.6901C19.8914 31.8923 20.3174 31.8653 20.6236 31.6159L26.6474 26.8162Z" fill="#FFDDCE"/>
<path d="M27.6193 27.4021L25.4095 26.0741C25.3829 26.0606 25.3496 26.0674 25.3296 26.0943C25.3163 26.1146 25.3163 26.1348 25.3296 26.155C25.5226 26.4786 25.5226 26.8966 25.2963 27.2404C25.0101 27.6651 24.4377 27.7797 24.005 27.5167L23.6722 27.3213C23.6057 27.2808 23.5125 27.301 23.4725 27.3752C23.4526 27.4156 23.4459 27.4628 23.4659 27.5033C23.5724 27.7662 23.5524 28.1302 23.4259 28.4066C23.2462 28.8043 22.7869 29.0807 22.2944 28.7841L22.1546 28.6897C22.0548 28.6291 21.935 28.6425 21.8418 28.7167C21.7486 28.7167 21.702 28.7908 21.722 28.8785C21.7952 29.1414 21.7685 29.438 21.6155 29.6874C21.3292 30.1593 20.7036 30.3009 20.231 30.0178L19.8449 29.7818C19.7717 29.7346 19.6718 29.7548 19.6186 29.8223C19.5853 29.8627 19.572 29.9166 19.5853 29.9706C19.6519 30.22 19.6186 30.4964 19.4788 30.7391C19.3191 31.0155 19.0528 31.184 18.7599 31.2244L20.9299 32.5255C21.3825 32.7951 21.9749 32.6738 22.2611 32.2221C22.5606 31.7502 22.4075 31.1301 21.9416 30.8469L23.0133 31.4873C23.4659 31.757 24.0583 31.6356 24.3445 31.184C24.644 30.7121 24.4909 30.0919 24.025 29.8088L24.7505 30.247C25.2098 30.5233 25.8089 30.3683 26.0818 29.9031C26.3547 29.438 26.2016 28.8313 25.7423 28.5549L26.6143 29.074C27.0669 29.3436 27.6593 29.2223 27.9455 28.7706C28.2384 28.3055 28.0919 27.6853 27.6193 27.4021Z" fill="#FFCBBE"/>
<path d="M27.0934 20.5737L25.4626 21.531C25.0166 21.8006 24.4775 21.8411 23.9916 21.6523L23.0996 21.295C22.8201 21.1804 22.5139 21.167 22.221 21.2411L20.8499 21.5917C20.2109 21.7534 19.7649 22.3332 19.7649 23.0006V24.8544C19.7649 25.1173 19.9712 25.3263 20.2308 25.3263C21.0096 25.3263 21.6419 24.6859 21.6419 23.8972V23.8163L27.4994 27.3285C27.6059 27.2138 27.7324 27.1127 27.8721 27.0251L30.0953 25.7106L27.0934 20.5737Z" fill="#EDB698"/>
<path d="M15.0454 28.1309L14.4929 28.9062C14.1801 29.3443 13.5743 29.4455 13.1417 29.1286C12.709 28.8118 12.6092 28.1983 12.922 27.7601L13.4745 26.9849C13.7873 26.5467 14.3931 26.4456 14.8257 26.7624C15.2584 27.0725 15.3582 27.686 15.0454 28.1309Z" fill="#EDB698"/>
<path d="M17.2288 28.42L16.0707 30.0514C15.7578 30.4895 15.1521 30.5906 14.7195 30.2738C14.2868 29.957 14.187 29.3435 14.4998 28.9053L15.658 27.274C15.9708 26.8358 16.5765 26.7347 17.0092 27.0515C17.4418 27.3616 17.5417 27.9751 17.2288 28.42Z" fill="#EDB698"/>
<path d="M18.7998 29.566L17.6416 31.1973C17.3287 31.6355 16.723 31.7366 16.2904 31.4198C15.8577 31.103 15.7579 30.4895 16.0707 30.0513L17.2289 28.42C17.5417 27.9818 18.1474 27.8807 18.5801 28.1975C19.0128 28.5076 19.1126 29.121 18.7998 29.566Z" fill="#EDB698"/>
<path d="M19.8646 31.4336L19.4786 31.9729C19.1657 32.4111 18.56 32.5122 18.1273 32.1954C17.6947 31.8786 17.5949 31.2651 17.9077 30.8269L18.2938 30.2876C18.6066 29.8495 19.2123 29.7483 19.645 30.0652C20.0776 30.382 20.1775 30.9955 19.8646 31.4336Z" fill="#EDB698"/>
<path d="M28.531 25.9193C29.6825 25.225 30.388 23.9643 30.388 22.6094V17.9849L30.1085 17.5332L25.8152 20.1286C25.4292 20.3645 25.296 20.8701 25.529 21.2678L28.3246 26.0474L28.531 25.9193Z" fill="#C4CDDF"/>
<path d="M29.2234 27.0522C29.3365 27.0724 29.4497 27.0724 29.5629 27.0522C29.4564 27.059 29.3432 27.059 29.2234 27.0522Z" fill="#6B475A"/>
<path d="M30.1085 17.5401V22.6163C30.1085 23.9713 29.403 25.2319 28.2515 25.9262L28.6841 26.6678C28.9171 27.0655 29.423 27.1936 29.809 26.9577L38.4475 22.5488C38.7936 22.3399 39 21.9691 39 21.5646V13.2338C39 12.89 38.6339 12.681 38.341 12.8563L30.1085 17.5401Z" fill="#B6C2DA"/>
<path d="M0.658963 13.6546L15.4316 20.1288C15.8177 20.3648 15.9441 20.8704 15.7178 21.2681L12.5628 26.6678C12.3298 27.0656 11.8239 27.1936 11.4379 26.9577L0.552464 23.606C0.206342 23.3971 0 23.0263 0 22.6218V14.0321C0 13.6883 0.366091 13.4793 0.658963 13.6546Z" fill="#FFA438"/>
<path d="M20.9769 8.83605C20.7524 8.83605 20.57 8.65134 20.57 8.424V7.02443C20.57 6.72604 20.3315 6.49159 20.0439 6.49159H17.8974C17.6028 6.49159 17.3713 6.73314 17.3713 7.02443V8.424C17.3713 8.65134 17.1889 8.83605 16.9644 8.83605C16.7399 8.83605 16.5576 8.65134 16.5576 8.424V7.02443C16.5576 6.27846 17.1608 5.66748 17.8974 5.66748H20.0439C20.7805 5.66748 21.3837 6.27846 21.3837 7.02443V8.424C21.3837 8.65134 21.2014 8.83605 20.9769 8.83605Z" fill="#E8B974"/>
<path d="M15.2318 11.3576C14.1094 11.3576 13.1975 10.4341 13.1975 9.29736V14.8246C13.1975 15.4498 13.7026 15.9613 14.3199 15.9613H20.514C21.1313 15.9613 21.6363 15.4498 21.6363 14.8246V11.3576H15.2318Z" fill="#F09562"/>
<path d="M22.7097 11.3576H21.3207V14.8246C21.3207 15.4498 20.8157 15.9613 20.1984 15.9613H23.6216C24.2389 15.9613 24.744 15.4498 24.744 14.8246V9.29736C24.744 10.4341 23.832 11.3576 22.7097 11.3576Z" fill="#DB8A5D"/>
<path d="M20.514 8.08984H14.3199C13.7026 8.08984 13.1975 8.60136 13.1975 9.22655V9.70965C13.1975 10.8464 14.1094 11.7699 15.2318 11.7699H21.6363V9.21945C21.6363 8.59426 21.1313 8.08984 20.514 8.08984Z" fill="#E1814C"/>
<path d="M21.3207 9.21923V11.7626H22.7097C23.832 11.7626 24.744 10.839 24.744 9.70233V9.21923C24.744 8.59404 24.2389 8.08252 23.6216 8.08252H20.1984C20.8157 8.08962 21.3207 8.59404 21.3207 9.21923Z" fill="#CB7545"/>
<path d="M15.9543 13.0412C15.7299 13.0412 15.5475 12.8565 15.5475 12.6292V10.9028C15.5475 10.6754 15.7299 10.4907 15.9543 10.4907C16.1788 10.4907 16.3612 10.6754 16.3612 10.9028V12.6292C16.3612 12.8565 16.1788 13.0412 15.9543 13.0412Z" fill="#FFD79D"/>
<path d="M21.987 13.0412C21.7625 13.0412 21.5801 12.8565 21.5801 12.6292V10.9028C21.5801 10.6754 21.7625 10.4907 21.987 10.4907C22.2115 10.4907 22.3939 10.6754 22.3939 10.9028V12.6292C22.3939 12.8565 22.2115 13.0412 21.987 13.0412Z" fill="#FFD79D"/>
</svg>
