<svg width="38" height="39" viewBox="0 0 38 39" fill="none" xmlns="http://www.w3.org/2000/svg">
<ellipse cx="19" cy="19.3567" rx="19" ry="18.9128" fill="#E7EEF6"/>
<path d="M7.43329 35.9999H22.2385C23.0128 35.9999 23.6406 35.3815 23.6406 34.6188V7.38114C23.6406 6.61831 23.0128 6 22.2385 6H3.40214C2.62777 6 1.99999 6.61838 1.99999 7.38114V30.648L7.43329 35.9999Z" fill="white"/>
<path d="M7.43329 35.9998V32.0291C7.43329 31.2663 6.80551 30.6479 6.03114 30.6479H2.00004L7.43329 35.9998Z" fill="#D8DEEB"/>
<path d="M23.6408 9.7451H2.00024V7.38114C2.00024 6.61831 2.62803 6 3.40239 6H22.2387C23.0131 6 23.6409 6.61838 23.6409 7.38114V9.7451H23.6408Z" fill="#FFA04F"/>
<path d="M4.38791 8.35087C5.012 8.35087 5.01304 7.39551 4.38791 7.39551C3.76387 7.39551 3.76284 8.35087 4.38791 8.35087Z" fill="white"/>
<path d="M6.05098 8.35087C6.67508 8.35087 6.67611 7.39551 6.05098 7.39551C5.42688 7.39551 5.42585 8.35087 6.05098 8.35087Z" fill="white"/>
<path d="M7.71407 8.35087C8.33816 8.35087 8.3392 7.39551 7.71407 7.39551C7.08997 7.39551 7.08893 8.35087 7.71407 8.35087Z" fill="white"/>
<path d="M7.01303 13.0423H19.1572C19.4251 13.0423 19.6421 12.8284 19.6421 12.5646C19.6421 12.3008 19.4251 12.0869 19.1572 12.0869H7.01303C6.7452 12.0869 6.52808 12.3008 6.52808 12.5646C6.52808 12.8284 6.7452 13.0423 7.01303 13.0423Z" fill="#D8DEEB"/>
<path d="M4.83748 12.0869C4.21338 12.0869 4.21235 13.0423 4.83748 13.0423C5.46158 13.0423 5.46261 12.0869 4.83748 12.0869Z" fill="#D8DEEB"/>
<path d="M19.1572 15.5278H7.01303C6.7452 15.5278 6.52808 15.7417 6.52808 16.0055C6.52808 16.2693 6.7452 16.4832 7.01303 16.4832H19.1572C19.4251 16.4832 19.6421 16.2693 19.6421 16.0055C19.6421 15.7417 19.4251 15.5278 19.1572 15.5278Z" fill="#D8DEEB"/>
<path d="M4.83748 15.5278C4.21338 15.5278 4.21235 16.4832 4.83748 16.4832C5.46158 16.4832 5.46261 15.5278 4.83748 15.5278Z" fill="#D8DEEB"/>
<path d="M19.1572 18.9692H7.01303C6.7452 18.9692 6.52808 19.1831 6.52808 19.4469C6.52808 19.7107 6.7452 19.9246 7.01303 19.9246H19.1572C19.4251 19.9246 19.6421 19.7107 19.6421 19.4469C19.6421 19.1831 19.4251 18.9692 19.1572 18.9692Z" fill="#D8DEEB"/>
<path d="M4.83748 18.9692C4.21338 18.9692 4.21235 19.9246 4.83748 19.9246C5.46158 19.9246 5.46261 18.9692 4.83748 18.9692Z" fill="#D8DEEB"/>
<path d="M19.1572 22.4097H7.01303C6.7452 22.4097 6.52808 22.6235 6.52808 22.8874C6.52808 23.1512 6.7452 23.365 7.01303 23.365H19.1572C19.4251 23.365 19.6421 23.1512 19.6421 22.8874C19.6421 22.6235 19.4251 22.4097 19.1572 22.4097Z" fill="#D8DEEB"/>
<path d="M4.83748 22.4097C4.21338 22.4097 4.21235 23.365 4.83748 23.365C5.46158 23.365 5.46261 22.4097 4.83748 22.4097Z" fill="#D8DEEB"/>
<path d="M19.0352 25.8511H6.89102C6.62319 25.8511 6.40607 26.0649 6.40607 26.3288C6.40607 26.5926 6.62319 26.8064 6.89102 26.8064H19.0352C19.3031 26.8064 19.5201 26.5926 19.5201 26.3288C19.5201 26.0649 19.3031 25.8511 19.0352 25.8511Z" fill="#D8DEEB"/>
<path d="M4.71578 25.8511C4.09168 25.8511 4.09064 26.8064 4.71578 26.8064C5.33987 26.8064 5.34091 25.8511 4.71578 25.8511Z" fill="#D8DEEB"/>
<path d="M28.1188 21.5352C31.1736 21.5352 33.6499 19.0959 33.6499 16.0869C33.6499 13.0779 31.1736 10.6387 28.1188 10.6387C25.064 10.6387 22.5876 13.0779 22.5876 16.0869C22.5876 19.0959 25.064 21.5352 28.1188 21.5352Z" fill="#C4CDDF"/>
<path d="M28.1189 10.6387C27.6734 10.6387 27.2407 10.692 26.8257 10.7899C29.2563 11.3637 31.0636 13.5168 31.0636 16.087C31.0636 18.6572 29.2563 20.8103 26.8257 21.384C27.2407 21.482 27.6734 21.5353 28.1189 21.5353C31.1736 21.5353 33.65 19.096 33.65 16.087C33.65 13.078 31.1736 10.6387 28.1189 10.6387Z" fill="#B6C2DA"/>
<path d="M30.3442 19.0764C30.209 19.0764 30.0746 19.021 29.9787 18.9128L27.7531 16.4015C27.676 16.3145 27.6335 16.2028 27.6335 16.0873V13.8966C27.6335 13.6328 27.8505 13.4189 28.1184 13.4189C28.3863 13.4189 28.6034 13.6328 28.6034 13.8966V15.9082L30.7094 18.2846C30.8855 18.4833 30.8647 18.785 30.6629 18.9585C30.571 19.0376 30.4574 19.0764 30.3442 19.0764Z" fill="white"/>
<path d="M30.7507 7.78092C29.9192 7.53068 29.0532 7.40381 28.177 7.40381C27.9091 7.40381 27.692 7.61768 27.692 7.88149C27.692 8.1453 27.9091 8.35918 28.177 8.35918C28.957 8.35918 29.7276 8.47204 30.4673 8.69464C30.5145 8.70884 30.5622 8.71559 30.6091 8.71559C30.8168 8.71559 31.0089 8.58311 31.0728 8.37733C31.151 8.12505 31.0068 7.85799 30.7507 7.78092Z" fill="#EF8B35"/>
<path d="M34.9417 22.0226L34.6312 22.0155C36.1487 20.4148 37 18.3138 37 16.0944C37 14.5893 36.6013 13.105 35.8471 11.8021C35.1161 10.5394 34.0663 9.46708 32.8111 8.70107C32.5834 8.56216 32.2845 8.63127 32.1434 8.85552C32.0024 9.07978 32.0726 9.37422 32.3003 9.5132C34.6358 10.9385 36.0301 13.3987 36.0301 16.0944C36.0301 18.0583 35.2809 19.918 33.9443 21.34L33.9509 21.0607C33.9571 20.7969 33.7449 20.5782 33.4772 20.5721C33.2119 20.5662 32.9874 20.7749 32.9812 21.0386L32.9481 22.4551C32.9481 22.4564 32.9482 22.4576 32.9482 22.4588C32.948 22.4689 32.9485 22.4789 32.949 22.489C32.9493 22.4948 32.9493 22.5006 32.9497 22.5063C32.9506 22.516 32.9521 22.5256 32.9536 22.5353C32.9545 22.5412 32.955 22.5473 32.9561 22.5531C32.9577 22.5619 32.9601 22.5705 32.9622 22.5792C32.9638 22.5857 32.9651 22.5923 32.9669 22.5987C32.9692 22.6064 32.9721 22.6138 32.9748 22.6213C32.9773 22.6285 32.9795 22.6358 32.9823 22.6429C32.9849 22.6494 32.9882 22.6556 32.9911 22.662C32.9947 22.6698 32.9981 22.6778 33.0021 22.6854C33.005 22.6908 33.0084 22.696 33.0114 22.7014C33.0163 22.7097 33.0209 22.7182 33.0262 22.7262C33.0295 22.7311 33.0331 22.7358 33.0366 22.7406C33.0424 22.7487 33.0482 22.7569 33.0546 22.7647C33.0553 22.7657 33.056 22.7667 33.0568 22.7678C33.0594 22.7709 33.0624 22.7736 33.065 22.7766C33.0728 22.7855 33.0807 22.7943 33.0891 22.8026C33.0941 22.8076 33.0992 22.8122 33.1044 22.8169C33.1117 22.8236 33.1191 22.83 33.1268 22.8362C33.1327 22.8409 33.1385 22.8455 33.1446 22.8499C33.1523 22.8555 33.1603 22.8608 33.1684 22.866C33.1745 22.8699 33.1804 22.8739 33.1867 22.8775C33.1961 22.883 33.2059 22.8879 33.2158 22.8929C33.2208 22.8953 33.2257 22.8981 33.2308 22.9004C33.2613 22.9142 33.2937 22.925 33.3273 22.9323C33.3306 22.9331 33.3341 22.9334 33.3375 22.9341C33.3506 22.9367 33.3637 22.939 33.3771 22.9405C33.3835 22.9412 33.3899 22.9414 33.3963 22.9419C33.4048 22.9425 33.4132 22.9436 33.4218 22.9437L34.9195 22.9778C34.9233 22.9778 34.927 22.9779 34.9309 22.9779C35.1935 22.9779 35.4094 22.7712 35.4155 22.5112C35.4216 22.2473 35.2095 22.0286 34.9417 22.0226Z" fill="#EF8B35"/>
<path d="M34.4323 31.2237H17.0899L13.98 29.5367L17.0899 27.8496H34.4323C35.3782 27.8496 36.145 28.6049 36.145 29.5367C36.145 30.4684 35.3782 31.2237 34.4323 31.2237Z" fill="#FFA438"/>
<path d="M32.9835 31.2237V27.8496H34.4325C35.3784 27.8496 36.1452 28.6049 36.1452 29.5367C36.1452 30.4684 35.3784 31.2237 34.4325 31.2237H32.9835Z" fill="#F78217"/>
<path d="M17.0963 31.2237V27.8496L13.98 29.5367L17.0963 31.2237Z" fill="#FFBF83"/>
</svg>
