<svg width="38" height="39" viewBox="0 0 38 39" fill="none" xmlns="http://www.w3.org/2000/svg">
<circle cx="19" cy="19.9082" r="19" fill="#E7EEF6"/>
<path d="M31.7295 27.4041V11.7905C31.7295 11.0955 31.1654 10.5269 30.4761 10.5269H10.4615C9.77214 10.5269 9.20813 11.0955 9.20813 11.7905V27.412H31.7295V27.4041Z" fill="#7991BE"/>
<path d="M33.8834 10.5269H30.0529C30.7422 10.5269 31.3062 11.0955 31.3062 11.7905V27.412H35.1368V11.7905C35.1368 11.0876 34.5806 10.5269 33.8834 10.5269Z" fill="#606483"/>
<path d="M31.7289 12.9678H12.4585C11.9963 12.9678 11.6281 13.339 11.6281 13.8049V26.6386H31.7289V12.9678Z" fill="white"/>
<path d="M32.7164 26.6307V13.8049C32.7164 13.339 32.3404 12.9678 31.886 12.9678H31.3063V26.6386H32.7164V26.6307Z" fill="#F3F6F8"/>
<path d="M33.6015 28.1151V26.6304H7.89191C7.47673 26.6304 7.13989 26.97 7.13989 27.3885C7.13989 28.8891 8.34625 30.1053 9.83462 30.1053H31.6274C32.7163 30.1132 33.6015 29.2208 33.6015 28.1151Z" fill="#7991BE"/>
<path d="M36.4529 26.6304H33.3743V28.1151C33.3743 29.2129 32.4891 30.1053 31.4003 30.1053H34.5102C35.9985 30.1053 37.2049 28.8891 37.2049 27.3885C37.2049 26.97 36.868 26.6304 36.4529 26.6304Z" fill="#606483"/>
<path d="M17.5899 26.6304C17.5899 27.5939 18.3654 28.3679 19.3133 28.3679H25.0239C25.9796 28.3679 26.7473 27.586 26.7473 26.6304H17.5899Z" fill="#606483"/>
<path d="M24.3839 13.8677H22.7013C21.8678 13.8677 21.1901 14.5454 21.1901 15.3789V16.8355L21.4939 17.0536H24.5163V14.0936L24.3839 13.8677Z" fill="#F9CC5D"/>
<path d="M27.6943 21.735L25.5366 21.104H22.1637L20.006 21.735C19.2348 21.9609 18.7051 22.6697 18.7051 23.4798V26.5489H29.003V23.4798C28.9952 22.6697 28.4655 21.9609 27.6943 21.735Z" fill="#E7EEF6"/>
<path d="M27.6944 21.735L25.5366 21.104H23.8619L23.8775 21.9609L25.5678 22.4828C26.339 22.7087 26.8687 23.4175 26.8687 24.2276V26.5567H28.9952V23.4876C28.9952 22.6697 28.4655 21.9609 27.6944 21.735Z" fill="#D8DEEB"/>
<path d="M24.181 23.1841H23.5266L22.9346 26.5336V26.5414H24.773L24.181 23.1841Z" fill="#606483"/>
<path d="M25.0385 21.2444V19.3438H22.6705V21.2444C22.6705 21.8987 23.8545 21.9533 23.8545 21.9533C23.8545 21.9533 25.0385 21.8987 25.0385 21.2444Z" fill="#FFDDCE"/>
<path d="M27.5386 26.5416V25.49C27.5386 25.3498 27.4295 25.2407 27.2893 25.2407C27.1491 25.2407 27.04 25.3498 27.04 25.49V26.5416H27.5386Z" fill="#B9CBEA"/>
<path d="M25.8561 14.7479H25.8327C25.7081 14.7479 25.6146 14.6467 25.6146 14.5298C25.6146 14.1715 25.3186 13.8755 24.9603 13.8755H24.3839V17.0614H26.2066L26.5104 16.8433V15.41C26.5104 15.0439 26.2144 14.7479 25.8561 14.7479Z" fill="#F7BD3C"/>
<path d="M22.2026 20.9717L21.8677 21.1197C21.6729 21.2054 21.6262 21.4624 21.7742 21.6104L22.7089 22.5452C22.8258 22.662 23.0127 22.6698 23.1374 22.5608L23.8696 21.9454L22.6233 21.0106C22.5064 20.9327 22.3428 20.9094 22.2026 20.9717Z" fill="#B9CBEA"/>
<path d="M25.0689 21.0263L23.8693 21.9533L24.5548 22.5453C24.6794 22.6543 24.8664 22.6466 24.991 22.5297L25.9258 21.6183C26.0816 21.4703 26.0348 21.2133 25.8401 21.1276L25.4973 20.9718C25.3571 20.9095 25.1936 20.9328 25.0689 21.0263Z" fill="#B9CBEA"/>
<path d="M23.8772 21.9531L23.1528 22.5529L23.5189 23.1839H24.1732L24.5393 22.5218L23.8772 21.9531Z" fill="#606483"/>
<path d="M20.6684 26.5416V25.49C20.6684 25.3498 20.5593 25.2407 20.4191 25.2407C20.2789 25.2407 20.1699 25.3498 20.1699 25.49V26.5416H20.6684Z" fill="#B9CBEA"/>
<path d="M24.5163 18.1596V15.7916C23.9243 15.9006 23.3089 15.8617 22.7325 15.6748C22.4209 15.5735 22.1015 15.8072 22.1015 16.1343V16.3836C22.1015 16.6329 21.899 16.8432 21.6419 16.8432H21.1901V17.591C21.1901 17.7779 21.3459 17.9337 21.5329 17.9337C21.5952 17.9337 21.6419 17.9805 21.6419 18.0428C21.7042 19.0554 22.452 19.8811 23.4257 20.0681C24.0723 19.663 24.5007 18.962 24.5163 18.1596Z" fill="#FFDDCE"/>
<path d="M26.0583 16.8354C25.809 16.8354 25.5987 16.6328 25.5987 16.3758V16.1265C25.5987 15.7994 25.2793 15.5657 24.9677 15.6669C24.773 15.7293 24.5783 15.776 24.3835 15.8072V18.1207C24.3679 18.9308 23.9161 19.6396 23.254 20.0135C23.441 20.0681 23.6435 20.0914 23.846 20.0914C25.0145 20.0914 25.9726 19.18 26.0505 18.0272C26.0505 17.9649 26.105 17.9181 26.1595 17.9181C26.3465 17.9181 26.5023 17.7623 26.5023 17.5754V16.8354H26.0583Z" fill="#FFCBBE"/>
<path d="M23.6214 8.85205H22.6266V10.5185H23.6214V8.85205Z" fill="#606483"/>
<path d="M25.337 7.84148C25.337 9.07351 24.3421 10.0765 23.1201 10.0765C21.8981 10.0765 20.9032 9.07351 20.9032 7.84148C20.9032 6.60945 21.8981 5.60645 23.1201 5.60645C24.3499 5.60645 25.337 6.60155 25.337 7.84148Z" fill="#B6C2DA"/>
<path d="M24.1542 7.84083C24.1542 8.41735 23.6921 8.88331 23.1202 8.88331C22.5484 8.88331 22.0862 8.41735 22.0862 7.84083C22.0862 7.2643 22.5484 6.79834 23.1202 6.79834C23.6921 6.79834 24.1542 7.2643 24.1542 7.84083Z" fill="#606483"/>
<path d="M23.6136 7.84179C23.6136 8.11821 23.3943 8.33934 23.1201 8.33934C22.8459 8.33934 22.6266 8.11821 22.6266 7.84179C22.6266 7.56537 22.8459 7.34424 23.1201 7.34424C23.3943 7.34424 23.6136 7.56537 23.6136 7.84179Z" fill="#1E1D2E"/>
<path opacity="0.7" d="M23.6755 7.46171C23.6755 7.56425 23.5974 7.64314 23.4957 7.64314C23.3941 7.64314 23.316 7.56425 23.316 7.46171C23.316 7.35916 23.3941 7.28027 23.4957 7.28027C23.5974 7.28027 23.6755 7.35916 23.6755 7.46171Z" fill="white"/>
<path opacity="0.1" d="M25.3369 7.84099C25.3369 6.60896 24.342 5.60596 23.12 5.60596V10.076C24.3499 10.076 25.3369 9.07302 25.3369 7.84099Z" fill="#D8DEEB"/>
<path d="M12.4162 6.70801H8.82354C7.28783 6.70801 6.04095 7.95489 6.04095 9.49059V12.1746L8.37973 16.5562L12.7192 17.1057V7.48995L12.4162 6.70801Z" fill="#CB7B4F"/>
<path d="M14.65 8.32825H14.6077C14.3823 8.32825 14.1992 8.14509 14.1992 7.91966C14.1992 7.25044 13.6567 6.70801 12.9875 6.70801H12.4099V17.0494L14.1569 16.2815L15.8476 12.1745V9.53286C15.8546 8.86363 15.3122 8.32825 14.65 8.32825Z" fill="#B65D37"/>
<path d="M18.6221 24.9318C18.6221 23.6145 17.7697 22.4522 16.5158 22.0577L13.121 20.3811L11.8249 19.8739L10.9513 19.8457L6.90074 19.9866L3.19532 21.163C1.93436 21.5575 1.08197 22.7269 1.08197 24.0372V34.217C1.08197 34.8299 1.57509 35.323 2.18796 35.323H18.6221V24.9318Z" fill="#FFA04F"/>
<path d="M18.7072 21.1634L15.0018 19.987L11.557 19.8672L10.127 19.5854L16.0849 22.2765C17.3388 22.6709 18.1912 23.8403 18.1912 25.1506V35.3458H19.7075C20.3204 35.3458 20.8135 34.8526 20.8135 34.2398V24.0376C20.8135 22.7273 19.9611 21.5579 18.7072 21.1634Z" fill="#EF8B35"/>
<path d="M13.2195 19.768V16.9009H8.67584V19.768L10.9442 19.8455L13.2195 19.768Z" fill="#FFCBBE"/>
<path d="M13.797 16.0986C12.9728 16.0986 9.02078 16.2818 8.68969 16.0352H8.71787C8.14022 15.845 6.87925 12.1748 6.87925 12.1748H6.04095V13.5485C6.04095 13.9007 6.32274 14.1825 6.67496 14.1825C6.78767 14.1825 6.87925 14.267 6.8863 14.3797C6.99901 16.2043 8.31633 17.7047 10.0493 18.0922C11.592 17.4934 13.797 16.0986 13.797 16.0986Z" fill="#FFCBBE"/>
<path d="M15.023 12.1748C15.023 12.1748 14.2552 16.007 13.3817 16.1268C13.1633 16.155 11.6417 16.2324 11.4444 16.2818C11.4444 16.2818 11.2401 17.4511 9.64807 17.9865C10.0567 18.1274 10.4934 18.1979 10.9513 18.1979C13.114 18.1979 14.8821 16.5142 15.016 14.3868C15.023 14.2741 15.1146 14.1895 15.2273 14.1895C15.5796 14.1895 15.8613 13.9078 15.8613 13.5555V12.1748H15.023Z" fill="#FFCBBE"/>
<path d="M10.944 21.516L9.73234 22.5586C9.43647 22.8193 8.97857 22.77 8.73906 22.453L6.88635 19.9803L7.55558 19.3956C7.87963 19.1139 8.37274 19.1209 8.68975 19.4168L10.944 21.516Z" fill="#FFA04F"/>
<path d="M11.0357 18.2827L10.8948 19.6846C10.9089 20.0791 11.4514 20.382 11.8458 20.3397L14.9172 20.0157L14.8891 19.1281C14.875 18.6913 14.5368 18.3391 14.1071 18.3109L11.0357 18.2827Z" fill="#EF8B35"/>
<path d="M7.97131 18.3031C7.5416 18.3383 7.19642 18.6905 7.18937 19.1202L7.16119 20.0079L10.2326 20.3319C10.6271 20.3742 11.0568 20.0713 11.0709 19.6768L11.0427 18.2749L7.97131 18.3031Z" fill="#FFA04F"/>
<path d="M16.0398 28.8807C16.0398 28.6653 16.2144 28.4907 16.4297 28.4907C16.6451 28.4907 16.8197 28.6653 16.8197 28.8807V35.3231H16.0398V28.8807Z" fill="#EF8B35"/>
<path d="M4.40222 28.9031C4.40222 28.6878 4.57681 28.5132 4.79217 28.5132C5.00753 28.5132 5.18212 28.6878 5.18212 28.9031V35.3456H4.40222V28.9031Z" fill="#EF8B35"/>
<path d="M30.8995 15.9856C31.377 15.9856 31.7642 15.5985 31.7642 15.121C31.7642 14.6435 31.377 14.2563 30.8995 14.2563C30.422 14.2563 30.0349 14.6435 30.0349 15.121C30.0349 15.5985 30.422 15.9856 30.8995 15.9856Z" fill="#DD636E"/>
</svg>
