<svg width="38" height="39" viewBox="0 0 38 39" fill="none" xmlns="http://www.w3.org/2000/svg">
<circle cx="19" cy="19.7241" r="19" fill="#E7EEF6"/>
<path d="M19.1246 36.7416V12.2436C19.1246 11.7054 18.6949 11.2691 18.1647 11.2686H8.28374C7.75307 11.2686 7.32288 11.7051 7.32288 12.2436V36.7417H21.9716H19.1246V36.7416Z" fill="#C4CDDF"/>
<path d="M21.0106 11.2681H17.6232C18.1538 11.2681 18.584 11.7046 18.584 12.2431V36.7412H21.9715V12.2431C21.9715 11.7046 21.5413 11.2681 21.0106 11.2681Z" fill="#8999A5"/>
<path d="M9.33215 15.8233V14.1514C9.33215 13.9305 9.50866 13.7515 9.72633 13.7515H11.374C11.5917 13.7515 11.7682 13.9306 11.7682 14.1514V15.8233C11.7682 16.0443 11.5917 16.2233 11.374 16.2233H9.72633C9.50866 16.2233 9.33215 16.0442 9.33215 15.8233Z" fill="white"/>
<path d="M13.4285 15.8233V14.1514C13.4285 13.9305 13.605 13.7515 13.8226 13.7515H15.4703C15.688 13.7515 15.8645 13.9306 15.8645 14.1514V15.8233C15.8645 16.0443 15.688 16.2233 15.4703 16.2233H13.8226C13.6049 16.2233 13.4285 16.0442 13.4285 15.8233Z" fill="white"/>
<path d="M17.525 15.8233V14.1514C17.525 13.9305 17.7015 13.7515 17.9191 13.7515H19.5668C19.7845 13.7515 19.961 13.9306 19.961 14.1514V15.8233C19.961 16.0443 19.7845 16.2233 19.5668 16.2233H17.9191C17.7015 16.2233 17.525 16.0442 17.525 15.8233Z" fill="white"/>
<path d="M9.33215 20.9103V19.2384C9.33215 19.0174 9.50866 18.8384 9.72633 18.8384H11.374C11.5917 18.8384 11.7682 19.0175 11.7682 19.2384V20.9103C11.7682 21.1312 11.5917 21.3102 11.374 21.3102H9.72633C9.50866 21.3103 9.33215 21.1312 9.33215 20.9103Z" fill="white"/>
<path d="M13.4285 20.9103V19.2384C13.4285 19.0174 13.605 18.8384 13.8226 18.8384H15.4703C15.688 18.8384 15.8645 19.0175 15.8645 19.2384V20.9103C15.8645 21.1312 15.688 21.3102 15.4703 21.3102H13.8226C13.6049 21.3103 13.4285 21.1312 13.4285 20.9103Z" fill="white"/>
<path d="M17.525 20.9103V19.2384C17.525 19.0174 17.7015 18.8384 17.9191 18.8384H19.5668C19.7845 18.8384 19.961 19.0175 19.961 19.2384V20.9103C19.961 21.1312 19.7845 21.3102 19.5668 21.3102H17.9191C17.7015 21.3103 17.525 21.1312 17.525 20.9103Z" fill="white"/>
<path d="M9.33215 25.9962V24.3243C9.33215 24.1034 9.50866 23.9243 9.72633 23.9243H11.374C11.5917 23.9243 11.7682 24.1034 11.7682 24.3243V25.9962C11.7682 26.2171 11.5917 26.3962 11.374 26.3962H9.72633C9.50866 26.3962 9.33215 26.2171 9.33215 25.9962Z" fill="white"/>
<path d="M13.4285 25.9962V24.3243C13.4285 24.1034 13.605 23.9243 13.8226 23.9243H15.4703C15.688 23.9243 15.8645 24.1034 15.8645 24.3243V25.9962C15.8645 26.2171 15.688 26.3962 15.4703 26.3962H13.8226C13.6049 26.3962 13.4285 26.2171 13.4285 25.9962Z" fill="white"/>
<path d="M9.33215 31.0831V29.4112C9.33215 29.1903 9.50866 29.0112 9.72633 29.0112H11.374C11.5917 29.0112 11.7682 29.1903 11.7682 29.4112V31.0831C11.7682 31.304 11.5917 31.4831 11.374 31.4831H9.72633C9.50866 31.4831 9.33215 31.304 9.33215 31.0831Z" fill="white"/>
<path d="M13.4285 31.0831V29.4112C13.4285 29.1903 13.605 29.0112 13.8226 29.0112H15.4703C15.688 29.0112 15.8645 29.1903 15.8645 29.4112V31.0831C15.8645 31.304 15.688 31.4831 15.4703 31.4831H13.8226C13.6049 31.4831 13.4285 31.304 13.4285 31.0831Z" fill="white"/>
<path d="M27.1433 36.7416V23.2432C27.1433 22.8977 26.8673 22.6177 26.5268 22.6177H18.1419C17.8015 22.6177 17.5255 22.8977 17.5255 23.2432V36.7416H27.1433Z" fill="#FFA438"/>
<path d="M29.66 22.6177H26.2726C26.613 22.6177 26.889 22.8977 26.889 23.2432V36.7416H30.2764V23.2432C30.2764 22.8977 30.0005 22.6177 29.66 22.6177Z" fill="#FF9316"/>
<path d="M21.1181 26.9045H19.5577C19.4005 26.9045 19.2731 26.7751 19.2731 26.6156V25.0725C19.2731 24.913 19.4005 24.7837 19.5577 24.7837H21.1181C21.2753 24.7837 21.4028 24.913 21.4028 25.0725V26.6156C21.4028 26.7751 21.2753 26.9045 21.1181 26.9045Z" fill="white"/>
<path d="M21.1181 30.235H19.5577C19.4005 30.235 19.2731 30.1057 19.2731 29.9462V28.4031C19.2731 28.2436 19.4005 28.1143 19.5577 28.1143H21.1181C21.2753 28.1143 21.4028 28.2436 21.4028 28.4031V29.9462C21.4028 30.1057 21.2753 30.235 21.1181 30.235Z" fill="white"/>
<path d="M21.1181 33.5661H19.5577C19.4005 33.5661 19.2731 33.4368 19.2731 33.2772V31.7342C19.2731 31.5746 19.4005 31.4453 19.5577 31.4453H21.1181C21.2753 31.4453 21.4028 31.5746 21.4028 31.7342V33.2772C21.4028 33.4368 21.2753 33.5661 21.1181 33.5661Z" fill="white"/>
<path d="M24.6808 26.9045H23.1205C22.9633 26.9045 22.8358 26.7751 22.8358 26.6156V25.0725C22.8358 24.913 22.9633 24.7837 23.1205 24.7837H24.6808C24.8381 24.7837 24.9655 24.913 24.9655 25.0725V26.6156C24.9655 26.7751 24.8381 26.9045 24.6808 26.9045Z" fill="white"/>
<path d="M24.6808 30.235H23.1204C22.9632 30.235 22.8358 30.1057 22.8358 29.9462V28.4031C22.8358 28.2436 22.9632 28.1143 23.1204 28.1143H24.6808C24.838 28.1143 24.9654 28.2436 24.9654 28.4031V29.9462C24.9654 30.1057 24.838 30.235 24.6808 30.235Z" fill="white"/>
<path d="M24.6808 33.5661H23.1204C22.9632 33.5661 22.8358 33.4368 22.8358 33.2772V31.7342C22.8358 31.5746 22.9632 31.4453 23.1204 31.4453H24.6808C24.838 31.4453 24.9654 31.5746 24.9654 31.7342V33.2772C24.9654 33.4368 24.838 33.5661 24.6808 33.5661Z" fill="white"/>
<path d="M28.2445 26.9045H26.6841C26.5269 26.9045 26.3995 26.7751 26.3995 26.6156V25.0725C26.3995 24.913 26.5269 24.7837 26.6841 24.7837H28.2445C28.4017 24.7837 28.5292 24.913 28.5292 25.0725V26.6156C28.5292 26.7751 28.4017 26.9045 28.2445 26.9045Z" fill="white"/>
<path d="M28.2445 30.235H26.6841C26.5269 30.235 26.3995 30.1057 26.3995 29.9462V28.4031C26.3995 28.2436 26.5269 28.1143 26.6841 28.1143H28.2445C28.4017 28.1143 28.5292 28.2436 28.5292 28.4031V29.9462C28.5292 30.1057 28.4017 30.235 28.2445 30.235Z" fill="white"/>
<path d="M28.2445 33.5661H26.6841C26.5269 33.5661 26.3995 33.4368 26.3995 33.2772V31.7342C26.3995 31.5746 26.5269 31.4453 26.6841 31.4453H28.2445C28.4017 31.4453 28.5292 31.5746 28.5292 31.7342V33.2772C28.5292 33.4368 28.4017 33.5661 28.2445 33.5661Z" fill="white"/>
<path d="M28.6455 7.67871C26.512 7.67871 24.7825 9.36971 24.7825 11.4557C24.7825 14.372 27.4645 16.5302 28.359 17.1689C28.5297 17.2908 28.7613 17.2908 28.932 17.1689C29.8264 16.5302 32.5084 14.372 32.5084 11.4557C32.5084 9.36971 30.7789 7.67871 28.6455 7.67871ZM28.6455 13.3328C27.5851 13.3328 26.7255 12.4924 26.7255 11.4556C26.7255 10.4189 27.5851 9.5784 28.6455 9.5784C29.7059 9.5784 30.5655 10.4189 30.5655 11.4556C30.5654 12.4924 29.7058 13.3328 28.6455 13.3328Z" fill="#FFA438"/>
<path d="M28.8823 37.221V36.5061L28.7177 36.1802H6.51957C5.95309 36.1802 5.49384 36.6462 5.49384 37.221C5.49384 37.7958 5.95309 38.2618 6.51957 38.2618H27.8576C28.4236 38.2612 28.8823 37.7955 28.8823 37.221Z" fill="#D8DEEB"/>
<path d="M31.0795 36.1802H28.7178V37.221C28.7178 37.7958 28.2586 38.2618 27.6921 38.2618H31.0795C31.646 38.2618 32.1052 37.7958 32.1052 37.221C32.1052 36.6461 31.646 36.1802 31.0795 36.1802Z" fill="#B6C2DA"/>
</svg>
