<svg width="38" height="39" viewBox="0 0 38 39" fill="none" xmlns="http://www.w3.org/2000/svg">
<circle cx="19" cy="19.1724" r="19" fill="#E7EEF6"/>
<path d="M32.195 17.7622L19.0391 4.26025L6.14398 17.7622L19.1695 30.1788L32.195 17.7622Z" fill="#8999A5"/>
<path d="M10.0395 26.5065H28.4088C29.2951 26.5065 30.0135 25.7775 30.0135 24.8782V9.40365L24.9715 4.26025H10.0395C9.15327 4.26025 8.43482 4.98927 8.43488 5.88847V24.8783C8.43488 25.7775 9.15327 26.5065 10.0395 26.5065Z" fill="white"/>
<path d="M24.9662 4.26004V8.06008C24.9662 8.79005 25.5494 9.38184 26.2688 9.38184H30.0137L24.9662 4.26004Z" fill="#D8DEEB"/>
<path d="M21.9564 21.3781H16.492C16.2562 21.3781 16.0651 21.1841 16.0651 20.9449C16.0651 20.7056 16.2563 20.5117 16.492 20.5117H21.9564C22.1922 20.5117 22.3833 20.7057 22.3833 20.9449C22.3834 21.1841 22.1922 21.3781 21.9564 21.3781Z" fill="#FFA438"/>
<path d="M17.1655 15.4959H16.3938V14.7633H17.2689C17.5047 14.7633 17.6958 14.5694 17.6958 14.3302C17.6958 14.0909 17.5047 13.897 17.2689 13.897H15.9668C15.731 13.897 15.5399 14.0909 15.5399 14.3302V17.5899C15.5399 17.8292 15.731 18.0231 15.9668 18.0231C16.2026 18.0231 16.3937 17.8292 16.3937 17.5899V16.3624H17.1654C17.4012 16.3624 17.5923 16.1684 17.5923 15.9292C17.5924 15.6898 17.4013 15.4959 17.1655 15.4959Z" fill="#FFA438"/>
<path d="M20.4818 15.4959H19.7101V14.7633H20.5852C20.821 14.7633 21.0121 14.5694 21.0121 14.3302C21.0121 14.0909 20.821 13.897 20.5852 13.897H19.2832C19.0474 13.897 18.8563 14.0909 18.8563 14.3302V17.5899C18.8563 17.8292 19.0474 18.0231 19.2832 18.0231C19.519 18.0231 19.7101 17.8292 19.7101 17.5899V16.3624H20.4818C20.7176 16.3624 20.9087 16.1684 20.9087 15.9292C20.9088 15.6898 20.7176 15.4959 20.4818 15.4959Z" fill="#FFA438"/>
<path d="M23.7116 17.1229H22.7874V16.3624H23.612C23.8478 16.3624 24.0389 16.1684 24.0389 15.9292C24.0389 15.6899 23.8478 15.496 23.612 15.496H22.7874V14.7355H23.7116C23.9474 14.7355 24.1385 14.5416 24.1385 14.3023C24.1385 14.0631 23.9474 13.8691 23.7116 13.8691H22.3605C22.1247 13.8691 21.9336 14.0631 21.9336 14.3023V17.5561C21.9336 17.7954 22.1247 17.9893 22.3605 17.9893H23.7116C23.9474 17.9893 24.1385 17.7954 24.1385 17.5561C24.1385 17.3168 23.9474 17.1229 23.7116 17.1229Z" fill="#FFA438"/>
<path d="M27.1164 16.363C27.6418 16.1943 28.0224 15.7102 28.0224 15.1407C28.0224 14.4312 27.4322 13.854 26.7068 13.854H25.8468C25.8467 13.854 25.8464 13.854 25.8463 13.854C25.8461 13.854 25.8459 13.854 25.8457 13.854C25.6099 13.854 25.4188 14.048 25.4188 14.2872V17.571C25.4188 17.8103 25.61 18.0042 25.8457 18.0042C26.0815 18.0042 26.2726 17.8103 26.2726 17.571V16.7017L27.2749 17.8573C27.3593 17.9546 27.4771 18.0043 27.5955 18.0043C27.6957 18.0043 27.7963 17.9687 27.8774 17.8963C28.0544 17.7383 28.0716 17.4645 27.9159 17.2849L27.1164 16.363ZM26.7068 14.7204C26.9571 14.7204 27.1685 14.9129 27.1685 15.1407C27.1685 15.3684 26.9571 15.5608 26.7068 15.5608C26.6059 15.5608 26.4379 15.5615 26.2773 15.5623C26.2766 15.4037 26.2759 15.2392 26.2759 15.1407C26.2759 15.0566 26.2755 14.8867 26.2751 14.7204H26.7068Z" fill="#FFA438"/>
<path d="M12.3616 18.0355C11.234 18.0355 10.3166 17.1047 10.3166 15.9604C10.3166 14.8161 11.234 13.8853 12.3616 13.8853C13.4893 13.8853 14.4067 14.8161 14.4067 15.9604C14.4067 17.1047 13.4893 18.0355 12.3616 18.0355ZM12.3616 14.7517C11.7048 14.7517 11.1705 15.2939 11.1705 15.9604C11.1705 16.6269 11.7048 17.1691 12.3616 17.1691C13.0185 17.1691 13.5528 16.6269 13.5528 15.9604C13.5528 15.2939 13.0184 14.7517 12.3616 14.7517Z" fill="#FFA438"/>
<path d="M32.2962 17.9938V31.2846C32.2962 32.2059 31.5602 32.9522 30.6529 32.9522H7.6863C6.77892 32.9522 6.04291 32.2059 6.04291 31.2846V17.9996C6.04291 17.7546 6.30474 17.6021 6.51366 17.7252L18.8992 25.0401C18.9152 25.0493 18.9316 25.058 18.9488 25.0655C19.1059 25.1376 19.2886 25.1296 19.44 25.0401L20.0212 24.697L31.8306 17.7224C32.0372 17.6005 32.2962 17.7512 32.2962 17.9938Z" fill="#C4CDDF"/>
<path d="M20.2159 8.21601H18.2332C17.9974 8.21601 17.8063 8.02206 17.8063 7.78282V6.88765C17.8063 6.32608 18.2565 5.86914 18.81 5.86914H19.6392C20.1926 5.86914 20.643 6.32603 20.643 6.88765V7.78282C20.6428 8.02211 20.4517 8.21601 20.2159 8.21601ZM18.6601 7.98938H19.789V6.88765C19.789 6.80376 19.7218 6.73556 19.6391 6.73556H18.8099C18.7272 6.73556 18.66 6.80376 18.66 6.88765V7.98938H18.6601Z" fill="#FFBF83"/>
<path d="M21.703 12.0819H16.746C16.4701 12.0819 16.2463 11.8549 16.2463 11.5749V8.28976C16.2463 8.00973 16.4701 7.78271 16.746 7.78271H21.703C21.979 7.78271 22.2027 8.00973 22.2027 8.28976V11.5748C22.2027 11.8549 21.979 12.0819 21.703 12.0819Z" fill="#FFA438"/>
<path d="M29.3859 30.7292C29.3068 30.8672 29.1639 30.944 29.0165 30.944C28.9436 30.944 28.8696 30.9255 28.8024 30.8857L18.9489 25.0657C19.106 25.1379 19.2887 25.1298 19.4402 25.0403L20.0214 24.6973L29.2316 30.1366C29.4354 30.2573 29.5049 30.5224 29.3859 30.7292Z" fill="#8999A5"/>
</svg>
