<svg width="38" height="39" viewBox="0 0 38 39" fill="none" xmlns="http://www.w3.org/2000/svg">
<circle cx="19" cy="19.5405" r="19" fill="#E7EEF6"/>
<path d="M20.1499 21.5451C20.0912 21.521 20.0278 21.5095 19.9644 21.5117C18.5892 21.5723 16.605 22.4286 15.2048 23.1202C15.1057 23.1667 14.9877 23.1375 14.9216 23.0497C14.8555 22.9621 14.8596 22.8401 14.9312 22.7571C15.795 21.7895 16.3932 20.6128 16.6665 19.3429C16.6926 19.2073 16.6561 19.0672 16.5672 18.9619C15.4773 17.6521 14.8768 16.0014 14.8694 14.2946C14.8694 9.9216 18.8162 6.37744 23.6811 6.37744C28.5459 6.37744 32.4926 9.9216 32.4926 14.2946C32.4926 18.6676 28.5459 22.2116 23.6811 22.2116C22.4728 22.2144 21.2747 21.9884 20.1499 21.5451Z" fill="white"/>
<path d="M24.1344 8.6123H22.6947C21.9815 8.6123 21.4016 9.20921 21.4016 9.94333V11.2263L21.6616 11.4184H24.2477V8.81127L24.1344 8.6123Z" fill="#F9CC5D"/>
<path d="M26.9671 15.5421L25.1208 14.9863H22.2347L20.3884 15.5421C19.7285 15.741 19.2753 16.3654 19.2753 17.0789V19.7822H28.0869V17.0789C28.0802 16.3654 27.627 15.741 26.9671 15.5421Z" fill="#E7EEF6"/>
<path d="M26.9672 15.5421L25.1209 14.9863H23.6878L23.7011 15.741L25.1475 16.2007C25.8074 16.3997 26.2606 17.024 26.2606 17.7376V19.789H28.0803V17.0858C28.0803 16.3654 27.627 15.741 26.9672 15.5421Z" fill="#D8DEEB"/>
<path d="M23.9607 16.8179H23.4009L22.8943 19.7681V19.775H24.4673L23.9607 16.8179Z" fill="#606483"/>
<path d="M24.6946 15.1096V13.4355H22.6683V15.1096C22.6683 15.6859 23.6815 15.734 23.6815 15.734C23.6815 15.734 24.6946 15.6859 24.6946 15.1096Z" fill="#FFDDCE"/>
<path d="M26.8338 19.7752V18.8489C26.8338 18.7254 26.7405 18.6294 26.6205 18.6294C26.5005 18.6294 26.4072 18.7254 26.4072 18.8489V19.7752H26.8338Z" fill="#B9CBEA"/>
<path d="M25.3941 9.38757H25.3741C25.2674 9.38757 25.1875 9.29838 25.1875 9.19546C25.1875 8.87986 24.9342 8.61914 24.6276 8.61914H24.1343V11.4253H25.694L25.954 11.2332V9.97075C25.954 9.64829 25.7007 9.38757 25.3941 9.38757Z" fill="#F7BD3C"/>
<path d="M22.268 14.8698L21.9814 15.0001C21.8147 15.0756 21.7747 15.302 21.9014 15.4324L22.7012 16.2557C22.8012 16.3586 22.9612 16.3655 23.0678 16.2694L23.6944 15.7274L22.6279 14.9041C22.5279 14.8355 22.388 14.8149 22.268 14.8698Z" fill="#B9CBEA"/>
<path d="M24.7206 14.9175L23.6942 15.734L24.2807 16.2554C24.3874 16.3515 24.5473 16.3446 24.654 16.2417L25.4538 15.439C25.5871 15.3086 25.5471 15.0822 25.3805 15.0067L25.0872 14.8695C24.9672 14.8146 24.8273 14.8352 24.7206 14.9175Z" fill="#B9CBEA"/>
<path d="M23.7009 15.7339L23.081 16.2622L23.3943 16.8179H23.9542L24.2674 16.2347L23.7009 15.7339Z" fill="#606483"/>
<path d="M20.9551 19.7752V18.8489C20.9551 18.7254 20.8618 18.6294 20.7419 18.6294C20.6219 18.6294 20.5286 18.7254 20.5286 18.8489V19.7752H20.9551Z" fill="#B9CBEA"/>
<path d="M24.2477 12.3923V10.3066C23.7412 10.4026 23.2146 10.3683 22.7214 10.2036C22.4547 10.1145 22.1815 10.3203 22.1815 10.6084V10.828C22.1815 11.0475 22.0082 11.2328 21.7882 11.2328H21.4016V11.8914C21.4016 12.0561 21.5349 12.1933 21.6949 12.1933C21.7482 12.1933 21.7882 12.2345 21.7882 12.2894C21.8415 13.1813 22.4814 13.9086 23.3146 14.0732C23.8678 13.7165 24.2344 13.099 24.2477 12.3923Z" fill="#FFDDCE"/>
<path d="M25.5672 11.2264C25.3539 11.2264 25.1739 11.0481 25.1739 10.8216V10.6021C25.1739 10.3139 24.9007 10.1081 24.634 10.1973C24.4674 10.2522 24.3008 10.2933 24.1341 10.3208V12.3585C24.1208 13.072 23.7342 13.6964 23.1677 14.0257C23.3276 14.0737 23.5009 14.0943 23.6742 14.0943C24.674 14.0943 25.4939 13.2916 25.5605 12.2762C25.5605 12.2213 25.6072 12.1801 25.6538 12.1801C25.8138 12.1801 25.9471 12.0429 25.9471 11.8782V11.2264H25.5672Z" fill="#FFCBBE"/>
<path d="M23.0246 31.0209C21.5119 32.4772 19.4885 33.2605 17.4039 33.1963C16.6659 33.1942 15.9301 33.1134 15.2087 32.955C12.8506 32.4349 10.9163 31.0113 9.22904 29.3183C9.06137 29.1433 8.90298 28.973 8.73511 28.8029L12.4589 25.0243C13.2787 25.84 14.1573 26.5923 15.0876 27.2754C15.4582 27.5391 15.9623 27.493 16.2807 27.1666L17.7534 25.6722C18.1709 25.2474 18.7378 25.0088 19.3289 25.0088C19.92 25.0088 20.4867 25.2474 20.9041 25.6722L23.0246 27.8239C23.4433 28.2475 23.6784 28.8225 23.6784 29.4223C23.6784 30.0221 23.4433 30.5973 23.0246 31.0209Z" fill="#EF8B35"/>
<path d="M10.2406 22.357C10.9138 23.3008 11.6552 24.1925 12.4591 25.0243L8.73529 28.8029C8.56742 28.6326 8.39975 28.4719 8.22733 28.3015C6.55867 26.5897 5.15585 24.6269 4.64314 22.2339C4.05124 19.458 4.52208 16.3604 6.54939 14.3032C6.96723 13.8793 7.53397 13.6411 8.12483 13.6411C8.7157 13.6411 9.28224 13.8793 9.70007 14.3032L11.8206 16.455C12.2391 16.8785 12.4744 17.4536 12.4744 18.0534C12.4744 18.6531 12.2391 19.2284 11.8206 19.652L10.3479 21.1464C10.0261 21.4693 9.98076 21.9809 10.2406 22.357Z" fill="#FFA04F"/>
<path d="M6.80498 21.8709C6.60452 21.8707 6.42654 21.7405 6.36322 21.5474C5.29533 18.2981 6.74249 16.779 6.80498 16.716C6.98688 16.5354 7.27768 16.5362 7.45855 16.7177C7.63962 16.8993 7.64354 17.1944 7.46762 17.381C7.41689 17.4359 6.37663 18.5984 7.24674 21.2481C7.29438 21.3923 7.27067 21.5507 7.18302 21.6742C7.09557 21.7977 6.95471 21.8709 6.80498 21.8709Z" fill="#FAE5A1"/>
<path d="M18.0977 31.6066C17.3443 31.5959 16.5975 31.4618 15.8862 31.2092C15.6416 31.1265 15.5094 30.8585 15.5909 30.6103C15.6723 30.3623 15.9367 30.2281 16.1813 30.3108C18.8005 31.1971 19.9452 30.1319 19.9928 30.0865C20.1778 29.908 20.4698 29.9126 20.6495 30.0969C20.8287 30.2803 20.8287 30.5757 20.6495 30.7591C19.9351 31.3586 19.0233 31.6614 18.0977 31.6066Z" fill="#FEB678"/>
</svg>
