<svg width="120" height="120" viewBox="0 0 120 120" fill="none" xmlns="http://www.w3.org/2000/svg">
<circle cx="59.9108" cy="59.9108" r="53.9108" fill="#FFF8DF"/>
<g clip-path="url(#clip0_51453_8644)">
<path d="M56.1718 41.5974L58.4136 43.1381C58.5548 43.1545 58.6399 43.0492 58.8529 42.7909C59.2329 42.3276 59.6137 41.8642 60.0101 41.4148C60.0524 41.3779 60.1022 41.3506 60.1561 41.3347C60.21 41.3188 60.2666 41.3148 60.3222 41.3228C60.8973 41.4406 61.4654 41.5927 62.0389 41.7043C62.2168 41.7386 62.3034 41.7823 62.351 41.9703C62.5406 42.7114 62.7521 43.4478 62.9526 44.178C63.6486 44.2341 65.3481 43.94 65.885 43.6639C65.821 42.9376 65.7664 42.1942 65.6829 41.4538C65.6571 41.2237 65.707 41.1262 65.9216 41.01C66.4164 40.7332 66.8954 40.4292 67.3566 40.0996C67.5447 39.9685 67.6789 39.9092 67.9028 40.0418C68.4748 40.3859 69.0678 40.6948 69.646 41.0295C69.8021 41.12 69.916 41.1215 70.0198 40.9725C70.5093 40.2735 70.9978 39.5743 71.4852 38.8748C71.6053 38.7032 71.4579 38.6236 71.3611 38.5401C70.8695 38.1165 70.3803 37.6906 69.8746 37.2842C69.685 37.1282 69.6499 36.9979 69.7186 36.76C69.8981 36.1359 70.0369 35.4923 70.2039 34.8097L72.5604 34.1513C72.5465 33.1579 72.3633 32.1741 72.0189 31.2422L69.6288 31.4443C69.1934 30.7968 68.8033 30.1883 68.3804 29.6048C68.2571 29.4355 68.2602 29.3357 68.3554 29.1711C68.6863 28.6024 68.9991 28.0228 69.3261 27.4509C69.3963 27.3277 69.433 27.2317 69.3097 27.1178C68.6855 26.5406 68.0253 26.0257 67.2536 25.6528C67.0819 25.5701 66.9899 25.6122 66.8814 25.741C66.4437 26.2582 65.9966 26.7676 65.5611 27.2871C65.4558 27.4127 65.3747 27.4533 65.1944 27.4104C64.5702 27.2598 63.9327 27.1358 63.2959 27.0289C63.1336 27.0016 63.0892 26.9322 63.0517 26.8003C62.8457 26.0624 62.6342 25.3267 62.4196 24.5708C61.431 24.6028 60.4783 24.7424 59.5325 25.0771C59.6043 25.9227 59.6753 26.7629 59.7432 27.5664L57.6785 28.8856C57.1659 28.6 56.5775 28.2677 55.9845 27.9448C55.4968 27.6795 55.5889 27.6273 55.2042 28.0782C55.163 28.1184 55.118 28.1547 55.07 28.1866L54.2015 29.4503C54.163 29.5587 54.1144 29.6631 54.0564 29.7624C53.8863 30.0019 53.9003 30.1712 54.1508 30.3693C54.6752 30.7812 55.1746 31.2274 55.6732 31.6705C55.7081 31.7078 55.7345 31.7522 55.7506 31.8007C55.7666 31.8492 55.7719 31.9006 55.766 31.9514C55.6607 32.5193 55.5054 33.0786 55.4297 33.6497C55.393 33.9289 55.2846 34.0171 55.0396 34.0811C54.3373 34.2636 53.6428 34.475 52.875 34.695C53.0459 35.6717 53.2129 36.6242 53.3822 37.5876C53.5671 37.5752 53.674 37.5697 53.7802 37.5611C54.4356 37.5049 55.0926 37.4558 55.7473 37.3887C55.933 37.3692 56.0126 37.4347 56.1093 37.5892C56.4425 38.1181 56.8116 38.626 57.1464 39.1533C57.1721 39.2044 57.1863 39.2605 57.1879 39.3177C57.1895 39.3748 57.1785 39.4316 57.1557 39.4841C56.9053 39.9623 56.629 40.4272 56.3692 40.9C56.1577 41.2822 56.0797 41.425 56.1718 41.5974ZM60.2403 37.9621C59.278 37.3006 58.6179 36.2841 58.4053 35.1361C58.1926 33.9881 58.4449 32.8027 59.1065 31.8406C59.7681 30.8785 60.7849 30.2186 61.9332 30.0061C63.0815 29.7935 64.2672 30.0457 65.2295 30.7071C66.1918 31.3686 66.8519 32.3851 67.0645 33.5331C67.2771 34.6811 67.0249 35.8665 66.3633 36.8286C65.7017 37.7907 64.6849 38.4506 63.5366 38.6631C62.3883 38.8757 61.2026 38.6235 60.2403 37.9621Z" fill="#FFA438"/>
<path d="M75.1869 50.5086L76.2668 55.2485C76.433 55.4412 76.6718 55.4045 77.2648 55.3265C78.326 55.1783 79.3873 55.0308 80.4524 54.9193C80.6201 54.9021 80.8737 55.0355 80.9767 55.1783C81.59 56.0286 82.1519 56.9163 82.7714 57.7604C82.9642 58.0217 83.0211 58.1863 82.8588 58.4875C82.2104 59.6927 81.5963 60.9159 80.9759 62.1189C81.8226 63.0363 84.4093 64.7065 85.4533 64.9943C86.2484 63.9615 87.0779 62.9177 87.8644 61.8443C88.1095 61.5096 88.2936 61.4433 88.7157 61.5494C89.7018 61.7846 90.7 61.9653 91.7059 62.0908C92.1124 62.1462 92.359 62.2296 92.4862 62.672C92.8217 63.8172 93.2267 64.9421 93.5786 66.0818C93.6738 66.3884 93.8228 66.5288 94.1388 66.4594C95.6287 66.1323 97.118 65.8046 98.6069 65.4764C98.9728 65.3984 98.8753 65.1129 98.8488 64.8851C98.7153 63.7345 98.5881 62.5815 98.4165 61.4355C98.3525 61.0056 98.4687 60.7857 98.8456 60.5563C99.8421 59.9486 100.796 59.2754 101.848 58.5787L105.743 60.5665C106.938 59.2442 107.85 57.7628 108.556 56.0863L105.17 53.4581C105.381 52.0797 105.605 50.8058 105.754 49.5256C105.797 49.1551 105.924 49.0263 106.248 48.9265C107.371 48.5786 108.485 48.1955 109.603 47.8406C109.846 47.7626 110.009 47.6846 109.985 47.3827C109.867 45.87 109.624 44.3878 109.058 42.9673C108.932 42.6505 108.761 42.5944 108.462 42.6318C107.26 42.7824 106.055 42.9103 104.853 43.0655C104.562 43.103 104.406 43.0593 104.221 42.7832C103.579 41.826 102.895 40.8945 102.188 39.9833C102.008 39.7493 102.032 39.6066 102.145 39.3874C102.769 38.168 103.381 36.9448 104.014 35.6912C102.675 34.5359 101.254 33.5654 99.6103 32.8649L96.8707 36.3925L92.5587 35.6249C92.2302 34.6295 91.8565 33.4804 91.471 32.3375C91.1519 31.4014 91.3368 31.442 90.2834 31.5676C90.1803 31.5707 90.0771 31.5642 89.9751 31.5481L87.3026 32.1566C87.1138 32.2346 86.9312 32.3508 86.7338 32.3906C86.2196 32.4998 86.0315 32.7385 86.122 33.3033C86.3124 34.4797 86.4287 35.6694 86.5465 36.8567C86.5471 36.9482 86.5279 37.0387 86.4902 37.1221C86.4525 37.2054 86.3972 37.2796 86.328 37.3396C85.5017 37.9574 84.6199 38.505 83.8311 39.1635C83.4448 39.4856 83.1959 39.4708 82.7925 39.2555C81.6486 38.6455 80.4797 38.0854 79.2031 37.4418L76.3651 41.8572C76.6234 42.0655 76.7701 42.1879 76.9207 42.3049C77.8501 43.0258 78.7731 43.7552 79.715 44.4596C79.9826 44.6593 80.0084 44.8426 79.9491 45.1617C79.7454 46.2609 79.612 47.3725 79.4161 48.4732C79.3879 48.5717 79.3382 48.6627 79.2708 48.7398C79.2034 48.817 79.1198 48.8783 79.026 48.9195C78.1177 49.2456 77.1915 49.5209 76.277 49.8283C75.5482 50.0756 75.2751 50.1684 75.1869 50.5086ZM84.9407 50.656C84.4771 48.6212 84.8411 46.4856 85.9525 44.719C87.0639 42.9525 88.8317 41.6997 90.867 41.2362C91.8748 41.0066 92.9179 40.9777 93.9368 41.1512C94.9557 41.3247 95.9305 41.6971 96.8054 42.2472C97.6804 42.7973 98.4384 43.5144 99.0361 44.3574C99.6338 45.2004 100.06 46.1528 100.289 47.1603C100.519 48.1679 100.548 49.2108 100.374 50.2295C100.201 51.2482 99.8282 52.2228 99.278 53.0975C98.7277 53.9723 98.0105 54.7302 97.1673 55.3279C96.3241 55.9255 95.3714 56.3513 94.3636 56.5809C92.3282 57.0443 90.1921 56.6806 88.425 55.5696C86.658 54.4587 85.4046 52.6915 84.9407 50.6568V50.656Z" fill="#FF9316"/>
<path d="M76.3597 28.8762L77.726 29.8123C77.8118 29.8225 77.8633 29.7577 77.9929 29.6001C78.2269 29.3177 78.4564 29.0361 78.6951 28.7623C78.7209 28.7395 78.7514 28.7226 78.7844 28.7129C78.8175 28.7032 78.8523 28.7009 78.8863 28.7061C79.2367 28.7771 79.5823 28.8699 79.9335 28.9402C80.0419 28.9612 80.0942 28.9893 80.1231 29.1024C80.2393 29.5541 80.3681 30.0035 80.4906 30.4481C80.9143 30.4824 81.9498 30.303 82.2775 30.1361C82.2377 29.6937 82.2049 29.2405 82.1542 28.7896C82.1378 28.6492 82.169 28.5899 82.2993 28.5189C82.6009 28.3503 82.8929 28.1651 83.174 27.9643C83.2888 27.8863 83.3699 27.848 83.5041 27.9291C83.8529 28.139 84.215 28.327 84.5669 28.5314C84.6621 28.586 84.7315 28.5868 84.7947 28.4963L85.6874 27.2185C85.7607 27.1132 85.671 27.0624 85.6094 27.0141C85.3105 26.7559 85.0117 26.4969 84.7042 26.2488C84.5887 26.156 84.5669 26.0741 84.6083 25.9297C84.7175 25.5467 84.8025 25.1567 84.904 24.7401L86.3397 24.3391C86.3319 23.7335 86.2202 23.1338 86.0097 22.5659L84.5536 22.6892C84.2883 22.2944 84.0503 21.9239 83.792 21.5682C83.7579 21.5335 83.7375 21.4877 83.7348 21.4391C83.7321 21.3906 83.7472 21.3427 83.7772 21.3045C83.9785 20.9573 84.1674 20.6024 84.3679 20.256C84.4108 20.178 84.4334 20.1226 84.3585 20.0532C83.9887 19.6935 83.5661 19.3923 83.1054 19.16C83.0871 19.148 83.0666 19.1399 83.0451 19.1361C83.0236 19.1324 83.0015 19.133 82.9803 19.1381C82.959 19.1431 82.939 19.1524 82.9215 19.1654C82.904 19.1785 82.8893 19.1949 82.8783 19.2138C82.6122 19.5258 82.3391 19.8379 82.0738 20.1562C82.0515 20.1931 82.017 20.221 81.9763 20.2353C81.9355 20.2495 81.8911 20.2491 81.8507 20.2342C81.4683 20.1421 81.0813 20.0672 80.6935 20.0002C80.6561 19.9985 80.6206 19.9835 80.5934 19.9579C80.5662 19.9322 80.5491 19.8977 80.5452 19.8605C80.4196 19.4112 80.2908 18.9626 80.1598 18.5023C79.5615 18.5127 78.9686 18.6167 78.4025 18.8105C78.4462 19.3261 78.4891 19.8379 78.5305 20.3278L77.2726 21.1313C76.9605 20.9581 76.6016 20.7553 76.2403 20.5587C75.943 20.3972 75.9992 20.3652 75.7643 20.6367C75.7389 20.6611 75.7115 20.6833 75.6824 20.703L75.1533 21.4722C75.13 21.5385 75.1005 21.6025 75.0652 21.6633C74.9614 21.8092 74.9692 21.913 75.1221 22.0331C75.442 22.2843 75.7464 22.5558 76.0499 22.8257C76.0712 22.8485 76.0874 22.8756 76.0972 22.9053C76.107 22.9349 76.1103 22.9663 76.1069 22.9973C76.0421 23.3429 75.9508 23.6846 75.9016 24.0317C75.879 24.2018 75.8135 24.2556 75.6629 24.2946C75.2345 24.4062 74.8116 24.5349 74.3434 24.6691C74.4479 25.2643 74.5494 25.8447 74.6555 26.4313C74.7686 26.4243 74.8334 26.4212 74.8982 26.4157C75.2977 26.3814 75.698 26.351 76.0967 26.3104C76.2099 26.2987 76.259 26.3385 76.3176 26.4321C76.5204 26.7551 76.7444 27.0648 76.9496 27.3862C76.9651 27.4173 76.9736 27.4515 76.9746 27.4862C76.9755 27.521 76.9689 27.5555 76.9551 27.5875C76.8029 27.8792 76.6343 28.1616 76.4759 28.4503C76.3503 28.6843 76.3035 28.7717 76.3597 28.8762ZM78.8387 26.6615C78.2522 26.2584 77.8499 25.639 77.7202 24.9394C77.5906 24.2398 77.7442 23.5174 78.1474 22.931C78.5505 22.3447 79.1701 21.9425 79.8699 21.8128C80.5696 21.6832 81.2922 21.8368 81.8787 22.2398C82.4652 22.6429 82.8676 23.2623 82.9972 23.9619C83.1269 24.6615 82.9732 25.384 82.5701 25.9703C82.167 26.5566 81.5473 26.9589 80.8476 27.0885C80.1478 27.2181 79.4252 27.0645 78.8387 26.6615Z" fill="#FFBF83"/>
<path d="M66.9031 44.2505H31.2013V36.7155C31.2036 34.7815 31.973 32.9274 33.3409 31.5598C34.7088 30.1923 36.5634 29.423 38.4979 29.4207H59.6065C61.541 29.423 63.3956 30.1923 64.7635 31.5598C66.1314 32.9274 66.9009 34.7815 66.9031 36.7155V44.2505ZM34.3724 41.081H63.7328V36.7124C63.7315 35.6187 63.2964 34.5701 62.5229 33.7968C61.7493 33.0234 60.7005 32.5884 59.6065 32.5872H38.4979C37.404 32.5886 36.3555 33.0237 35.5821 33.797C34.8087 34.5704 34.3737 35.6188 34.3724 36.7124V41.081Z" fill="#CB8A5A"/>
<path d="M35.5959 38.7328H29.9785C29.4037 38.7328 28.9376 39.1987 28.9376 39.7735V41.7183C28.9376 42.293 29.4037 42.759 29.9785 42.759H35.5959C36.1708 42.759 36.6368 42.293 36.6368 41.7183V39.7735C36.6368 39.1987 36.1708 38.7328 35.5959 38.7328Z" fill="#FAE5A1"/>
<path d="M68.1266 38.7328H62.5093C61.9344 38.7328 61.4684 39.1987 61.4684 39.7735V41.7183C61.4684 42.293 61.9344 42.759 62.5093 42.759H68.1266C68.7015 42.759 69.1676 42.293 69.1676 41.7183V39.7735C69.1676 39.1987 68.7015 38.7328 68.1266 38.7328Z" fill="#FAE5A1"/>
<path d="M6.06702 41.081H89.7551V97.4959C89.7551 98.0275 89.5439 98.5372 89.168 98.9131C88.792 99.2889 88.2822 99.5 87.7505 99.5H8.07161C7.53996 99.5 7.03008 99.2889 6.65415 98.9131C6.27821 98.5372 6.06702 98.0275 6.06702 97.4959V41.081Z" fill="#CB8A5A"/>
<g style="mix-blend-mode:multiply" opacity="0.3">
<path d="M89.7582 72.5317V42.8151C89.5819 42.7784 89.4022 42.7598 89.2221 42.7597H6.60312C6.42275 42.7598 6.24287 42.7784 6.06628 42.8151V72.5317C6.14431 72.5481 6.22233 72.5613 6.3066 72.5707L30.2002 75.3089C41.9703 76.6569 53.8558 76.6569 65.6258 75.3089L89.5194 72.5707C89.5998 72.5613 89.6802 72.5481 89.7582 72.5317Z" fill="black"/>
</g>
<path d="M89.5188 70.4637L65.6252 73.2019C53.8551 74.55 41.9695 74.55 30.1995 73.2019L6.30584 70.4637C5.67087 70.3909 5.08486 70.0871 4.6595 69.6102C4.23413 69.1333 3.99913 68.5166 3.99927 67.8776V43.2551C3.99927 42.5649 4.27351 41.903 4.76168 41.415C5.24985 40.9269 5.91196 40.6527 6.60234 40.6527H89.2223C89.9126 40.6527 90.5748 40.9269 91.0629 41.415C91.5511 41.903 91.8254 42.5649 91.8254 43.2551V67.8769C91.8257 68.516 91.5908 69.1329 91.1654 69.6099C90.74 70.087 90.1539 70.3909 89.5188 70.4637Z" fill="#E6AB65"/>
<path d="M53.4883 70.6283H42.3378C41.731 70.6283 41.2391 71.1201 41.2391 71.7267V76.6991C41.2391 77.3057 41.731 77.7974 42.3378 77.7974H53.4883C54.0951 77.7974 54.587 77.3057 54.587 76.6991V71.7267C54.587 71.1201 54.0951 70.6283 53.4883 70.6283Z" fill="#FFF8DF"/>
<path d="M52.2976 71.7555H43.5286C43.0231 71.7555 42.6133 72.1652 42.6133 72.6706V75.7551C42.6133 76.2605 43.0231 76.6702 43.5286 76.6702H52.2976C52.8031 76.6702 53.2129 76.2605 53.2129 75.7551V72.6706C53.2129 72.1652 52.8031 71.7555 52.2976 71.7555Z" fill="#FAE5A1"/>
</g>
<defs>
<clipPath id="clip0_51453_8644">
<rect width="106" height="81" fill="white" transform="translate(4 18.5)"/>
</clipPath>
</defs>
</svg>
