<svg width="141" height="120" viewBox="0 0 141 120" fill="none" xmlns="http://www.w3.org/2000/svg">
<circle cx="59.9108" cy="59.9108" r="53.9108" fill="#FFF8DF"/>
<mask id="mask0_51453_8352" style="mask-type:alpha" maskUnits="userSpaceOnUse" x="6" y="5" width="108" height="110">
<path d="M113.822 60.2942C113.822 90.0684 89.685 114.205 59.9108 114.205C30.1367 114.205 6 90.0684 6 60.2942C6 54.6482 6.86793 49.2049 8.47765 44.0905C2.85123 13.3156 24.4719 5.00004 55.5962 5.00004C85.3703 5.00004 113.822 30.5201 113.822 60.2942Z" fill="#FFF8DF"/>
</mask>
<g mask="url(#mask0_51453_8352)">
<path d="M93.8199 26.7153C93.912 23.7864 91.4771 21.4066 88.5511 21.5656L46.3509 23.8589C44.8054 23.9429 43.3859 24.7379 42.5068 26.0119L39.2503 30.7315C38.7047 31.5221 38.3984 32.4532 38.3681 33.4134L36.1376 104.088C36.0452 107.017 38.4794 109.397 41.4052 109.239L86.7283 106.787C89.3205 106.647 91.3742 104.546 91.4557 101.951L93.8199 26.7153Z" fill="#B5C5D2" fill-opacity="0.4"/>
<path d="M86.1931 114.205H17.3779C14.7675 114.205 12.6514 111.906 12.6514 109.07V28.7406H90.9196V109.07C90.9196 111.906 88.8035 114.205 86.1931 114.205Z" fill="white"/>
<path d="M86.1956 28.7406V107.412C88.8049 107.412 90.92 105.295 90.92 102.683V28.7406H86.1956Z" fill="#EEF2F4"/>
<path d="M90.9196 30.3663H12.6514V23.7444C12.6514 21.134 14.7675 19.0179 17.3779 19.0179H86.1931C88.8035 19.0179 90.9196 21.134 90.9196 23.7444V30.3663Z" fill="#D8DEEB"/>
<path d="M86.1956 19.0179V30.3663H90.92V23.7464C90.92 21.1349 88.8048 19.0179 86.1956 19.0179Z" fill="#C4CDDF"/>
<path d="M20.2114 27.1319C21.5161 27.1319 22.5737 26.0743 22.5737 24.7696C22.5737 23.465 21.5161 22.4073 20.2114 22.4073C18.9068 22.4073 17.8492 23.465 17.8492 24.7696C17.8492 26.0743 18.9068 27.1319 20.2114 27.1319Z" fill="#B6C2DA"/>
<path d="M29.371 27.1319C30.6756 27.1319 31.7333 26.0743 31.7333 24.7696C31.7333 23.465 30.6756 22.4073 29.371 22.4073C28.0664 22.4073 27.0087 23.465 27.0087 24.7696C27.0087 26.0743 28.0664 27.1319 29.371 27.1319Z" fill="#B6C2DA"/>
<path d="M38.5295 27.1319C39.8341 27.1319 40.8918 26.0743 40.8918 24.7696C40.8918 23.465 39.8341 22.4073 38.5295 22.4073C37.2249 22.4073 36.1672 23.465 36.1672 24.7696C36.1672 26.0743 37.2249 27.1319 38.5295 27.1319Z" fill="#B6C2DA"/>
<path d="M33.3113 39.8579L24.8246 39.9841L24.971 48.432L33.4577 48.3058L33.3113 39.8579Z" fill="#FFA438"/>
<path d="M33.3381 41.7483L24.8846 43.5184L24.7989 39.9961L33.3293 39.843L33.3381 41.7483Z" fill="#FFA438"/>
<path d="M24.7323 49.3442C24.3337 49.25 24.0395 48.8759 24.0245 48.4537L23.8786 40.0068C23.8807 39.5124 24.2899 39.0762 24.7866 39.0795L33.2722 38.9538C33.5067 38.9331 33.7518 39.0291 33.9352 39.2247C34.127 39.3843 34.2208 39.6348 34.206 39.8597L34.3518 48.3066C34.3497 48.8009 33.9405 49.2371 33.4439 49.2339L24.9582 49.3596C24.8772 49.3785 24.8047 49.3613 24.7323 49.3442Z" fill="#FFA438"/>
<path d="M41.3928 41.7323C40.9942 41.638 40.7 41.264 40.6851 40.8417C40.6871 40.3474 41.0963 39.9112 41.593 39.9144L63.2047 39.6181C63.7013 39.6213 64.1405 40.0297 64.1384 40.524C64.1363 41.0184 63.7271 41.4545 63.2305 41.4513L41.6188 41.7476C41.5378 41.7665 41.4653 41.7494 41.3928 41.7323Z" fill="#C4CDDF"/>
<path d="M41.4148 47.4089C41.0162 47.3146 40.722 46.9406 40.707 46.5183C40.7091 46.024 41.1183 45.5878 41.615 45.591L60.5004 45.3354C60.9971 45.3386 61.4362 45.7469 61.4341 46.2413C61.4321 46.7356 61.0229 47.1718 60.5262 47.1686L41.6408 47.4242C41.5683 47.4071 41.4873 47.426 41.4148 47.4089Z" fill="#C4CDDF"/>
<path d="M64.6965 53.1345L24.0022 53.3262L24.0153 56.8773L64.7096 56.6856L64.6965 53.1345Z" fill="#B6C2DA"/>
<path d="M64.3157 59.6413L24.132 59.8219L24.136 60.9089L64.3197 60.7283L64.3157 59.6413Z" fill="#C4CDDF"/>
<path d="M64.5825 63.8912L24.3988 64.0718L24.4028 65.1589L64.5865 64.9783L64.5825 63.8912Z" fill="#C4CDDF"/>
<path d="M64.4232 68.4834L24.2395 68.664L24.2435 69.7511L64.4272 69.5705L64.4232 68.4834Z" fill="#C4CDDF"/>
<path d="M47.5754 74.1159L24.0589 74.1476L24.0629 75.2346L47.5794 75.203L47.5754 74.1159Z" fill="#C4CDDF"/>
<path d="M30.1815 79.6251L24.6487 79.7074L24.7441 85.2148L30.2769 85.1326L30.1815 79.6251Z" fill="#FFBF83"/>
<path d="M24.6113 85.8099C24.3515 85.7485 24.1597 85.5047 24.1499 85.2294L24.0548 79.7226C24.0562 79.4003 24.323 79.1159 24.6467 79.118L30.1789 79.0361C30.3317 79.0226 30.4915 79.0852 30.6111 79.2127C30.7361 79.3167 30.7973 79.4801 30.7876 79.6267L30.8827 85.1335C30.8813 85.4558 30.6146 85.7401 30.2908 85.738L24.7587 85.82C24.7114 85.8088 24.6586 85.8211 24.6113 85.8099Z" fill="#FFBF83"/>
<path d="M33.0946 81.7624C32.8347 81.701 32.6429 81.4571 32.6331 81.1818C32.6345 80.8596 32.9013 80.5752 33.2251 80.5773L47.3145 80.3841C47.6383 80.3862 47.9246 80.6524 47.9232 80.9747C47.9219 81.297 47.6551 81.5813 47.3313 81.5793L33.2419 81.7724C33.1891 81.7848 33.1418 81.7736 33.0946 81.7624Z" fill="#C4CDDF"/>
<path d="M33.1382 83.5844C32.8783 83.523 32.6865 83.2791 32.6768 83.0038C32.6781 82.6815 32.9449 82.3972 33.2687 82.3993L45.5808 82.2327C45.9046 82.2347 46.1909 82.501 46.1895 82.8232C46.1882 83.1455 45.9214 83.4299 45.5976 83.4278L33.2855 83.5944C33.2327 83.6068 33.1854 83.5956 33.1382 83.5844Z" fill="#C4CDDF"/>
<path d="M30.1979 90.1997L24.6652 90.282L24.7606 95.7894L30.2934 95.7072L30.1979 90.1997Z" fill="#FCF3E2"/>
<path d="M24.6305 96.3863C24.3706 96.3248 24.1788 96.081 24.1691 95.8057L24.074 90.2989C24.0753 89.9766 24.3421 89.6922 24.6659 89.6943L30.198 89.6124C30.3509 89.5989 30.5107 89.6615 30.6302 89.789C30.7553 89.893 30.8165 90.0564 30.8068 90.203L30.9019 95.7098C30.9005 96.0321 30.6337 96.3164 30.3099 96.3144L24.7778 96.3963C24.725 96.4086 24.6778 96.3974 24.6305 96.3863Z" fill="#D8DEEB"/>
<path d="M33.1091 92.3623C32.8492 92.3008 32.6574 92.057 32.6477 91.7817C32.649 91.4594 32.9158 91.175 33.2396 91.1771L47.3291 90.984C47.6529 90.9861 47.9391 91.2523 47.9378 91.5746C47.9364 91.8968 47.6697 92.1812 47.3459 92.1791L33.2564 92.3723C33.2091 92.3611 33.1563 92.3735 33.1091 92.3623Z" fill="#C4CDDF"/>
<path d="M33.1521 94.1839C32.8922 94.1225 32.7004 93.8786 32.6907 93.6033C32.692 93.281 32.9588 92.9967 33.2826 92.9988L45.5947 92.8321C45.9185 92.8342 46.2048 93.1004 46.2034 93.4227C46.2021 93.745 45.9353 94.0293 45.6115 94.0273L33.2994 94.1939C33.2466 94.2062 33.1993 94.1951 33.1521 94.1839Z" fill="#C4CDDF"/>
</g>
<g clip-path="url(#clip0_51453_8352)">
<path d="M63.9826 98.258C60.259 98.2176 57.1078 95.2436 56.8086 91.4874L56.1282 82.9545C55.9661 80.9191 56.6328 78.9252 57.9569 77.4837C58.5756 76.8038 59.3292 76.2614 60.1694 75.8914C61.0095 75.5214 61.9174 75.332 62.8349 75.3353L129.213 75.213C131.291 75.213 133.107 76.0463 134.338 77.5599C135.599 79.1083 136.074 81.2138 135.644 83.3366L133.827 92.2905C133.071 96.0104 129.462 98.9246 125.609 98.9246L63.9826 98.258Z" fill="#FFA438"/>
<path d="M129.216 76.9481L62.838 77.0704C59.8274 77.076 57.6006 79.6961 57.8488 82.8164L58.5292 91.3493C58.7571 94.2098 61.2009 96.4953 64.0015 96.5255L125.545 97.1905C128.585 97.2232 131.528 94.9326 132.135 91.9437L133.952 82.9944C134.617 79.7186 132.505 76.9445 129.216 76.9481Z" fill="white"/>
<path d="M78.2497 83.0993L75.1861 92.4951H75.1739C75.0292 92.9555 74.6673 93.2819 74.2693 93.3791H74.2575C74.2453 93.3791 74.2213 93.3908 74.2091 93.3908H74.1852C74.1729 93.3908 74.1607 93.4031 74.149 93.4031H73.858C73.8457 93.4031 73.8335 93.3908 73.8218 93.3908H73.7973C73.7856 93.3908 73.7611 93.3791 73.7494 93.3791H73.7372C73.3391 93.2819 72.9773 92.955 72.8198 92.4951L70.8897 86.5757L68.9652 92.4951C68.8204 92.9555 68.4586 93.2819 68.0605 93.3791H68.0478C68.0238 93.3791 68.0116 93.3908 67.9999 93.3908H67.9754C67.9637 93.3908 67.9514 93.4031 67.9392 93.4031H67.6497C67.638 93.4031 67.6258 93.3908 67.6135 93.3908H67.5891C67.5651 93.3908 67.5529 93.3791 67.5412 93.3791H67.5289C67.1212 93.2819 66.769 92.955 66.6115 92.4951L63.5484 83.1019V83.0773C63.5009 82.9329 63.4765 82.7818 63.4761 82.6297C63.4761 82.0727 63.8017 81.5519 64.3078 81.3708C64.4276 81.3271 64.5545 81.3064 64.6819 81.31C65.2003 81.31 65.6952 81.6732 65.8639 82.242C65.8761 82.2665 66.9255 85.4744 67.7934 88.1374C68.6599 85.4744 69.7113 82.2665 69.7113 82.242C69.7676 82.055 69.8636 81.8824 69.9926 81.7362C70.1217 81.5899 70.2808 81.4735 70.459 81.3949L70.4712 81.3826C70.4835 81.3826 70.4952 81.3708 70.5074 81.3708H70.5196C70.5314 81.3708 70.5314 81.3586 70.5436 81.3586H70.5676C70.5723 81.3539 70.578 81.3504 70.5843 81.3483C70.5905 81.3462 70.5972 81.3455 70.6037 81.3463L70.616 81.334C70.6399 81.334 70.6522 81.334 70.6669 81.3223H70.6787C70.7031 81.3223 70.7148 81.3223 70.7296 81.31H70.802C70.826 81.31 70.8382 81.31 70.8499 81.2977H70.9529C70.9576 81.3023 70.9633 81.3058 70.9696 81.3079C70.9758 81.3101 70.9825 81.3108 70.989 81.31H71.0614C71.08 81.3199 71.1011 81.3242 71.1221 81.3223C71.1376 81.331 71.1553 81.3351 71.173 81.334C71.1848 81.334 71.1848 81.334 71.1848 81.3463C71.2087 81.3463 71.2209 81.3463 71.2357 81.3586H71.2597C71.2663 81.3652 71.2749 81.3695 71.2841 81.3708H71.2959C71.3081 81.3708 71.3198 81.3826 71.332 81.3826L71.3443 81.3949C71.5225 81.4735 71.6816 81.5899 71.8106 81.7362C71.9397 81.8824 72.0357 82.055 72.092 82.242C72.092 82.2665 73.1414 85.4744 74.0098 88.1374C74.8763 85.4744 75.9272 82.2665 75.9272 82.242C76.1081 81.6732 76.603 81.31 77.1213 81.31C77.2487 81.3064 77.3757 81.3271 77.4954 81.3708C78.002 81.5519 78.3272 82.0727 78.3272 82.6297C78.3267 82.7818 78.3025 82.9328 78.2553 83.0773L78.2497 83.0993Z" fill="#B6C2DA"/>
<path d="M93.7008 83.0993L90.6372 92.4951H90.6259C90.4812 92.9555 90.1193 93.2819 89.7218 93.3791H89.7085C89.6963 93.3791 89.6724 93.3908 89.6576 93.3908H89.6336C89.6214 93.3908 89.6097 93.4031 89.5974 93.4031H89.3079C89.2957 93.4031 89.284 93.3908 89.2718 93.3908H89.2498C89.2376 93.3908 89.2137 93.3791 89.1989 93.3791H89.1866C88.7886 93.2819 88.4267 92.955 88.2693 92.4951L86.3448 86.5731L84.4136 92.4951C84.2689 92.9555 83.907 93.2819 83.509 93.3791H83.4973C83.4728 93.3791 83.4611 93.3908 83.4463 93.3908H83.4223C83.4101 93.3908 83.3979 93.4031 83.3861 93.4031H83.0967C83.0844 93.4031 83.0722 93.3908 83.0605 93.3908H83.036C83.012 93.3908 82.9998 93.3791 82.9881 93.3791H82.981C82.5732 93.2819 82.2211 92.955 82.0636 92.4951L79.0005 83.1019V83.0773C78.953 82.9329 78.9285 82.7818 78.9281 82.6297C78.9281 82.0727 79.2538 81.5519 79.7604 81.3708C79.88 81.327 80.0067 81.3064 80.134 81.31C80.6528 81.31 81.1472 81.6732 81.3159 82.242C81.3281 82.2665 82.3775 85.4744 83.246 88.1374C84.1124 85.4744 85.1633 82.2665 85.1633 82.242C85.2197 82.055 85.3157 81.8825 85.4447 81.7362C85.5738 81.59 85.7329 81.4736 85.911 81.3949L85.9233 81.3826C85.9355 81.3826 85.9477 81.3708 85.9594 81.3708H85.9717C85.9839 81.3708 85.9839 81.3586 85.9956 81.3586H86.0201C86.0247 81.3539 86.0303 81.3504 86.0365 81.3483C86.0427 81.3461 86.0493 81.3455 86.0558 81.3463L86.068 81.334C86.0925 81.334 86.1042 81.334 86.119 81.3223H86.1312C86.1552 81.3223 86.1669 81.3223 86.1791 81.31H86.2515C86.2754 81.31 86.2877 81.31 86.3025 81.2977H86.411C86.4157 81.3024 86.4214 81.3059 86.4277 81.3081C86.434 81.3102 86.4406 81.3108 86.4472 81.31H86.5196C86.538 81.3199 86.5589 81.3241 86.5797 81.3223C86.5952 81.331 86.6129 81.3351 86.6307 81.334C86.6424 81.334 86.6424 81.334 86.6424 81.3463C86.6669 81.3463 86.6786 81.3463 86.6908 81.3586H86.7148C86.7214 81.3652 86.73 81.3695 86.7392 81.3708H86.751C86.7632 81.3708 86.7754 81.3826 86.7871 81.3826L86.7994 81.3949C86.9776 81.4734 87.1368 81.5898 87.2658 81.7361C87.3949 81.8823 87.4909 82.0549 87.5471 82.242C87.5471 82.2665 88.5965 85.4744 89.4649 88.1374C90.3314 85.4744 91.3828 82.2665 91.3828 82.242C91.5637 81.6732 92.0581 81.31 92.5764 81.31C92.7038 81.3064 92.8308 81.3271 92.9505 81.3708C93.4571 81.5519 93.7828 82.0727 93.7828 82.6297C93.7821 82.7818 93.7577 82.9328 93.7104 83.0773L93.7008 83.0993Z" fill="#B6C2DA"/>
<path d="M109.152 83.0993L106.088 92.4951H106.076C105.932 92.9555 105.57 93.2819 105.172 93.3791H105.16C105.147 93.3791 105.123 93.3908 105.109 93.3908H105.085C105.072 93.3908 105.061 93.4031 105.048 93.4031H104.759C104.747 93.4031 104.735 93.3908 104.723 93.3908H104.699C104.687 93.3908 104.663 93.3791 104.648 93.3791H104.642C104.244 93.2819 103.882 92.955 103.724 92.4951L101.795 86.5757L99.8646 92.4951C99.7199 92.9555 99.358 93.2819 98.9605 93.3791H98.9483C98.9238 93.3791 98.9121 93.3908 98.8973 93.3908H98.8733C98.8611 93.3908 98.8494 93.4031 98.8371 93.4031H98.5477C98.5354 93.4031 98.5237 93.3908 98.5115 93.3908H98.4875C98.463 93.3908 98.4513 93.3791 98.4365 93.3791H98.4243C98.0166 93.2819 97.6644 92.955 97.5069 92.4951L94.4484 83.0993V83.0748C94.4009 82.9303 94.3765 82.7793 94.376 82.6272C94.376 82.0701 94.7017 81.5494 95.2083 81.3683C95.3279 81.3245 95.4547 81.3038 95.5819 81.3074C96.1007 81.3074 96.5951 81.6706 96.7643 82.2394C96.7761 82.264 97.8255 85.4718 98.6939 88.1348C99.5604 85.4718 100.611 82.264 100.611 82.2394C100.668 82.0524 100.764 81.8798 100.893 81.7336C101.022 81.5873 101.181 81.4709 101.359 81.3923L101.371 81.38C101.383 81.38 101.396 81.3683 101.407 81.3683H101.42C101.432 81.3683 101.432 81.356 101.444 81.356H101.468C101.473 81.3513 101.478 81.3478 101.485 81.3457C101.491 81.3435 101.498 81.3429 101.504 81.3437L101.516 81.3315C101.54 81.3315 101.552 81.3315 101.567 81.3197H101.579C101.603 81.3197 101.615 81.3197 101.627 81.3074H101.699C101.724 81.3074 101.736 81.3074 101.75 81.2951H101.859C101.864 81.2998 101.869 81.3033 101.876 81.3054C101.882 81.3076 101.889 81.3082 101.895 81.3074H101.968C101.986 81.3173 102.007 81.3216 102.028 81.3197C102.042 81.3279 102.059 81.332 102.076 81.3315C102.088 81.3315 102.088 81.3315 102.088 81.3437C102.112 81.3437 102.124 81.3437 102.136 81.356H102.161C102.167 81.3627 102.175 81.367 102.185 81.3683H102.197C102.209 81.3683 102.221 81.38 102.233 81.38L102.245 81.3923C102.423 81.4709 102.582 81.5873 102.711 81.7335C102.84 81.8798 102.936 82.0524 102.992 82.2394C102.992 82.264 104.042 85.4718 104.91 88.1348C105.777 85.4718 106.828 82.264 106.828 82.2394C107.009 81.6706 107.503 81.3074 108.022 81.3074C108.15 81.3038 108.276 81.3245 108.396 81.3683C108.903 81.5494 109.228 82.0701 109.228 82.6272C109.228 82.7793 109.203 82.9303 109.156 83.0748L109.152 83.0993Z" fill="#B6C2DA"/>
<path d="M112.432 93.5862C112.432 93.724 112.377 93.8562 112.28 93.9537C112.183 94.0512 112.051 94.1059 111.914 94.1059C111.777 94.1059 111.645 94.0512 111.548 93.9537C111.451 93.8562 111.396 93.724 111.396 93.5862V79.206C111.396 79.0682 111.451 78.936 111.548 78.8385C111.645 78.7411 111.777 78.6863 111.914 78.6863C112.051 78.6863 112.183 78.7411 112.28 78.8385C112.377 78.936 112.432 79.0682 112.432 79.206V93.5862Z" fill="#B6C2DA"/>
<mask id="path-35-outside-1_51453_8352" maskUnits="userSpaceOnUse" x="116.432" y="80.563" width="22" height="29" fill="black">
<rect fill="white" x="116.432" y="80.563" width="22" height="29"/>
<path d="M136.154 103.824L129.663 95.8772C129.638 95.8463 129.621 95.8093 129.614 95.7699C129.607 95.7305 129.61 95.69 129.623 95.6521C129.636 95.6142 129.658 95.5802 129.688 95.5533C129.717 95.5265 129.753 95.5076 129.792 95.4986L135.525 94.1176C135.639 94.0902 135.742 94.0298 135.822 93.9437C135.902 93.8577 135.955 93.7499 135.974 93.6339C135.993 93.5178 135.978 93.3987 135.93 93.2914C135.882 93.1841 135.803 93.0934 135.704 93.0306L119.345 82.655C119.248 82.5937 119.136 82.5617 119.021 82.563C118.906 82.5643 118.794 82.5988 118.699 82.6623C118.603 82.7258 118.528 82.8157 118.482 82.9211C118.436 83.0266 118.421 83.1431 118.439 83.2568L121.84 103.868C121.86 103.989 121.916 104.101 122.002 104.188C122.087 104.276 122.197 104.335 122.317 104.358C122.437 104.381 122.561 104.366 122.673 104.315C122.784 104.265 122.877 104.181 122.94 104.076L126.113 98.7299C126.133 98.6973 126.16 98.6699 126.192 98.6502C126.225 98.6304 126.261 98.6189 126.299 98.6165C126.337 98.6141 126.375 98.6209 126.41 98.6364C126.444 98.6519 126.475 98.6755 126.498 98.7054L132.543 106.485C132.71 106.699 132.952 106.842 133.22 106.885C133.488 106.927 133.762 106.865 133.987 106.713L135.927 105.388C136.049 105.304 136.153 105.196 136.232 105.07C136.31 104.943 136.362 104.802 136.383 104.655C136.404 104.507 136.394 104.357 136.355 104.214C136.315 104.07 136.246 103.937 136.152 103.821L136.154 103.824Z"/>
</mask>
<path d="M136.154 103.824L129.663 95.8772C129.638 95.8463 129.621 95.8093 129.614 95.7699C129.607 95.7305 129.61 95.69 129.623 95.6521C129.636 95.6142 129.658 95.5802 129.688 95.5533C129.717 95.5265 129.753 95.5076 129.792 95.4986L135.525 94.1176C135.639 94.0902 135.742 94.0298 135.822 93.9437C135.902 93.8577 135.955 93.7499 135.974 93.6339C135.993 93.5178 135.978 93.3987 135.93 93.2914C135.882 93.1841 135.803 93.0934 135.704 93.0306L119.345 82.655C119.248 82.5937 119.136 82.5617 119.021 82.563C118.906 82.5643 118.794 82.5988 118.699 82.6623C118.603 82.7258 118.528 82.8157 118.482 82.9211C118.436 83.0266 118.421 83.1431 118.439 83.2568L121.84 103.868C121.86 103.989 121.916 104.101 122.002 104.188C122.087 104.276 122.197 104.335 122.317 104.358C122.437 104.381 122.561 104.366 122.673 104.315C122.784 104.265 122.877 104.181 122.94 104.076L126.113 98.7299C126.133 98.6973 126.16 98.6699 126.192 98.6502C126.225 98.6304 126.261 98.6189 126.299 98.6165C126.337 98.6141 126.375 98.6209 126.41 98.6364C126.444 98.6519 126.475 98.6755 126.498 98.7054L132.543 106.485C132.71 106.699 132.952 106.842 133.22 106.885C133.488 106.927 133.762 106.865 133.987 106.713L135.927 105.388C136.049 105.304 136.153 105.196 136.232 105.07C136.31 104.943 136.362 104.802 136.383 104.655C136.404 104.507 136.394 104.357 136.355 104.214C136.315 104.07 136.246 103.937 136.152 103.821L136.154 103.824Z" fill="#C4CDDF"/>
<path d="M136.154 103.824L134.605 105.089L137.895 102.839L136.154 103.824ZM129.663 95.8772L128.114 97.1416L128.114 97.1423L129.663 95.8772ZM129.792 95.4986L130.246 97.4464L130.253 97.4447L130.26 97.443L129.792 95.4986ZM135.525 94.1176L135.058 92.1729L135.056 92.1732L135.525 94.1176ZM135.704 93.0306L134.633 94.7195L134.634 94.72L135.704 93.0306ZM119.345 82.655L120.417 80.9661L120.414 80.9645L119.345 82.655ZM118.439 83.2568L116.465 83.5748L116.466 83.5823L118.439 83.2568ZM121.84 103.868L123.813 103.543L123.813 103.542L121.84 103.868ZM122.94 104.076L121.22 103.055L121.219 103.056L122.94 104.076ZM126.113 98.7299L124.4 97.6978L124.393 97.709L126.113 98.7299ZM126.498 98.7054L128.078 97.4783L128.073 97.4719L128.068 97.4657L126.498 98.7054ZM132.543 106.485L130.964 107.712L130.965 107.714L132.543 106.485ZM133.987 106.713L135.112 108.367L135.115 108.365L133.987 106.713ZM135.927 105.388L137.054 107.04L137.058 107.038L135.927 105.388ZM136.152 103.821L137.703 102.559L134.412 104.806L136.152 103.821ZM137.703 102.559L131.213 94.6121L128.114 97.1423L134.605 105.089L137.703 102.559ZM131.213 94.6128C131.402 94.8449 131.529 95.121 131.582 95.4151L127.646 96.1247C127.713 96.4976 127.874 96.8476 128.114 97.1416L131.213 94.6128ZM131.582 95.4151C131.635 95.7092 131.613 96.0118 131.517 96.2947L127.729 95.0095C127.607 95.3681 127.579 95.7519 127.646 96.1247L131.582 95.4151ZM131.517 96.2947C131.421 96.5778 131.254 96.8323 131.032 97.034L128.343 94.0727C128.062 94.3281 127.851 94.6506 127.729 95.0095L131.517 96.2947ZM131.032 97.034C130.81 97.2358 130.539 97.378 130.246 97.4464L129.338 93.5508C128.967 93.6373 128.625 93.8171 128.343 94.0727L131.032 97.034ZM130.26 97.443L135.993 96.062L135.056 92.1732L129.324 93.5542L130.26 97.443ZM135.992 96.0623C136.49 95.9428 136.94 95.6788 137.288 95.3044L134.356 92.583C134.544 92.3807 134.788 92.2377 135.058 92.1729L135.992 96.0623ZM137.288 95.3044C137.635 94.9302 137.864 94.4622 137.947 93.9596L134.001 93.3081C134.045 93.0375 134.169 92.7852 134.356 92.583L137.288 95.3044ZM137.947 93.9596C138.03 93.457 137.964 92.9408 137.756 92.4753L134.104 94.1076C133.992 93.8567 133.956 93.5787 134.001 93.3081L137.947 93.9596ZM137.756 92.4753C137.547 92.0097 137.207 91.615 136.775 91.3413L134.634 94.72C134.4 94.5718 134.216 94.3585 134.104 94.1076L137.756 92.4753ZM136.775 91.3417L120.417 80.9661L118.274 84.344L134.633 94.7195L136.775 91.3417ZM120.414 80.9645C119.991 80.6971 119.5 80.5575 118.999 80.5632L119.044 84.5629C118.772 84.566 118.506 84.4902 118.277 84.3456L120.414 80.9645ZM118.999 80.5632C118.497 80.5688 118.009 80.7194 117.592 80.9962L119.805 84.3284C119.58 84.4781 119.315 84.5598 119.044 84.5629L118.999 80.5632ZM117.592 80.9962C117.176 81.2729 116.848 81.6637 116.649 82.1209L120.315 83.7214C120.207 83.9678 120.031 84.1788 119.805 84.3284L117.592 80.9962ZM116.649 82.1209C116.449 82.578 116.385 83.0828 116.465 83.5748L120.414 82.9387C120.456 83.2035 120.422 83.4752 120.315 83.7214L116.649 82.1209ZM116.466 83.5823L119.867 104.193L123.813 103.542L120.413 82.9312L116.466 83.5823ZM119.867 104.193C119.953 104.717 120.198 105.203 120.569 105.584L123.434 102.793C123.635 102.999 123.767 103.261 123.813 103.543L119.867 104.193ZM120.569 105.584C120.941 105.965 121.421 106.224 121.946 106.323L122.689 102.393C122.973 102.446 123.233 102.586 123.434 102.793L120.569 105.584ZM121.946 106.323C122.47 106.422 123.012 106.357 123.498 106.137L121.847 102.493C122.111 102.374 122.405 102.339 122.689 102.393L121.946 106.323ZM123.498 106.137C123.984 105.917 124.389 105.553 124.66 105.095L121.219 103.056C121.365 102.81 121.584 102.613 121.847 102.493L123.498 106.137ZM124.66 105.097L127.833 99.7507L124.393 97.709L121.22 103.055L124.66 105.097ZM127.826 99.7619C127.679 100.005 127.476 100.21 127.232 100.359L125.152 96.9417C124.844 97.1297 124.586 97.3893 124.4 97.6978L127.826 99.7619ZM127.232 100.359C126.988 100.507 126.712 100.594 126.426 100.612L126.172 96.6205C125.811 96.6435 125.461 96.7538 125.152 96.9417L127.232 100.359ZM126.426 100.612C126.14 100.631 125.855 100.579 125.594 100.463L127.225 96.8102C126.895 96.6628 126.534 96.5975 126.172 96.6205L126.426 100.612ZM125.594 100.463C125.333 100.346 125.105 100.168 124.929 99.9451L128.068 97.4657C127.844 97.1827 127.555 96.9576 127.225 96.8102L125.594 100.463ZM124.919 99.9325L130.964 107.712L134.122 105.258L128.078 97.4783L124.919 99.9325ZM130.965 107.714C131.443 108.328 132.138 108.739 132.909 108.86L133.532 104.909C133.767 104.946 133.977 105.071 134.121 105.256L130.965 107.714ZM132.909 108.86C133.68 108.982 134.467 108.805 135.112 108.367L132.862 105.059C133.058 104.926 133.297 104.872 133.532 104.909L132.909 108.86ZM135.115 108.365L137.054 107.04L134.799 103.737L132.859 105.061L135.115 108.365ZM137.058 107.038C137.409 106.797 137.706 106.486 137.931 106.125L134.533 104.014C134.6 103.906 134.69 103.812 134.796 103.739L137.058 107.038ZM137.931 106.125C138.155 105.763 138.302 105.36 138.362 104.939L134.403 104.37C134.421 104.244 134.465 104.123 134.533 104.014L137.931 106.125ZM138.362 104.939C138.423 104.519 138.396 104.09 138.282 103.68L134.427 104.747C134.393 104.624 134.385 104.496 134.403 104.37L138.362 104.939ZM138.282 103.68C138.169 103.271 137.972 102.889 137.703 102.559L134.601 105.084C134.52 104.984 134.461 104.87 134.427 104.747L138.282 103.68ZM134.412 104.806L134.413 104.809L137.895 102.839L137.893 102.836L134.412 104.806Z" fill="white" mask="url(#path-35-outside-1_51453_8352)"/>
</g>
<defs>
<clipPath id="clip0_51453_8352">
<rect width="84" height="34" fill="white" transform="translate(56.1042 75.2156)"/>
</clipPath>
</defs>
</svg>
