<svg width="120" height="120" viewBox="0 0 120 120" fill="none" xmlns="http://www.w3.org/2000/svg">
<circle cx="59.9108" cy="59.9108" r="53.9108" fill="#FFF8DF"/>
<path d="M9.9832 49.0367L11.9821 85.2914C12.0605 86.5848 13.1187 87.6039 14.4122 87.6039L79.6707 88.035C81.0425 88.035 82.14 86.9376 82.14 85.605L82.3359 57.3851C82.3359 56.0132 81.2385 54.9158 79.9059 54.9158H39.7709C39.1046 54.9158 38.5167 54.6414 38.0463 54.2103L31.0697 47.2729C30.5994 46.8026 30.0115 46.5674 29.3452 46.5674L12.4524 46.4498C11.0414 46.4498 9.90481 47.6257 9.9832 49.0367Z" fill="#CD8C5D"/>
<path d="M9.9832 49.0367L11.9821 85.2914C12.0605 86.5848 13.1187 87.6039 14.4122 87.6039L79.6707 88.035C81.0425 88.035 82.14 86.9376 82.14 85.605L82.3359 57.3851C82.3359 56.0132 81.2385 54.9158 79.9059 54.9158H39.7709C39.1046 54.9158 38.5167 54.6414 38.0463 54.2103L31.0697 47.2729C30.5994 46.8026 30.0115 46.5674 29.3452 46.5674L12.4524 46.4498C11.0414 46.4498 9.90481 47.6257 9.9832 49.0367Z" fill="#CB8A5A"/>
<path d="M19.3114 89.6812C18.5275 83.7629 16.1366 61.4613 15.4311 54.8767C15.3136 53.8968 16.0974 53.0345 17.0773 53.0345L81.0425 52.525C82.0615 52.525 82.8454 53.3873 82.7278 54.4063L78.1421 91.053C78.0245 91.9153 77.2798 92.5424 76.4175 92.5424L20.9183 91.1314C20.0953 91.0922 19.429 90.5043 19.3114 89.6812Z" fill="#FAFCFD"/>
<path d="M92.9387 30.199L48.6326 16.2382L42.2115 20.4806L24.1676 78.2152L73.1193 93.6509L92.9387 30.199Z" fill="#FAE5A1"/>
<path d="M91.264 29.1201L46.1361 18.1016L40.0077 22.7568L25.7976 81.5526L75.658 93.7374L91.264 29.1201Z" fill="white"/>
<path d="M51.7365 30.7097L44.7694 29.1059L43.1899 36.0453L50.1571 37.6491L51.7365 30.7097Z" fill="#FAE5A1"/>
<path d="M51.3782 32.2613L44.1076 32.0088L44.746 29.1106L51.7543 30.7011L51.3782 32.2613Z" fill="#FAE5A1"/>
<path d="M42.8103 36.7431C42.5032 36.5859 42.3378 36.2207 42.4105 35.8723L43.9901 28.9338C44.0913 28.5299 44.5137 28.2554 44.9193 28.3579L51.8855 29.9619C52.0815 29.9922 52.2627 30.12 52.3733 30.3169C52.4982 30.486 52.5245 30.7098 52.4671 30.8907L50.8874 37.8293C50.7863 38.2332 50.3638 38.5077 49.9582 38.4052L42.992 36.8011C42.9219 36.8003 42.8661 36.7717 42.8103 36.7431Z" fill="#FAE5A1"/>
<path d="M58.0021 33.563C57.695 33.4057 57.5296 33.0406 57.6023 32.6922C57.7034 32.2883 58.1259 32.0138 58.5315 32.1163L76.2686 36.2209C76.6742 36.3234 76.9512 36.7458 76.8501 37.1497C76.749 37.5536 76.3265 37.8281 75.9209 37.7256L58.1838 33.621C58.1138 33.6202 58.0579 33.5916 58.0021 33.563Z" fill="#D8DEEB"/>
<path d="M57.4517 35.8754C57.1446 35.7182 56.9792 35.353 57.0519 35.0046C57.1531 34.6007 57.5755 34.3262 57.9811 34.4287L73.4801 38.0183C73.8857 38.1208 74.1627 38.5431 74.0616 38.9471C73.9605 39.351 73.538 39.6255 73.1324 39.5229L57.6335 35.9334C57.5776 35.9048 57.5076 35.904 57.4517 35.8754Z" fill="#D8DEEB"/>
<path d="M74.7377 47.882L41.4128 39.8537L40.7092 42.761L74.0341 50.7893L74.7377 47.882Z" fill="#C4CDDF"/>
<path d="M73.117 53.1278L40.212 45.193L39.9966 46.083L72.9017 54.0177L73.117 53.1278Z" fill="#E7EEF6"/>
<path d="M72.4803 56.6576L39.5753 48.7228L39.3599 49.6128L72.2649 57.5476L72.4803 56.6576Z" fill="#E7EEF6"/>
<path d="M71.4265 60.3819L38.5215 52.4471L38.3061 53.3371L71.2111 61.2719L71.4265 60.3819Z" fill="#E7EEF6"/>
<path d="M56.5127 61.6003L37.2708 56.8961L37.0554 57.7861L56.2973 62.4903L56.5127 61.6003Z" fill="#E7EEF6"/>
<path d="M41.1776 62.608L36.6354 61.5625L35.6057 66.0865L40.1479 67.1321L41.1776 62.608Z" fill="#E8B974"/>
<path d="M35.3768 66.5467C35.1766 66.4442 35.0687 66.2061 35.1161 65.979L36.146 61.4555C36.2119 61.1922 36.4873 61.0132 36.7517 61.0801L41.2933 62.1258C41.421 62.1455 41.5391 62.2288 41.6113 62.3572C41.6927 62.4674 41.7098 62.6133 41.6724 62.7313L40.6425 67.2548C40.5766 67.5181 40.3012 67.6971 40.0368 67.6302L35.4953 66.5845C35.4589 66.5659 35.4132 66.5653 35.3768 66.5467Z" fill="#E8B974"/>
<path d="M42.2791 64.7331C42.0789 64.6306 41.9711 64.3925 42.0185 64.1654C42.0844 63.902 42.3598 63.7231 42.6243 63.7899L54.1877 66.4659C54.4522 66.5327 54.6328 66.808 54.5669 67.0714C54.5009 67.3347 54.2255 67.5137 53.9611 67.4468L42.3976 64.7709C42.352 64.7704 42.3155 64.7517 42.2791 64.7331Z" fill="#E8DAC4"/>
<path d="M41.9489 66.232C41.7487 66.1295 41.6408 65.8914 41.6882 65.6643C41.7542 65.401 42.0296 65.222 42.294 65.2889L52.3983 67.629C52.6628 67.6958 52.8434 67.9712 52.7775 68.2345C52.7115 68.4979 52.4361 68.6768 52.1717 68.61L42.0674 66.2698C42.0217 66.2693 41.9853 66.2507 41.9489 66.232Z" fill="#E8DAC4"/>
<path d="M39.065 71.2611L34.5229 70.2155L33.4932 74.7396L38.0353 75.7851L39.065 71.2611Z" fill="#FCF3E2"/>
<path d="M33.2664 75.2015C33.0662 75.099 32.9584 74.8609 33.0058 74.6338L34.0356 70.1103C34.1016 69.8469 34.377 69.668 34.6414 69.7348L39.1829 70.7805C39.3107 70.8002 39.4288 70.8836 39.5009 71.0119C39.5823 71.1222 39.5995 71.2681 39.562 71.3861L38.5322 75.9095C38.4663 76.1729 38.1909 76.3518 37.9264 76.285L33.3849 75.2393C33.3392 75.2387 33.3028 75.2201 33.2664 75.2015Z" fill="#BAAC9B"/>
<path d="M40.1582 73.4057C39.958 73.3032 39.8502 73.0651 39.8976 72.838C39.9635 72.5746 40.2389 72.3957 40.5034 72.4625L52.0668 75.1385C52.3313 75.2053 52.5119 75.4806 52.446 75.744C52.38 76.0073 52.1046 76.1863 51.8402 76.1194L40.2767 73.4435C40.2403 73.4249 40.1946 73.4243 40.1582 73.4057Z" fill="#E8DAC4"/>
<path d="M39.8269 74.9043C39.6267 74.8018 39.5188 74.5637 39.5662 74.3366C39.6322 74.0732 39.9076 73.8943 40.172 73.9611L50.2763 76.3013C50.5408 76.3681 50.7214 76.6435 50.6555 76.9068C50.5895 77.1701 50.3141 77.3491 50.0497 77.2822L39.9453 74.9421C39.8997 74.9416 39.8633 74.9229 39.8269 74.9043Z" fill="#E8DAC4"/>
<g style="mix-blend-mode:multiply">
<path d="M46.0574 18.1062L39.929 22.7615L36.6005 36.5295C47.8768 27.6083 62.8764 25.2788 75.9481 25.4132L46.0574 18.1062Z" fill="#F3F6F8"/>
</g>
<path d="M39.9291 22.7616L46.3394 23.1187L46.0575 18.1063L39.9291 22.7616Z" fill="#D8DEEB"/>
<path d="M16.3158 55.083C15.1667 55.0894 14.2592 56.0605 14.3307 57.2075L16.6947 95.1183C16.7329 95.7322 17.0516 96.2943 17.5587 96.6425L22.4429 99.9964C22.7791 100.227 23.1779 100.35 23.5857 100.348L80.9295 100.04C82.0786 100.034 82.9861 99.0632 82.9149 97.9163L80.3492 56.6176C80.2835 55.559 79.4027 54.7358 78.3421 54.7416L16.3158 55.083Z" fill="#8798A7" fill-opacity="0.4"/>
<path d="M15.4313 92.3072C14.6866 86.5457 12.2173 63.7737 11.5118 57.3067C11.3942 56.366 12.1389 55.5821 13.0796 55.5821L77.2015 55.8565C78.1422 55.8565 78.8477 56.6796 78.7301 57.6202L74.2228 93.7182C74.1052 94.5021 73.4389 95.09 72.655 95.09L16.9206 93.679C16.1759 93.6006 15.5096 93.0519 15.4313 92.3072Z" fill="#FAFCFD"/>
<path d="M85.2362 59.8543L26.9934 60.207L26.5623 58.7176C26.3663 58.0513 25.7392 57.581 24.9945 57.581L6.65158 57.5026C5.71091 57.5026 4.92702 58.2865 5.00541 59.2272L5.20138 61.2261L5.27977 62.01L11.0021 103.478C11.1197 104.222 11.786 104.771 12.5699 104.771L82.0615 104.34C82.8846 104.34 83.5509 103.752 83.6293 102.968L86.8432 61.4221C86.8824 60.5598 86.1769 59.8543 85.2362 59.8543Z" fill="#E5AB65"/>
<path fill-rule="evenodd" clip-rule="evenodd" d="M83.9172 99.2432H83.9175L83.6293 102.968C83.5608 103.653 83.043 104.189 82.364 104.313C82.3147 104.322 82.2646 104.329 82.2137 104.333C82.1637 104.338 82.1129 104.34 82.0615 104.34L82.0539 104.34L77.5964 104.378L77.5973 104.368L12.57 104.771C11.7861 104.771 11.1198 104.222 11.0022 103.478L10.4178 99.2432H78.0317L81.3677 59.8876L85.236 59.8543C86.1767 59.8543 86.8822 60.5598 86.843 61.4221L83.9172 99.2432Z" fill="#CB8A5A"/>
<mask id="mask0_51453_8216" style="mask-type:alpha" maskUnits="userSpaceOnUse" x="80" y="23" width="9" height="12">
<path d="M81.1584 33.5715C80.9374 33.2083 80.7957 32.8136 80.7331 32.3875C80.6706 31.9613 80.6892 31.5433 80.789 31.1335L82.1462 25.6633C82.1952 25.4657 82.394 25.3442 82.5923 25.3907L82.6738 25.4099C82.8756 25.4572 82.9997 25.6604 82.9498 25.8616L81.5949 31.3227C81.4313 31.957 81.5243 32.5615 81.8739 33.1361C82.1675 33.6185 82.5693 33.9218 83.0794 34.0459C83.5895 34.17 84.0857 34.0853 84.5681 33.7917C85.121 33.4553 85.4852 32.9551 85.6606 32.2913L87.2495 25.8761C87.3747 25.3616 87.3152 24.9039 87.0711 24.5027C86.8831 24.1938 86.6286 24.0014 86.3076 23.9256C85.9867 23.8498 85.6717 23.9059 85.3628 24.0939C84.9562 24.3413 84.6904 24.7222 84.5652 25.2367L83.3405 30.1267C83.2347 30.5996 83.251 30.9499 83.3895 31.1776C83.4588 31.2914 83.5566 31.3545 83.6829 31.3667C83.8092 31.379 83.932 31.3488 84.0513 31.2763C84.3114 31.1179 84.4786 30.8677 84.5526 30.5255L85.5649 26.4702C85.6145 26.2716 85.8151 26.1504 86.0139 26.1988L86.0892 26.2171C86.2895 26.2658 86.412 26.4681 86.3623 26.6682L85.3585 30.7147C85.2185 31.2902 84.9262 31.7132 84.4817 31.9836C84.1673 32.175 83.8353 32.2396 83.4856 32.1776C83.1359 32.1156 82.867 31.9301 82.679 31.6211C82.4217 31.1983 82.3736 30.6371 82.5346 29.9375L83.7592 25.0475C83.9375 24.3151 84.3301 23.7641 84.9372 23.3947C85.4413 23.0879 85.9642 22.9981 86.5059 23.1253C87.0475 23.2525 87.4717 23.5682 87.7785 24.0723C88.1413 24.6685 88.2336 25.3329 88.0554 26.0653L86.4665 32.4805C86.2359 33.371 85.7466 34.0439 84.9986 34.4991C84.3211 34.9114 83.6147 35.0293 82.8796 34.8527C82.1445 34.6761 81.5708 34.2491 81.1584 33.5715Z" fill="#FFA438"/>
</mask>
<g mask="url(#mask0_51453_8216)">
<path d="M86.324 27.9682L88.8373 28.5858L88.8373 23.1336L84.2583 22.5159C84.0169 23.5524 83.5809 25.7958 82.746 27.5848C81.7024 29.8211 82.0858 31.8231 82.4904 32.8241C82.8951 33.8251 84.9183 32.7602 85.11 32.5259C85.2634 32.3385 85.9832 29.4093 86.324 27.9682Z" fill="#FFA438"/>
</g>
</svg>
