<svg width="131" height="120" viewBox="0 0 131 120" fill="none" xmlns="http://www.w3.org/2000/svg">
<circle cx="59.9108" cy="59.9108" r="53.9108" fill="#FFF8DF"/>
<path d="M123.954 40.3623L79.1428 27.9336L70.5706 26.7998L47.7013 87.1146L98.8319 106.651L123.954 40.3623Z" fill="#B5C5D2" fill-opacity="0.4"/>
<path d="M109.217 107.242L130.129 40.149L83.0386 26.4617L56.3176 90.5743L109.217 107.242Z" fill="#DFEBFA"/>
<g opacity="0.7">
<path d="M96.8446 91.7109L104.148 93.9L106.309 86.6247L99.0058 84.4356L96.8446 91.7109Z" fill="#B6C2DA"/>
<path d="M97.3331 90.0846L105.053 90.8567L104.173 93.8966L96.8248 91.7189L97.3331 90.0846Z" fill="#B6C2DA"/>
<path d="M106.76 85.9081C107.076 86.0967 107.227 86.4967 107.125 86.8624L104.964 94.1367C104.828 94.5595 104.36 94.8224 103.935 94.6852L96.6332 92.496C96.4268 92.4502 96.2428 92.3016 96.1387 92.0845C96.0175 91.8959 96.005 91.6559 96.0786 91.4673L98.24 84.193C98.3756 83.7702 98.8442 83.5074 99.2687 83.6445L106.571 85.8337C106.645 85.8395 106.703 85.8738 106.76 85.9081Z" fill="#B6C2DA"/>
<path d="M95.2735 88.1183C95.5895 88.3069 95.7402 88.707 95.6387 89.0727C95.5031 89.4955 95.0346 89.7584 94.6101 89.6212L76.0193 84.0253C75.5948 83.8881 75.3292 83.4195 75.4648 82.9966C75.6004 82.5738 76.0689 82.311 76.4934 82.4481L95.0842 88.044C95.1587 88.0498 95.2161 88.0841 95.2735 88.1183Z" fill="#B6C2DA"/>
<path d="M96.0186 85.6956C96.3345 85.8842 96.4852 86.2843 96.3837 86.65C96.2482 87.0728 95.7796 87.3356 95.3551 87.1985L79.1104 82.3056C78.6859 82.1685 78.4203 81.6998 78.5559 81.277C78.6915 80.8541 79.16 80.5913 79.5845 80.7285L95.8292 85.6213C95.8867 85.6556 95.9611 85.6613 96.0186 85.6956Z" fill="#B6C2DA"/>
<path d="M73.5562 71.8443L108.463 82.6948L109.413 79.6498L74.5062 68.7992L73.5562 71.8443Z" fill="#B6C2DA"/>
<path d="M75.6437 66.3742L110.11 77.0962L110.401 76.164L75.9345 65.4421L75.6437 66.3742Z" fill="#B6C2DA"/>
<path d="M76.5654 62.662L111.032 73.3839L111.323 72.4518L76.8562 61.7298L76.5654 62.662Z" fill="#B6C2DA"/>
<path d="M77.9448 58.7718L112.411 69.4937L112.702 68.5615L78.2356 57.8396L77.9448 58.7718Z" fill="#B6C2DA"/>
<path d="M93.8997 58.5078L114.05 64.8459L114.341 63.9138L94.1905 57.5756L93.8997 58.5078Z" fill="#B6C2DA"/>
<path d="M100.121 55.3989L95.4049 53.8309L96.9774 49.1396L101.694 50.7076L100.121 55.3989Z" fill="#B6C2DA"/>
<path d="M97.0244 48.5937C96.7852 48.576 96.5549 48.733 96.4721 48.9661L94.9001 53.657C94.814 53.9334 94.9655 54.2492 95.2434 54.335L99.9595 55.9026C100.087 55.9555 100.241 55.9451 100.378 55.8683C100.513 55.813 100.609 55.6897 100.641 55.5615L102.213 50.8706C102.299 50.5942 102.147 50.2784 101.869 50.1926L97.1533 48.625C97.1098 48.6218 97.0679 48.597 97.0244 48.5937Z" fill="#B6C2DA"/>
<path d="M103.222 54.3586C103.001 54.3506 102.793 54.5168 102.724 54.7531C102.654 55.0327 102.804 55.3421 103.063 55.4166L114.28 58.9047C114.539 58.9792 114.827 58.816 114.898 58.5363C114.968 58.2567 114.818 57.9474 114.559 57.8729L103.342 54.3847C103.303 54.3616 103.262 54.3601 103.222 54.3586Z" fill="#B6C2DA"/>
<path d="M103.663 52.79C103.441 52.782 103.234 52.9481 103.165 53.1844C103.094 53.4641 103.244 53.7734 103.504 53.8479L113.306 56.8942C113.565 56.9687 113.853 56.8054 113.924 56.5258C113.994 56.2461 113.844 55.9368 113.585 55.8623L103.783 52.816C103.743 52.7929 103.703 52.7914 103.663 52.79Z" fill="#B6C2DA"/>
<path d="M102.969 46.3371L98.2527 44.769L99.8251 40.0777L104.542 41.6457L102.969 46.3371Z" fill="#B6C2DA"/>
<path d="M99.8752 39.5313C99.636 39.5136 99.4057 39.6706 99.3229 39.9037L97.7509 44.5946C97.6648 44.871 97.8163 45.1868 98.0942 45.2726L102.81 46.8402C102.938 46.8931 103.091 46.8827 103.228 46.8059C103.364 46.7506 103.46 46.6273 103.492 46.4991L105.064 41.8082C105.15 41.5318 104.998 41.216 104.72 41.1302L100.004 39.5626C99.9622 39.5378 99.9187 39.5345 99.8752 39.5313Z" fill="#B6C2DA"/>
<path d="M106.196 45.3766C105.977 45.3724 105.775 45.5421 105.711 45.7796C105.646 46.0604 105.799 46.3671 106.056 46.4371L117.191 49.7324C117.448 49.8025 117.73 49.6343 117.795 49.3535C117.86 49.0727 117.706 48.766 117.449 48.696L106.315 45.4006C106.275 45.3999 106.236 45.3774 106.196 45.3766Z" fill="#B6C2DA"/>
<path d="M106.604 43.8007C106.386 43.7965 106.183 43.9662 106.119 44.2037C106.054 44.4845 106.207 44.7912 106.465 44.8612L116.195 47.739C116.452 47.809 116.734 47.6409 116.799 47.36C116.864 47.0792 116.711 46.7725 116.454 46.7025L106.723 43.8247C106.684 43.8023 106.644 43.8015 106.604 43.8007Z" fill="#B6C2DA"/>
</g>
<path d="M94.7706 29.4885L45.5249 24.1158L39.6929 29.8901L33.8468 93.0307L88.2584 98.9783L94.7706 29.4885Z" fill="#B5C5D2" fill-opacity="0.4"/>
<path fill-rule="evenodd" clip-rule="evenodd" d="M91.4481 25.877L38.1651 22.0649C38.1651 22.0649 37.8758 41.0835 37.0532 53.2368C35.9986 68.8178 32.7222 92.9905 32.7222 92.9905L87.0711 97.4778C87.0711 97.4778 89.0115 75.7119 89.8677 61.7251C90.7255 47.7138 91.4481 25.877 91.4481 25.877Z" fill="white"/>
<path d="M60.9684 26.2305L41.7437 24.7237L40.1539 45.0061L59.3787 46.513L60.9684 26.2305Z" fill="#EEF2F4"/>
<path d="M72.6408 35.7979L63.2356 35.0608L63.1077 36.6932L72.5129 37.4303L72.6408 35.7979Z" fill="#EEF2F4"/>
<path d="M88.8334 40.8967L62.938 38.867L62.6565 42.4583L88.552 44.4879L88.8334 40.8967Z" fill="#EEF2F4"/>
<path d="M88.5827 46.7486L62.4801 44.7027L62.317 46.784L88.4196 48.8299L88.5827 46.7486Z" fill="#EEF2F4"/>
<path d="M88.275 50.6665L40.0887 46.8897L39.9256 48.971L88.1119 52.7478L88.275 50.6665Z" fill="#EEF2F4"/>
<path d="M87.367 61.7225L39.1393 57.9425L38.9762 60.0238L87.2039 63.8039L87.367 61.7225Z" fill="#EEF2F4"/>
<path d="M87.0603 65.6403L38.8326 61.8603L38.6695 63.9416L86.8972 67.7216L87.0603 65.6403Z" fill="#EEF2F4"/>
<path d="M54.3216 71.143L38.8123 69.9274L37.0629 84.4421L53.1802 85.7054L54.3216 71.143Z" fill="#EEF2F4"/>
<path d="M65.0942 71.9874L55.689 71.2502L54.5569 85.6942L63.9621 86.4313L65.0942 71.9874Z" fill="#EEF2F4"/>
<path d="M73.789 72.6689L68.3716 72.2443C67.2704 72.158 66.3077 72.9807 66.2214 74.0819L65.4019 84.5381C65.3156 85.6393 66.1383 86.6019 67.2395 86.6883L72.6569 87.1129C73.7581 87.1992 74.7208 86.3765 74.8071 85.2753L75.6266 74.8191C75.7129 73.7179 74.8902 72.7552 73.789 72.6689Z" fill="#EEF2F4"/>
<path d="M84.4792 73.5066L79.0618 73.082C77.9606 72.9957 76.9979 73.8184 76.9116 74.9196L76.0921 85.3758C76.0057 86.477 76.8285 87.4397 77.9297 87.526L83.3471 87.9506C84.4483 88.0369 85.411 87.2142 85.4973 86.113L86.3168 75.6568C86.4031 74.5556 85.5804 73.5929 84.4792 73.5066Z" fill="#EEF2F4"/>
<path d="M55.2485 21.364L52.3158 20.4429L4.34543 42.4019L27.0568 102.143L75.0753 90.0776L55.2485 21.364Z" fill="#B5C5D2" fill-opacity="0.4"/>
<path d="M53.2486 20.364L5.58478 33.8612L2.34549 41.4018L20.0656 103.425L72.7335 88.5225L53.2486 20.364Z" fill="#FFBF83"/>
<path d="M17.4072 42.616L10.0997 44.7901L12.2818 52.0591L19.5894 49.8851L17.4072 42.616Z" fill="#FFA438"/>
<path d="M17.8905 44.244L11.0117 47.8314L10.0806 44.8066L17.4193 42.5986L17.8905 44.244Z" fill="#FFA438"/>
<path d="M12.2972 52.906C11.9297 52.9215 11.5842 52.6696 11.4686 52.3081L9.28714 45.0398C9.16865 44.6119 9.41635 44.1352 9.84657 44.0171L17.1533 41.8437C17.351 41.7688 17.5864 41.7921 17.7925 41.9167C17.9972 42.0079 18.1393 42.2018 18.1811 42.3998L20.3626 49.6681C20.481 50.0961 20.2333 50.5728 19.8031 50.6909L12.4963 52.8643C12.4309 52.9003 12.3641 52.9031 12.2972 52.906Z" fill="#FFA438"/>
<path d="M20.6913 44.7587C20.3237 44.7742 19.9783 44.5223 19.8626 44.1609C19.7441 43.7329 19.9918 43.2562 20.422 43.1381L39.037 37.6234C39.4672 37.5053 39.9463 37.7515 40.0648 38.1795C40.1833 38.6074 39.9356 39.0842 39.5053 39.2022L20.8904 44.717C20.8249 44.7531 20.7581 44.7559 20.6913 44.7587Z" fill="#FFA438"/>
<path d="M21.3967 47.1934C21.0291 47.2089 20.6837 46.957 20.568 46.5955C20.4496 46.1676 20.6973 45.6909 21.1275 45.5728L37.395 40.7566C37.8253 40.6385 38.3043 40.8847 38.4228 41.3127C38.5413 41.7406 38.2936 42.2174 37.8634 42.3354L21.5958 47.1517C21.529 47.1545 21.4636 47.1905 21.3967 47.1934Z" fill="#FFA438"/>
<path d="M47.7755 46.4594L12.6349 56.5269L13.5102 59.5943L48.6509 49.5267L47.7755 46.4594Z" fill="#FFA438"/>
<path d="M49.0293 52.1783L14.3275 62.112L14.5954 63.051L49.2973 53.1173L49.0293 52.1783Z" fill="#FFA438"/>
<path d="M50.2941 55.7882L15.5922 65.7218L15.8602 66.6608L50.5621 56.7271L50.2941 55.7882Z" fill="#FFA438"/>
<path d="M51.274 59.7977L16.5721 69.7314L16.8401 70.6704L51.5419 60.7367L51.274 59.7977Z" fill="#FFA438"/>
<path d="M38.0764 68.7674L17.75 74.5168L18.018 75.4558L38.3444 69.7064L38.0764 68.7674Z" fill="#FFA438"/>
<path d="M24.3778 77.763L19.6138 79.1804L21.0364 83.9193L25.8004 82.5019L24.3778 77.763Z" fill="#FFA438"/>
<path d="M21.0662 84.4663C20.8265 84.4764 20.6014 84.3122 20.5259 84.0765L19.1038 79.3381C19.0265 79.0591 19.188 78.7483 19.4685 78.6713L24.232 77.2544C24.3609 77.2055 24.5144 77.2208 24.6487 77.3019C24.7822 77.3614 24.8748 77.4878 24.9021 77.6169L26.3242 82.3554C26.4015 82.6344 26.24 82.9452 25.9595 83.0222L21.196 84.4391C21.1524 84.4409 21.1098 84.4644 21.0662 84.4663Z" fill="#FFA438"/>
<path d="M26.5164 79.1556C26.2768 79.1658 26.0516 79.0016 25.9762 78.7659C25.8989 78.4869 26.0604 78.1761 26.3409 78.0991L38.4767 74.5038C38.7571 74.4269 39.0695 74.5874 39.1467 74.8664C39.224 75.1454 39.0625 75.4562 38.782 75.5332L26.6462 79.1285C26.6036 79.152 26.56 79.1538 26.5164 79.1556Z" fill="#FFA438"/>
<path d="M26.9974 80.7204C26.7577 80.7305 26.5326 80.5663 26.4571 80.3307C26.3799 80.0517 26.5414 79.7409 26.8219 79.6639L37.4273 76.524C37.7078 76.4471 38.0201 76.6076 38.0973 76.8866C38.1746 77.1656 38.0131 77.4764 37.7326 77.5534L27.1272 80.6932C27.0845 80.7167 27.041 80.7186 26.9974 80.7204Z" fill="#FFA438"/>
<path d="M26.9651 86.9026L22.201 88.3199L23.6236 93.0589L28.3877 91.6415L26.9651 86.9026Z" fill="#FFA438"/>
<path d="M23.656 93.6066C23.4164 93.6167 23.1912 93.4525 23.1158 93.2168L21.6936 88.4784C21.6164 88.1993 21.7779 87.8886 22.0583 87.8116L26.8219 86.3947C26.9508 86.3458 27.1042 86.361 27.2386 86.4422C27.372 86.5017 27.4647 86.6281 27.4919 86.7572L28.9141 91.4957C28.9913 91.7747 28.8299 92.0855 28.5494 92.1625L23.7858 93.5794C23.7432 93.6029 23.6996 93.6047 23.656 93.6066Z" fill="#FFA438"/>
<path d="M29.1074 88.3175C28.8677 88.3276 28.6425 88.1634 28.5671 87.9278C28.4899 87.6488 28.6513 87.338 28.9318 87.261L41.0676 83.6657C41.3481 83.5887 41.6604 83.7493 41.7377 84.0283C41.8149 84.3073 41.6534 84.6181 41.373 84.695L29.2372 88.2903C29.1936 88.2922 29.1509 88.3157 29.1074 88.3175Z" fill="#FFA438"/>
<path d="M29.5877 89.8823C29.3481 89.8924 29.1229 89.7282 29.0475 89.4926C28.9702 89.2136 29.1317 88.9028 29.4122 88.8258L40.0176 85.6859C40.2981 85.6089 40.6104 85.7695 40.6877 86.0485C40.7649 86.3275 40.6034 86.6383 40.323 86.7152L29.7175 89.8551C29.6749 89.8786 29.6313 89.8805 29.5877 89.8823Z" fill="#FFA438"/>
<g style="mix-blend-mode:multiply">
<path d="M5.5136 33.907L2.27431 41.4476L6.42285 55.972C12.1964 41.7672 24.8893 31.7215 37.0886 24.9752L5.5136 33.907Z" fill="#EAE2CD"/>
</g>
<path d="M2.27464 41.4476L8.41023 38.4095L5.51393 33.9069L2.27464 41.4476Z" fill="#FFBF83"/>
</svg>
