<svg width="24" height="25" viewBox="0 0 24 25" fill="none" xmlns="http://www.w3.org/2000/svg">
<path d="M12.1208 20.5356C16.8402 20.5356 20.6661 16.7097 20.6661 11.9903C20.6661 7.27086 16.8402 3.44501 12.1208 3.44501C7.40136 3.44501 3.5755 7.27086 3.5755 11.9903C3.5755 16.7097 7.40136 20.5356 12.1208 20.5356Z" stroke="white" stroke-width="1.5" stroke-linecap="round" stroke-linejoin="round"/>
<path d="M12.9601 13.096H7.72681C7.45066 13.096 7.22681 12.8722 7.22681 12.596V12.1749C7.22681 11.8988 7.45066 11.6749 7.72681 11.6749H12.9384C13.4302 11.6749 13.837 11.5935 14.1588 11.4308C14.4806 11.2645 14.7193 11.0367 14.8748 10.7474C15.0303 10.4545 15.108 10.1182 15.108 9.7385C15.108 9.36243 15.0303 9.02614 14.8748 8.72962C14.7193 8.4331 14.4825 8.19986 14.1642 8.02991C13.846 7.85634 13.4446 7.76955 12.9601 7.76955H11.0952C10.819 7.76955 10.5952 7.99341 10.5952 8.26955V16.9462C10.5952 17.2223 10.3713 17.4462 10.0952 17.4462H9.42455C9.14841 17.4462 8.92455 17.2223 8.92455 16.9462V6.83759C8.92455 6.56144 9.14841 6.33759 9.42455 6.33759H12.9601C13.8026 6.33759 14.506 6.48946 15.0701 6.79321C15.6378 7.09696 16.0627 7.50558 16.3447 8.01906C16.6304 8.53254 16.7732 9.10388 16.7732 9.73308C16.7732 10.3695 16.6286 10.9427 16.3393 11.4525C16.0536 11.9588 15.6269 12.3602 15.0592 12.6567C14.4951 12.9496 13.7954 13.096 12.9601 13.096ZM12.5414 14.029C12.8176 14.029 13.0415 14.2528 13.0415 14.529V14.9555C13.0415 15.2317 12.8176 15.4555 12.5415 15.4555H7.72681C7.45066 15.4555 7.22681 15.2317 7.22681 14.9555V14.529C7.22681 14.2528 7.45066 14.029 7.72681 14.029H12.5414Z" fill="white"/>
</svg>
