<svg width="25" height="24" viewBox="0 0 25 24" fill="none" xmlns="http://www.w3.org/2000/svg">
<path fill-rule="evenodd" clip-rule="evenodd" d="M19.5717 5.62333C20.366 5.62419 21.1395 5.92784 21.7194 6.48626C22.3014 7.04671 22.6408 7.82012 22.6418 8.64056V17.3477C22.6408 18.1681 22.3014 18.9415 21.7194 19.502C21.1395 20.0604 20.366 20.364 19.5717 20.3649L5.42819 20.3649C4.63389 20.364 3.86045 20.0604 3.28055 19.502C2.69855 18.9415 2.35911 18.1681 2.35816 17.3477L2.35815 17.3457L2.35816 8.64056C2.35911 7.82012 2.69855 7.04671 3.28055 6.48626C3.86045 5.92784 4.63389 5.62419 5.42819 5.62333L5.42997 5.62332L6.71502 5.62333C6.89006 4.98975 7.23459 4.41097 7.71466 3.94868C8.42783 3.26192 9.38197 2.88607 10.3647 2.88501L10.3665 2.88501L14.6338 2.88501C15.6165 2.88607 16.5707 3.26192 17.2839 3.94868C17.7639 4.41097 18.1085 4.98975 18.2835 5.62333H19.5717ZM16.7647 6.58875C16.7641 6.04425 16.5392 5.52223 16.1393 5.13721C15.7395 4.75219 15.1974 4.53562 14.632 4.53501H10.3665C9.80109 4.53562 9.25899 4.75219 8.85917 5.13721C8.45934 5.52223 8.23444 6.04425 8.23381 6.58875V7.27333H5.42997C5.05301 7.27373 4.69161 7.41811 4.42506 7.67479C4.15851 7.93147 4.00858 8.27948 4.00816 8.64248V17.3457C4.00858 17.7087 4.15851 18.0568 4.42506 18.3134C4.69161 18.5701 5.05301 18.7145 5.42997 18.7149H19.57C19.9469 18.7145 20.3083 18.5701 20.5749 18.3134C20.8414 18.0568 20.9914 17.7087 20.9918 17.3457V8.64248C20.9914 8.27948 20.8414 7.93147 20.5749 7.67479C20.3083 7.41811 19.9469 7.27373 19.57 7.27333H16.7647V6.58875Z" fill="#FF9316"/>
<path fill-rule="evenodd" clip-rule="evenodd" d="M6.48471 9.87244C6.89887 9.86596 7.23833 10.1965 7.24291 10.6107L7.25922 12.0858C7.2638 12.4999 6.93176 12.841 6.5176 12.8474C6.10344 12.8539 5.76398 12.5234 5.7594 12.1092L5.74309 10.6341C5.73851 10.2199 6.07055 9.87891 6.48471 9.87244Z" fill="#FF9316"/>
<path fill-rule="evenodd" clip-rule="evenodd" d="M18.8066 9.87244C19.2208 9.86596 19.5602 10.1965 19.5648 10.6107L19.5811 12.0858C19.5857 12.4999 19.2537 12.841 18.8395 12.8474C18.4253 12.8539 18.0859 12.5234 18.0813 12.1092L18.065 10.6341C18.0604 10.2199 18.3924 9.87891 18.8066 9.87244Z" fill="#FF9316"/>
<path fill-rule="evenodd" clip-rule="evenodd" d="M15.125 6.82458C15.125 7.2388 14.8092 7.57458 14.4196 7.57458L10.5804 7.57458C10.1908 7.57458 9.875 7.2388 9.875 6.82458C9.875 6.41037 10.1908 6.07458 10.5804 6.07458L14.4196 6.07458C14.8092 6.07458 15.125 6.41037 15.125 6.82458Z" fill="#FF9316"/>
<path fill-rule="evenodd" clip-rule="evenodd" d="M16.25 11.7C16.25 12.1142 15.9342 12.45 15.5446 12.45H9.45543C9.06583 12.45 8.75 12.1142 8.75 11.7C8.75 11.2857 9.06583 10.95 9.45543 10.95H15.5446C15.9342 10.95 16.25 11.2857 16.25 11.7Z" fill="#FF9316"/>
</svg>
