<svg width="60" height="61" viewBox="0 0 60 61" fill="none" xmlns="http://www.w3.org/2000/svg">
<path d="M0 30.1318C0 13.5632 13.4315 0.131775 30 0.131775V0.131775C46.5685 0.131775 60 13.5632 60 30.1318V30.1318C60 46.7003 46.5685 60.1318 30 60.1318V60.1318C13.4315 60.1318 0 46.7003 0 30.1318V30.1318Z" fill="#FFEEB5"/>
<mask id="mask0_8931_361471" style="mask-type:alpha" maskUnits="userSpaceOnUse" x="0" y="0" width="60" height="61">
<circle cx="30" cy="30.1318" r="30" fill="#C4C4C4"/>
</mask>
<g mask="url(#mask0_8931_361471)">
<path d="M-3.78736 51.3443L-19.0857 74.9877L-20.9891 77.9532L-40.8907 72.4886C-42.9291 71.9289 -45.0511 73.0518 -45.7348 75.0521L-48.4691 83.0514C-48.4691 83.0514 -33.032 92.9998 -24.3211 97.051C-22.5269 97.8854 -18.4304 98.4023 -17.6771 97.8049C-8.34407 95.0796 1.79328 82.2136 7.23812 74.9877L-3.78736 51.3443Z" fill="#6B475A"/>
<path d="M48.4744 98.5944C48.4744 98.5944 62.4908 98.5944 72.7235 98.5944C73.908 98.5944 74.9609 98.4647 75.948 98.2378C82.4956 96.6173 83.9104 89.8434 81.6072 84.1391C81.3111 83.4584 80.9821 82.7778 80.6201 82.1296C76.5402 75.3557 66.5049 53.8024 66.5049 53.8024L48.4744 98.5944Z" fill="#6B475A"/>
<path d="M0.404229 83.3937L-15.3959 76.4959L-9.99909 61.9381C-10.1125 62.0724 -10.0509 61.8815 -9.73035 61.2131L-9.99909 61.9381C-9.50599 61.3538 -5.70348 54.6178 -5.50574 54.2675L-5.49937 54.2562C-2.73556 49.3622 -4.46368 49.4417 7.01763 47.6095L30.9087 38.4055L55.5401 46.4776C68.3387 49.4417 66.6283 49.3622 69.3921 54.2562C69.3921 54.2886 69.425 54.3211 69.4579 54.3535L73.6781 69.7811L59.4971 83.4585L58.3559 98.562H1.52914L0.404229 83.3937Z" fill="#6B475A"/>
<path d="M19.061 50.0938C21.0681 56.3491 22.9095 57.2707 29.9177 57.2707C36.926 57.2707 38.6681 55.3325 40.6752 49.0448H40.05C38.6681 49.0448 39.2949 45.6351 38.7356 44.4683C38.5711 44.1442 38.4724 43.7877 38.4395 43.3988L37.1892 31.5364L36.6298 26.2858H23.2056L22.6134 31.8605L21.8895 38.6668L21.396 43.3664C21.1986 45.0841 21.5616 50.0614 19.8178 50.0614L20.0151 49.0448L19.061 50.0938Z" fill="#FFBE88"/>
<path d="M21.9222 41.3226C26.5286 45.5036 31.8259 46.3787 38.7683 47.0917C38.6038 46.7676 38.5051 46.4111 38.4722 46.0222L37.2219 34.1598C32.1549 33.8681 26.397 33.8033 22.6461 34.4839L21.9222 41.3226Z" fill="#F09A71"/>
<path d="M20.737 42.65L18.375 47.6346L20.737 76.4932L40.2165 80.6251L42.3153 46.9788L38.4059 40.8791L29.9192 47.6346L20.737 42.65Z" fill="white"/>
<path d="M38.8755 40.4943L30.1603 48.3936L35.4543 56.3654L41.4453 46.4986L38.8755 40.4943Z" fill="#B1B4C5"/>
<path d="M21.229 41.5359L29.6882 47.8439L26.8102 57.6977L18.9006 47.1753L21.229 41.5359Z" fill="#B1B4C5"/>
<path d="M30.1817 47.3724L25.6166 53.8844L30.9106 61.8562L36.9017 51.9894L30.1817 47.3724Z" fill="#4B2D43"/>
<path d="M28.7587 58.3503L27.371 81.9418L38.1808 85.8859L32.6298 59.0075L28.7587 58.3503Z" fill="#4B2D43"/>
<path d="M38.5306 39.6417L29.8154 47.541L35.1095 55.5128L41.1005 45.646L38.5306 39.6417Z" fill="white"/>
<path d="M21.4969 39.5176L29.83 47.1529L26.9519 57.0067L19.0046 45.7483L21.4969 39.5176Z" fill="white"/>
<path d="M-1.88406 68.2866L-2.11744 66.6469C-2.34053 64.8729 -3.13308 63.6387 -0.81354 63.8163L60.3694 63.789C62.5105 63.953 62.6801 64.2012 62.9135 65.8408L60.9677 91.533C61.0741 92.4872 60.6452 93.4004 59.8904 93.8832C54.0669 73.8409 23.0715 68.1705 -1.88406 68.2866Z" fill="#D8DEEB"/>
<path d="M19.7353 23.3106C19.3699 21.8018 18.1518 20.7959 16.8119 21.2989C14.6194 22.179 14.4976 25.4481 15.472 27.4599C16.0811 28.7172 17.4209 30.226 18.7608 30.3518C19.7353 29.0944 20.3443 26.2025 19.7353 23.3106Z" fill="#FECBB5"/>
<path d="M19.2484 23.3107C19.2484 23.3107 19.3703 23.3107 19.2484 23.3107C18.883 22.682 18.274 22.1791 17.4213 22.5563C15.9597 23.1849 15.8379 25.4482 16.4469 26.957C16.4469 26.957 16.4469 27.0827 16.5687 27.0827C16.2033 25.1967 17.0559 22.9335 19.2484 23.3107Z" fill="#EC8E65"/>
<path d="M41.5381 23.4364C41.9035 21.9276 43.1216 20.9217 44.4614 21.5504C46.654 22.4305 46.7758 25.6996 45.9231 27.7114C45.3141 28.9687 43.9742 30.4775 42.6343 30.6033C41.5381 29.2202 40.929 26.2026 41.5381 23.4364Z" fill="#FECBB5"/>
<path d="M42.1478 23.3107C42.1478 23.3107 42.026 23.3107 42.1478 23.3107C42.5132 22.682 43.1222 22.1791 43.9749 22.5563C45.4366 23.1849 45.5584 25.4482 44.9493 26.957C44.9493 26.957 44.9493 27.0827 44.8275 27.0827C45.193 25.1967 44.3403 22.9335 42.1478 23.3107Z" fill="#EC8E65"/>
<path d="M43.4473 7.62402L26.8128 3.54684L18.3122 6.46732C18.3122 6.46732 17.3473 22.9637 17.7242 30.7592C17.9755 37.0459 22.3354 41.4817 27.1133 43.4584C28.2441 44.0871 29.5005 44.3386 30.6314 44.3386C31.7622 44.3386 34.6548 43.5514 35.7857 42.9228C42.0304 38.7916 43.3216 34.7402 43.5729 28.4535C43.8242 20.6579 43.4473 7.62402 43.4473 7.62402Z" fill="#FECBB5"/>
<path d="M29.1068 37.8962C31.3374 38.2625 33.0702 36.7595 33.9772 35.7175C34.4302 35.197 34.4832 35.1614 34.5441 34.8759C34.3979 34.7014 33.6247 35.0937 33.429 35.1614C32.3325 35.5412 30.8607 36.0733 29.9388 36.0733C28.1271 36.0733 26.3949 34.7915 26.3949 34.7915C26.3949 34.7915 27.5738 37.53 29.1068 37.8962Z" fill="white"/>
<path d="M31.1962 33.447C31.0812 33.4651 30.235 33.477 30.12 33.4951C29.2482 33.5737 28.8858 32.9051 28.0168 32.9162C27.7192 32.9271 27.332 32.8893 27.2522 32.5929C27.1917 32.3874 27.8589 32.2782 28.0459 32.1727C28.4199 31.9617 28.4217 31.9166 28.778 32.1562C29.8453 32.9202 30.4037 32.6713 31.2325 32.5233C31.9234 32.3924 32.0078 31.9895 32.5951 31.5838C32.6426 31.5406 32.7128 31.4982 32.7804 31.5234C32.8489 31.5261 32.8919 31.5955 32.9129 31.6414C33.0428 31.827 33.9223 32.1323 33.752 32.3964C33.6791 32.5064 32.7327 32.74 32.5931 32.8023C31.8723 33.1125 31.9319 33.3405 31.1962 33.447Z" fill="#EC8E65"/>
<path d="M43.3414 23.9249C43.3405 23.9458 43.3388 23.9876 43.3157 23.9868C43.2917 24.0069 43.2447 24.0261 43.1977 24.0453C43.1871 23.7519 43.1987 23.4802 43.1881 23.1868C43.2463 21.8258 43.3652 20.5747 43.3749 19.3323C43.3852 18.013 43.2723 16.7034 42.8326 15.2824C42.1633 13.1023 41.635 12.4588 40.0995 10.5406C39.4517 9.74523 38.1893 10.1473 37.2512 10.145C33.7879 10.0832 30.5156 9.33746 27.3561 8.11435C26.7421 7.88293 26.1698 7.75768 25.5565 8.0496C23.2701 9.12068 19.8418 11.6134 18.7755 13.712C17.9881 15.2618 18.4571 24.7763 18.2314 24.8545C18.1695 24.8798 17.0299 22.7945 16.9414 22.5982C16.0086 20.3938 16.0423 18.3378 15.8134 16.0301C15.4045 12.08 15.5885 8.29443 18.6701 5.39102C19.2479 4.84663 19.9304 4.5572 20.8568 4.50681C24.8216 4.26367 28.3942 1.64323 32.3497 1.04783C33.9772 0.81333 35.4972 0.930821 36.7694 1.98136C39.472 4.23871 42.7935 5.04309 44.4166 8.49444C44.6489 9.00518 44.8112 9.53433 44.8341 10.0794C44.9993 15.2357 45.0626 18.7346 43.3414 23.9249Z" fill="#752B1E"/>
<path d="M22.5569 9.86768C23.294 9.08071 24.234 8.48409 25.2859 8.01351C25.9076 7.73082 26.4886 7.85341 27.1121 8.07922C30.2971 9.27169 33.6434 9.98188 37.1571 10.0676C37.7893 10.0904 38.4249 10.0319 39.0597 9.99373C39.5296 9.96997 39.7802 10.1417 40.0482 10.4564C41.6333 12.3234 42.1744 12.8839 42.8334 15.0226C43.2478 16.2985 43.5921 17.5717 43.3709 18.906C43.3388 19.1083 43.4229 19.335 43.2044 19.5102C42.7752 18.5795 42.7249 17.5609 42.4613 16.5956C41.9307 14.7461 40.9725 14.6181 40.1097 12.8584C39.9805 12.5893 39.703 12.498 39.3536 12.4448C35.5485 12.0435 31.9551 11.0803 28.5949 9.59685C27.1676 8.97605 25.8738 9.07185 24.476 9.40796C23.8343 9.60858 23.2585 9.91325 22.5569 9.86768Z" fill="#DB9781"/>
<path opacity="0.3" d="M20.7944 21.8068C20.333 22.5529 19.8325 25.7352 23.7377 26.0899C28.2504 26.424 27.6366 22.6706 26.9631 20.7455C26.5738 20.0282 21.4823 20.566 20.7944 21.8068Z" fill="#EC8E65"/>
<path d="M20.5779 21.7417C20.5779 21.7417 23.9324 20.6075 27.2752 21.7884C27.5875 20.6772 27.0381 19.3634 26.6738 19.3808C25.6963 19.3055 22.313 19.8319 21.1274 20.4974C20.5375 20.8909 20.5779 21.7417 20.5779 21.7417Z" fill="#6B475A"/>
<path d="M21.5182 25.1913C21.5429 25.921 22.7705 26.2446 24.2287 26.1952C25.687 26.1458 26.5294 25.8738 26.5005 25.0225C26.4717 24.1713 25.4583 22.9881 24.0001 23.0376C22.6633 23.0828 21.4893 24.3401 21.5182 25.1913Z" fill="white"/>
<path d="M25.7067 24.651C25.7396 25.6239 25.1362 25.7661 24.2855 25.7949C23.5564 25.8196 22.9447 25.7186 22.9117 24.7457C22.8787 23.7729 23.4616 23.0227 24.1907 22.9979C25.0414 22.9691 25.6737 23.6782 25.7067 24.651Z" fill="#6B475A"/>
<path d="M25.6741 23.6781L24.4795 24.3273L25.8244 24.5252L25.6741 23.6781Z" fill="white"/>
<path d="M25.2019 22.6307C24.5778 22.1649 23.4882 22.3235 22.893 22.709C22.7756 22.8347 22.9054 23.0738 23.0228 22.9481C23.4965 22.5668 24.4645 22.4122 24.9671 22.8822C25.2143 22.9955 25.4491 22.7441 25.2019 22.6307Z" fill="#EC8E65"/>
<path d="M26.6221 25.0181C26.3626 24.5399 25.8394 23.4619 24.0166 23.5237C22.3153 23.5813 21.7489 24.818 21.5182 25.191C21.4976 24.583 21.9343 23.1073 23.8745 22.9198C25.9362 22.7282 26.7189 24.2843 26.6221 25.0181Z" fill="#4B2D43"/>
<path opacity="0.3" d="M39.8741 21.1599C40.3849 21.873 41.2253 25.1317 37.2316 25.754C32.7518 26.3928 32.9886 22.6106 33.6518 20.6402C34.1091 19.7725 39.1038 19.9685 39.8741 21.1599Z" fill="#EC8E65"/>
<path d="M40.5974 21.0866C40.5974 21.0866 37.2288 19.9955 33.897 21.3406C33.5706 20.2335 34.1031 18.9128 34.3462 18.9212C35.4483 18.7161 38.9554 19.325 40.0321 19.8495C40.627 20.2354 40.5974 21.0866 40.5974 21.0866Z" fill="#6B475A"/>
<path d="M39.2583 24.591C39.2831 25.3206 38.0802 25.7266 36.622 25.776C35.1637 25.8254 34.3007 25.4894 34.276 24.7598C34.2471 23.9085 35.1781 22.6595 36.6364 22.6101C38.0946 22.5607 39.2295 23.7397 39.2583 24.591Z" fill="white"/>
<path d="M35.1362 24.4842C35.1691 25.457 35.7809 25.558 36.6315 25.5292C37.3606 25.5045 37.96 25.2407 37.9312 24.3895C37.8982 23.4166 37.2659 22.7076 36.5367 22.7323C35.6861 22.7611 35.1032 23.5113 35.1362 24.4842Z" fill="#6B475A"/>
<path d="M37.777 23.4206L36.704 24.0656L38.0489 24.2636L37.777 23.4206Z" fill="white"/>
<path d="M35.4095 22.2856C36.0006 21.7786 37.0984 21.8632 37.7184 22.2074C37.844 22.3249 37.7307 22.5722 37.6051 22.4547C37.1066 22.1064 36.1304 22.0177 35.6608 22.5206C35.5434 22.6463 35.2921 22.4113 35.4095 22.2856Z" fill="#EC8E65"/>
<path d="M34.2768 24.7594C34.5034 24.2648 34.9524 23.1538 36.7752 23.0921C38.4765 23.0344 39.1253 24.2299 39.3807 24.5865C39.3601 23.9784 38.8246 22.5356 36.8761 22.4799C34.8061 22.4283 34.1306 24.0339 34.2768 24.7594Z" fill="#4B2D43"/>
<path d="M37.1149 39.2783C37.0505 38.679 36.2399 36.516 36.2859 35.898C36.328 35.3337 36.7553 33.811 36.1256 33.8451C34.3002 33.4992 33.0605 34.1075 30.8202 34.1075C29.7818 34.1382 29.0437 34.1642 28.0253 33.9262C26.4546 33.7819 24.8893 34.6734 23.82 35.4853C23.6474 37.7887 23.9543 37.0899 23.8205 41.0788C23.8116 41.5645 24.0236 42.0127 24.2627 42.4628C24.5731 43.0534 24.7076 43.3232 25.3072 43.6921C27.6284 45.1081 30.3866 45.5946 34.7006 44.2321C34.9216 44.1945 35.1696 44.159 35.3423 44.0368C35.5422 43.9166 35.6918 43.7386 35.8142 43.5586C36.4538 42.6605 37.1244 41.7108 37.2046 40.636C37.2858 39.9125 37.1713 39.985 37.1149 39.2783ZM34.4227 40.0684C34.3896 40.147 32.9832 40.7362 32.3636 40.636C31.4999 40.5175 31.1469 40.1162 30.3866 39.7083C30.2299 39.6155 26.4353 41.5109 25.6868 39.4826C25.5059 38.9828 24.622 37.1639 24.5516 36.6453C24.4812 36.1267 24.5524 36.0509 24.8827 35.6329C25.1148 35.8226 25.9477 35.0953 26.3484 35.2062C26.9369 35.3582 29.761 35.5147 30.3866 35.5343C30.9309 35.5478 32.0277 35.2062 33.7167 34.5176C33.9879 34.5378 34.9869 34.4898 35.1647 34.6652C35.5996 35.0488 35.4215 37.1683 35.519 37.6889C35.6476 38.1579 34.4539 40.0167 34.4227 40.0684Z" fill="#923424"/>
<path d="M20.28 29.1782L20.1675 29.1575C18.6738 28.8117 18.4793 24.5959 18.6884 23.083C18.8342 22.0136 19.2264 21.4512 19.8119 21.4501C21.538 21.3964 27.1421 21.3701 28.0602 21.3278L28.2284 21.3459C28.4811 21.3861 28.7967 21.5789 28.9378 22.2203C29.2284 23.6843 29.4272 28.1652 28.4833 28.8568C27.4583 29.6039 21.3769 29.3868 20.28 29.1782ZM19.9793 22.6606C19.5226 23.6406 19.9194 27.4065 20.5311 27.9744C21.9087 28.2218 26.8096 28.2342 27.769 27.8789C28.2908 27.1032 27.9427 23.614 27.7546 22.56C26.112 22.6099 21.9001 22.5979 19.9793 22.6606Z" fill="#232056"/>
<path d="M33.0692 28.8473L33.0021 28.8245C31.7964 28.4654 31.6239 24.2486 31.7744 22.7384C31.8793 21.6708 32.1839 21.1125 32.6465 21.1171C32.6465 21.1171 40.8735 20.9189 41.2471 20.9017L41.3801 20.9215C41.5803 20.9641 41.8315 21.1599 41.9493 21.8024C42.1931 23.2685 41.59 27.858 40.8507 28.5401C40.0479 29.277 33.9602 29.0654 33.0692 28.8473ZM32.7905 22.3286C32.4391 23.3038 32.7891 27.0718 33.2781 27.6454C34.3691 27.9061 39.522 27.9016 40.2768 27.5558C40.6817 26.7854 41.1763 23.1858 41.0175 22.1305C40.357 22.135 32.7905 22.3286 32.7905 22.3286Z" fill="#232056"/>
<path d="M28.1368 24.0851C28.2401 22.9917 28.2302 21.9251 30.0107 21.9251C30.8999 21.7545 32.476 21.9251 32.476 23.3886L31.717 24.4642C31.3659 23.5214 30.7782 23.0042 30.1435 23.1372C29.6611 23.2372 29.2966 23.6687 29.2181 24.1907L28.1368 24.0851Z" fill="#232056"/>
<path d="M43.8899 21.2136L41.5536 22.7051L42.0286 21.2136L44.3649 19.7221L43.8899 21.2136Z" fill="#232056"/>
<path d="M16.6785 21.2136L19.0148 22.7051L18.5397 21.2136L16.2034 19.7221L16.6785 21.2136Z" fill="#232056"/>
</g>
</svg>
