<svg width="29" height="24" viewBox="0 0 29 24" fill="none" xmlns="http://www.w3.org/2000/svg">
<path fill-rule="evenodd" clip-rule="evenodd" d="M18.8685 2.95054C18.4805 2.40338 17.724 2.2713 17.1735 2.65462C16.6311 3.0324 16.4875 3.77309 16.8494 4.32623L20.0189 9.17021H14.0721C13.5148 9.17021 13.063 8.7184 13.063 8.16106C13.063 7.60372 13.5148 7.15191 14.0721 7.15191H16.2863L15.1605 5.43131C14.2007 3.96443 14.5816 2.0002 16.0201 0.99838C17.4798 -0.0181614 19.486 0.332108 20.5149 1.78312L24.3217 7.15191H26.0727C27.6434 7.15191 28.9166 8.4252 28.9166 9.99588V11.0536C28.9166 12.1405 28.2982 13.1248 27.3362 13.6015L26.4912 20.3672C26.2206 22.2142 24.6363 23.5832 22.7696 23.5832H14.0721C13.5148 23.5832 13.063 23.1314 13.063 22.5741C13.063 22.0167 13.5148 21.5649 14.0721 21.5649H22.7696C23.6347 21.5649 24.3688 20.9305 24.4943 20.0746L25.5065 12.1674L26.3778 11.8208C26.6921 11.6958 26.8983 11.3918 26.8983 11.0536V9.99588C26.8983 9.53988 26.5287 9.17021 26.0727 9.17021H23.2786L18.8685 2.95054Z" fill="#FF5A50"/>
<path fill-rule="evenodd" clip-rule="evenodd" d="M10.4648 2.95054C10.8528 2.40338 11.6093 2.2713 12.1597 2.65462C12.7022 3.0324 12.8458 3.77309 12.4839 4.32623L9.31434 9.17021H14.2611C14.8185 9.17021 15.2703 8.7184 15.2703 8.16106C15.2703 7.60372 14.8185 7.15191 14.2611 7.15191H13.0469L14.1728 5.43131C15.1326 3.96443 14.7517 2.00019 13.3132 0.99838C11.8535 -0.0181613 9.84723 0.332108 8.81836 1.78312L5.01153 7.15191H3.26058C1.6899 7.15191 0.416609 8.4252 0.416609 9.99588V10.9446C0.416609 12.0232 1.02437 12.9929 1.95938 13.4736L2.83785 20.3756C3.1122 22.2188 4.69477 23.5832 6.55825 23.5832H14.2611C14.8185 23.5832 15.2703 23.1314 15.2703 22.5741C15.2703 22.0167 14.8185 21.5649 14.2611 21.5649H6.55825C5.69469 21.5649 4.9613 20.9326 4.83417 20.0784L3.77577 11.9677L3.01703 11.7335C2.67096 11.6267 2.43491 11.3068 2.43491 10.9446V9.99588C2.43491 9.53988 2.80458 9.17021 3.26058 9.17021H6.05461L10.4648 2.95054Z" fill="#FF5A50"/>
<path fill-rule="evenodd" clip-rule="evenodd" d="M19.5374 11.7627C20.1185 11.7627 20.5895 12.2573 20.5895 12.8673L20.5895 17.6581C20.5895 18.2681 20.1185 18.7627 19.5374 18.7627C18.9564 18.7627 18.4853 18.2681 18.4853 17.6581L18.4853 12.8673C18.4853 12.2573 18.9564 11.7627 19.5374 11.7627Z" fill="#FF5A50"/>
<path fill-rule="evenodd" clip-rule="evenodd" d="M14.6666 11.7627C15.2476 11.7627 15.7187 12.2573 15.7187 12.8673L15.7187 17.6581C15.7187 18.2681 15.2476 18.7627 14.6666 18.7627C14.0855 18.7627 13.6145 18.2681 13.6145 17.6581L13.6145 12.8673C13.6145 12.2573 14.0855 11.7627 14.6666 11.7627Z" fill="#FF5A50"/>
<path fill-rule="evenodd" clip-rule="evenodd" d="M9.7958 11.7627C10.3769 11.7627 10.8479 12.2573 10.8479 12.8673L10.8479 17.6581C10.8479 18.2681 10.3769 18.7627 9.7958 18.7627C9.21474 18.7627 8.7437 18.2681 8.7437 17.6581L8.7437 12.8673C8.7437 12.2573 9.21474 11.7627 9.7958 11.7627Z" fill="#FF5A50"/>
</svg>
