<svg width="25" height="30" viewBox="0 0 25 30" fill="none" xmlns="http://www.w3.org/2000/svg">
<path fill-rule="evenodd" clip-rule="evenodd" d="M9.38549 4.71485L9.09066 5.33988H3.93496C3.16176 5.33988 2.53496 5.96668 2.53496 6.73988V25.7024C2.53496 26.4756 3.16176 27.1024 3.93496 27.1024H20.7316C21.5048 27.1024 22.1316 26.4756 22.1316 25.7024V6.73988C22.1316 5.96668 21.5048 5.33988 20.7316 5.33988H15.6103L15.3035 4.75899L15.3006 4.75386C15.2959 4.74553 15.2865 4.72929 15.2725 4.70628C15.2445 4.66012 15.1983 4.58756 15.1339 4.49737C15.004 4.31547 14.8066 4.07075 14.5428 3.82755C14.0159 3.34189 13.2674 2.89757 12.2642 2.89757C11.267 2.89757 10.5603 3.33646 10.0761 3.80732C9.83166 4.04499 9.65203 4.2844 9.53502 4.46243C9.47706 4.55062 9.43603 4.62136 9.41145 4.66595C9.39921 4.68817 9.39118 4.70365 9.38729 4.71128L9.38549 4.71485ZM8.54229 2.23013C9.31382 1.47984 10.5425 0.697571 12.2642 0.697571C13.9798 0.697571 15.2358 1.4744 16.0338 2.2099C16.3953 2.5431 16.6716 2.87506 16.8669 3.13988H20.7316C22.7198 3.13988 24.3316 4.75166 24.3316 6.73988V25.7024C24.3316 27.6906 22.7198 29.3024 20.7316 29.3024H3.93496C1.94674 29.3024 0.334961 27.6906 0.334961 25.7024V6.73988C0.334961 4.75165 1.94674 3.13988 3.93496 3.13988H7.77355C7.95506 2.87715 8.20894 2.5543 8.54229 2.23013ZM18.6949 12.8801C19.1149 13.3191 19.0996 14.0154 18.6606 14.4354L11.4778 21.3081L7.44516 17.2754C7.01559 16.8458 7.01559 16.1494 7.44518 15.7198C7.87476 15.2902 8.57124 15.2902 9.00081 15.7198L11.5118 18.2308L17.1397 12.8458C17.5786 12.4258 18.2749 12.4412 18.6949 12.8801ZM14.0844 6.17535C14.0844 6.30607 14.0701 6.43345 14.0429 6.55599L16.4436 6.556C17.0511 6.55601 17.5436 7.04849 17.5436 7.65601C17.5435 8.26352 17.0511 8.75601 16.4435 8.756L8.22298 8.75597C7.61547 8.75597 7.12298 8.26348 7.12299 7.65597C7.12299 7.04846 7.61548 6.55597 8.22299 6.55597L10.6237 6.55598C10.5965 6.43344 10.5822 6.30607 10.5822 6.17535C10.5822 5.20825 11.3662 4.42426 12.3333 4.42426C13.3004 4.42426 14.0844 5.20825 14.0844 6.17535Z" fill="#0B6FC5"/>
</svg>
