<svg width="27" height="24" viewBox="0 0 27 24" fill="none" xmlns="http://www.w3.org/2000/svg">
<path fill-rule="evenodd" clip-rule="evenodd" d="M12.5119 6.17675L17.7599 0.965174C19.2059 -0.446328 21.4092 -0.219078 22.6942 1.05951L22.6957 1.06108L24.8262 3.17562C25.4715 3.81967 25.8685 4.68203 25.8608 5.62844C25.8535 6.54003 25.4536 7.43908 24.7896 8.06335L18.6201 14.1288L18.9873 14.607C20.2452 14.716 21.1301 15.2113 21.8013 15.8825C22.3323 16.4135 22.8595 17.8445 23.5673 18.0609C24.4203 18.3217 24.9596 17.8806 25.5954 18.7376C27.2502 20.9679 23.5604 23.4172 21.8551 23.7463C20.0175 24.1009 18.2329 23.7759 16.8798 22.8419C15.6347 21.9823 14.8116 20.6415 14.6707 19.0066L13.7569 18.236C13.2234 18.9138 12.5809 19.5239 11.9973 20.1587C11.7986 20.3747 11.5569 20.5466 11.2878 20.6635L4.80816 23.7463C3.46178 24.406 2.31459 23.6194 1.89594 23.1922C1.4355 22.7225 0.823259 21.6949 1.27255 20.4728L4.41151 13.8072C4.50801 13.5851 4.6422 13.3814 4.80814 13.2051L6.12797 11.8027L2.33333 8.5669C0.189616 6.75914 0.0827757 3.49304 2.10376 1.54905C4.13394 -0.40379 7.41098 -0.15785 9.12694 2.07613L12.5119 6.17675ZM13.7798 7.93488L19.2133 2.48043C19.7453 1.94842 20.6416 1.97815 21.2139 2.54839L23.343 4.66156C23.9143 5.2318 23.8846 6.00061 23.3515 6.53368L17.3219 12.5559L13.7798 7.93488ZM3.68678 6.96192C2.49553 5.95736 2.43616 4.14241 3.55921 3.06214C4.68737 1.97696 6.5084 2.11363 7.46196 3.35504L17.9353 16.6839H18.4527C19.4341 16.6839 19.9412 16.9915 20.3168 17.367C20.8344 17.8847 21.1672 18.5581 21.608 19.1367C22.2579 19.9897 23.1538 20.1851 23.88 20.2174C23.3421 20.9733 22.5537 21.4733 21.4573 21.6849C20.0914 21.9485 18.8973 21.6834 18.0726 21.1141C17.2661 20.5574 16.7486 19.6712 16.7486 18.5005V18.0126C12.3862 14.3339 8.03558 10.6591 3.68678 6.96192ZM7.73533 13.1582L6.33701 14.644L3.24307 21.1973C3.11034 21.5583 3.56801 22.016 3.88446 21.861L10.4519 18.7376L12.1071 16.9376L7.73533 13.1582Z" fill="#0B6FC5"/>
<path fill-rule="evenodd" clip-rule="evenodd" d="M18.5329 4.21715C18.9232 3.82637 19.5493 3.81893 19.9314 4.20053L21.6344 5.9013C22.0165 6.2829 22.0098 6.90904 21.6196 7.29981C21.2293 7.69059 20.6032 7.69803 20.2211 7.31643L18.5181 5.61566C18.136 5.23406 18.1426 4.60792 18.5329 4.21715Z" fill="#0B6FC5"/>
</svg>
