<svg width="32" height="32" viewBox="0 0 32 32" fill="none" xmlns="http://www.w3.org/2000/svg">
<path fill-rule="evenodd" clip-rule="evenodd" d="M5.33335 10.3333C4.41288 10.3333 3.66669 11.0795 3.66669 11.9999V25.3333C3.66669 26.2537 4.41288 26.9999 5.33335 26.9999H26.6667C27.5872 26.9999 28.3334 26.2537 28.3334 25.3333V11.9999C28.3334 11.0795 27.5872 10.3333 26.6667 10.3333H5.33335ZM1.66669 11.9999C1.66669 9.97489 3.30831 8.33327 5.33335 8.33327H26.6667C28.6917 8.33327 30.3334 9.97489 30.3334 11.9999V25.3333C30.3334 27.3583 28.6917 28.9999 26.6667 28.9999H5.33335C3.30831 28.9999 1.66669 27.3583 1.66669 25.3333V11.9999Z" fill="#FF9316"/>
<path fill-rule="evenodd" clip-rule="evenodd" d="M10.7406 4.07388C11.4283 3.38625 12.3609 2.99994 13.3334 2.99994H18.6667C19.6391 2.99994 20.5718 3.38625 21.2594 4.07388C21.947 4.76151 22.3334 5.69414 22.3334 6.66661V9.71552H20.3334V6.66661C20.3334 6.22458 20.1578 5.80066 19.8452 5.48809C19.5326 5.17553 19.1087 4.99994 18.6667 4.99994H13.3334C12.8913 4.99994 12.4674 5.17553 12.1548 5.48809C11.8423 5.80066 11.6667 6.22458 11.6667 6.66661V9.71552H9.66669V6.66661C9.66669 5.69414 10.053 4.76151 10.7406 4.07388Z" fill="#FF9316"/>
<path fill-rule="evenodd" clip-rule="evenodd" d="M5.69212 16.3326C6.9496 17.0093 8.58607 17.36 10.2394 17.36H21.7606C23.4139 17.36 25.0504 17.0093 26.3079 16.3326C27.5362 15.6715 28.5212 14.6141 28.5212 13.2599V9.71547H26.5212V13.2599C26.5212 13.55 26.2924 14.0697 25.3601 14.5714C24.4569 15.0574 23.1629 15.36 21.7606 15.36H10.2394C8.83706 15.36 7.54306 15.0574 6.63989 14.5714C5.70757 14.0697 5.47876 13.55 5.47876 13.2599V9.71547H3.47876V13.2599C3.47876 14.6141 4.46379 15.6715 5.69212 16.3326Z" fill="#FF9316"/>
<path fill-rule="evenodd" clip-rule="evenodd" d="M12.9167 19.6666C12.9167 19.1143 13.3644 18.6666 13.9167 18.6666H18.0834C18.6356 18.6666 19.0834 19.1143 19.0834 19.6666C19.0834 20.2188 18.6356 20.6666 18.0834 20.6666H13.9167C13.3644 20.6666 12.9167 20.2188 12.9167 19.6666Z" fill="#FF9316"/>
</svg>
