<svg width="24" height="28" viewBox="0 0 24 28" fill="none" xmlns="http://www.w3.org/2000/svg">
<path fill-rule="evenodd" clip-rule="evenodd" d="M8.75735 2.61879H3.60165C2.82845 2.61879 2.20165 3.24559 2.20165 4.01879V23.9813C2.20165 24.7545 2.82845 25.3813 3.60165 25.3813H20.3983C21.1715 25.3813 21.7983 24.7545 21.7983 23.9813V4.01879C21.7983 3.24559 21.1715 2.61879 20.3983 2.61879H15.277H8.75735ZM16.5336 0.418793H20.3983C22.3865 0.418793 23.9983 2.03057 23.9983 4.01879V23.9813C23.9983 25.9695 22.3865 27.5813 20.3983 27.5813H3.60165C1.61343 27.5813 0.00164795 25.9695 0.00164795 23.9813V4.01879C0.00164795 2.03056 1.61342 0.418793 3.60165 0.418793H7.44023H16.5336Z" fill="#FF9316"/>
<path fill-rule="evenodd" clip-rule="evenodd" d="M12.9862 15.2448C12.9862 14.6926 12.5385 14.2448 11.9862 14.2448C10.5023 14.2448 8.94223 14.8212 7.73861 15.7704C6.53128 16.7225 5.58475 18.134 5.54846 19.8432C5.53673 20.3954 5.97484 20.8525 6.527 20.8642C7.07916 20.876 7.53628 20.4378 7.54801 19.8857C7.56828 18.9308 8.09995 18.0325 8.97705 17.3408C9.85788 16.6462 10.9885 16.2448 11.9862 16.2448C12.5385 16.2448 12.9862 15.7971 12.9862 15.2448Z" fill="#FF9316"/>
<path fill-rule="evenodd" clip-rule="evenodd" d="M11.0137 15.2448C11.0137 14.6926 11.4614 14.2448 12.0137 14.2448C13.4976 14.2448 15.0576 14.8212 16.2613 15.7704C17.4686 16.7225 18.4151 18.134 18.4514 19.8432C18.4631 20.3954 18.025 20.8525 17.4729 20.8642C16.9207 20.876 16.4636 20.4378 16.4519 19.8857C16.4316 18.9308 15.8999 18.0325 15.0228 17.3408C14.142 16.6462 13.0114 16.2448 12.0137 16.2448C11.4614 16.2448 11.0137 15.7971 11.0137 15.2448Z" fill="#FF9316"/>
<path fill-rule="evenodd" clip-rule="evenodd" d="M11.882 13.5156C12.9758 13.5156 13.8626 12.6289 13.8626 11.5351C13.8626 10.4412 12.9758 9.55453 11.882 9.55453C10.7882 9.55453 9.90149 10.4412 9.90149 11.5351C9.90149 12.6289 10.7882 13.5156 11.882 13.5156ZM11.882 15.5156C14.0804 15.5156 15.8626 13.7335 15.8626 11.5351C15.8626 9.33668 14.0804 7.55453 11.882 7.55453C9.68363 7.55453 7.90149 9.33668 7.90149 11.5351C7.90149 13.7335 9.68363 15.5156 11.882 15.5156Z" fill="#FF9316"/>
<path fill-rule="evenodd" clip-rule="evenodd" d="M18.4131 20.1001C18.4131 20.6524 17.992 21.1001 17.4725 21.1001H6.53417C6.0147 21.1001 5.59359 20.6524 5.59359 20.1001C5.59359 19.5478 6.0147 19.1001 6.53417 19.1001H17.4725C17.992 19.1001 18.4131 19.5478 18.4131 20.1001Z" fill="#FF9316"/>
</svg>
