<svg width="33" height="32" viewBox="0 0 33 32" fill="none" xmlns="http://www.w3.org/2000/svg">
<path fill-rule="evenodd" clip-rule="evenodd" d="M23.9842 9.21163L22.9843 8.30468C22.9005 8.22026 22.7932 8.14479 22.6733 8.08186C22.3835 7.92977 22.0202 7.85101 21.7372 7.89649L17.9074 8.57692C17.4416 8.67213 17.0102 8.89143 16.6588 9.21163L6.73594 19.0863C6.50524 19.3167 6.37522 19.629 6.37434 19.9551C6.37346 20.2811 6.50179 20.5941 6.73123 20.8257L13.9488 28.0942C14.4282 28.5746 15.0311 28.4021 15.5131 27.9249L25.4358 18.049C25.7207 17.7631 26.01 17.2029 26.0767 16.8012L26.6219 12.8124C26.6888 12.412 26.5085 11.8501 26.2221 11.5616L25.2374 10.5718C27.1514 8.4981 26.7374 4.15366 24.3194 2.47363C24.2487 2.42447 24.1692 2.38763 24.0843 2.36551C23.9005 2.31762 23.7052 2.34245 23.5392 2.43483C23.3732 2.52722 23.2492 2.68004 23.1931 2.86152C23.1369 3.043 23.1528 3.23915 23.2376 3.40918C25.3228 5.82067 25.4522 7.63495 23.9842 9.21163ZM28.656 13.1125C28.7473 12.5181 28.6516 11.9526 28.5127 11.5184C28.4554 11.3395 27.914 10.6818 27.8154 10.4876C29.3573 7.65551 28.2675 3.95373 26.1624 1.44248C25.7834 0.91833 25.2326 0.540036 24.6026 0.375914C23.9068 0.194627 23.1678 0.288608 22.5394 0.638299C21.9111 0.987988 21.4417 1.56647 21.229 2.2534C21.0163 2.94034 21.0767 3.68283 21.3975 4.3264C21.6802 4.89361 22.1859 5.32119 22.5008 5.87943C22.1672 5.82203 21.7949 5.80482 21.4109 5.86654L21.3942 5.86923L17.5216 6.55726L17.4956 6.56257C16.6668 6.73198 15.8992 7.1222 15.274 7.69197L15.2406 7.72241L5.28566 17.629L5.28321 17.6314C4.66764 18.2461 4.3207 19.0796 4.31834 19.9495C4.31599 20.8194 4.65842 21.6548 5.27065 22.2727L12.4892 29.5422L12.4935 29.5465C13.1819 30.2363 14.1064 30.5484 15.0503 30.3995C15.8863 30.2677 16.5305 29.8108 16.9597 29.3859L26.8862 19.5062L26.8921 19.5003C27.2308 19.1605 27.4889 18.754 27.6663 18.4091C27.8437 18.0644 28.0256 17.6157 28.1049 17.138L28.1098 17.1089L28.656 13.1125ZM24.3778 12.416C24.3836 12.3547 24.3864 12.2932 24.3863 12.2318C24.3863 12.2026 24.3857 12.1733 24.3844 12.1442C24.3835 12.1256 24.3824 12.107 24.3811 12.0885C24.3801 12.0756 24.379 12.0627 24.3778 12.0498C24.3713 11.9797 24.361 11.9099 24.3469 11.8407C24.3319 11.7665 24.3125 11.6931 24.2889 11.6207C24.2872 11.6156 24.2855 11.6105 24.2838 11.6054C24.2812 11.5978 24.2786 11.5902 24.276 11.5827C24.2721 11.586 24.2683 11.5893 24.2644 11.5926C24.1969 11.6501 24.1299 11.7056 24.0637 11.7589C23.9586 11.8435 23.8553 11.9229 23.7545 11.9972L23.7522 11.9989C23.7027 12.0354 23.6538 12.0706 23.6055 12.1047C23.6038 12.1059 23.6022 12.1071 23.6005 12.1083C23.5859 12.1184 23.5712 12.1281 23.5562 12.1371C23.4765 12.1853 23.3908 12.2176 23.3038 12.2327C23.1386 12.2608 22.9687 12.2319 22.8221 12.1509C22.8008 12.1391 22.7801 12.1263 22.7602 12.1125C22.686 12.0614 22.622 11.9974 22.5712 11.9236C22.5417 11.8809 22.5167 11.835 22.4966 11.7865C22.4325 11.6317 22.4229 11.4597 22.4694 11.2987C22.51 11.1581 22.5913 11.0331 22.7024 10.9392L22.7047 10.9372C22.7193 10.925 22.7343 10.9133 22.7499 10.9022L22.7524 10.9004L22.7542 10.8992C22.7832 10.88 22.8843 10.8044 23.0351 10.681L23.0393 10.6776C23.112 10.618 23.1961 10.5475 23.2891 10.467C23.1901 10.4182 23.0878 10.3781 22.9831 10.3469C22.981 10.3463 22.979 10.3457 22.977 10.3451C22.9116 10.3258 22.8454 10.31 22.7786 10.2976C22.7472 10.2918 22.7157 10.2868 22.6841 10.2825C22.664 10.2798 22.6439 10.2774 22.6238 10.2754C22.5762 10.2704 22.5285 10.2673 22.4806 10.2658C22.4694 10.2655 22.4582 10.2653 22.447 10.2651C22.4116 10.2647 22.376 10.2652 22.3405 10.2667C22.3286 10.2672 22.3166 10.2678 22.3047 10.2685C22.2381 10.2725 22.1716 10.2799 22.1053 10.2907L22.1015 10.2914C22.0898 10.2933 22.0783 10.2953 22.0667 10.2975C21.8733 10.3331 21.6873 10.3975 21.5148 10.4876C21.3409 10.5784 21.1805 10.6954 21.0397 10.8354C21.0266 10.8484 21.0138 10.8615 21.0011 10.8749C20.6713 11.2225 20.4796 11.6785 20.4618 12.1572C20.461 12.1798 20.4605 12.2024 20.4605 12.2251C20.4591 12.7468 20.6648 13.2477 21.0323 13.6179C21.2139 13.8008 21.4297 13.9462 21.6675 14.0457C21.9052 14.1452 22.1603 14.1969 22.418 14.1978C22.4233 14.1979 22.4286 14.1979 22.4339 14.1978C22.6863 14.1967 22.9361 14.1469 23.1697 14.051C23.3134 13.9921 23.4493 13.9163 23.5747 13.8257L23.579 13.8225C23.66 13.7637 23.7365 13.6986 23.8078 13.6277C23.8713 13.5643 23.9302 13.4968 23.9842 13.4259C24.0827 13.2964 24.1648 13.1552 24.2285 13.0056L24.2303 13.0014C24.2751 12.8956 24.3108 12.7856 24.3367 12.6727C24.344 12.6406 24.3505 12.6084 24.3562 12.5761L24.3571 12.5713C24.3661 12.5197 24.373 12.4679 24.3778 12.416ZM16.3324 14.3176C15.9271 13.9216 15.2774 13.9291 14.8813 14.3344C14.4852 14.7398 14.4927 15.3894 14.898 15.7855L18.617 19.4382C19.0224 19.8343 19.6721 19.8268 20.0682 19.4214C20.4642 19.0161 20.4567 18.3664 20.0514 17.9703L16.3324 14.3176ZM16.9471 21.0228C17.3524 21.4189 17.3599 22.0686 16.9638 22.4739C16.5677 22.8793 15.918 22.8868 15.5127 22.4907L11.7937 18.8381C11.3884 18.442 11.3809 17.7923 11.777 17.3869C12.173 16.9816 12.8227 16.9741 13.2281 17.3702L16.9471 21.0228Z" fill="#FF5A50"/>
</svg>
