<svg width="17" height="17" viewBox="0 0 17 17" fill="none" xmlns="http://www.w3.org/2000/svg">
<path fill-rule="evenodd" clip-rule="evenodd" d="M16.0447 0.0159912H12.1298C11.9449 0.0165269 11.7677 0.0903224 11.6372 0.2212C11.5066 0.352078 11.4333 0.529359 11.4333 0.714181L13.041 2.3271L11.1002 4.26685C11.0073 4.35894 10.9336 4.46849 10.8833 4.58919C10.833 4.70989 10.8071 4.83935 10.8071 4.9701C10.8071 5.10085 10.833 5.23031 10.8833 5.35101C10.9336 5.47171 11.0073 5.58126 11.1002 5.67335C11.287 5.85989 11.5403 5.96468 11.8043 5.96468C12.0684 5.96468 12.3216 5.85989 12.5084 5.67335L14.4461 3.73562L16.0447 5.33943C16.4294 5.33943 16.7402 5.02575 16.7402 4.64124V0.714181C16.7402 0.329671 16.4294 0.0159912 16.0447 0.0159912V0.0159912Z" fill="#EEF2F4"/>
<path fill-rule="evenodd" clip-rule="evenodd" d="M16.0422 10.7032L14.4031 12.3343L12.4269 10.3591C12.2403 10.1724 11.9871 10.0673 11.723 10.0671C11.459 10.0669 11.2056 10.1716 11.0187 10.3581C10.8318 10.5447 10.7268 10.7977 10.7266 11.0617C10.7264 11.3256 10.8311 11.5789 11.0177 11.7656L12.9929 13.7388L11.4136 15.3112C11.4136 15.6957 11.7264 16.0064 12.1121 16.0064H16.0412C16.4269 16.0064 16.7397 15.6957 16.7397 15.3112V11.3994C16.74 11.3078 16.7221 11.217 16.6871 11.1324C16.6522 11.0477 16.6008 10.9708 16.5359 10.9061C16.4711 10.8414 16.3941 10.7902 16.3093 10.7553C16.2246 10.7205 16.1338 10.7028 16.0422 10.7032V10.7032Z" fill="#EEF2F4"/>
<path fill-rule="evenodd" clip-rule="evenodd" d="M4.4657 2.31926L6.06932 0.721524C6.06852 0.536704 5.99443 0.359742 5.86329 0.229433C5.73216 0.0991244 5.55468 0.0261005 5.36976 0.0263701H1.44171C1.35016 0.026104 1.25945 0.043881 1.17477 0.0786842C1.0901 0.113487 1.01312 0.164634 0.948244 0.229198C0.883364 0.293762 0.831857 0.370478 0.796667 0.454956C0.761478 0.539434 0.743297 0.630017 0.743164 0.721524V4.63341C0.743164 5.01893 1.057 5.32957 1.44171 5.32957L3.05646 3.72374L5.04985 5.7151C5.14191 5.80804 5.2515 5.88182 5.37227 5.93217C5.49304 5.98253 5.6226 6.00845 5.75346 6.00845C5.88431 6.00845 6.01387 5.98253 6.13464 5.93217C6.25541 5.88182 6.365 5.80804 6.45706 5.7151C6.64333 5.52861 6.74795 5.27587 6.74795 5.01235C6.74795 4.74884 6.64333 4.4961 6.45706 4.30961L4.4657 2.31926Z" fill="#EEF2F4"/>
<path fill-rule="evenodd" clip-rule="evenodd" d="M5.67306 9.6918L3.05098 12.3125L1.43724 10.6925C1.25233 10.6931 1.07517 10.7669 0.944605 10.8977C0.81404 11.0286 0.740722 11.2059 0.740723 11.3907V15.3178C0.740723 15.7033 1.05355 16.016 1.43724 16.016H5.35213C5.53687 16.0152 5.71377 15.9413 5.84412 15.8104C5.97446 15.6796 6.04764 15.5024 6.04764 15.3178L4.45719 13.7211L7.08129 11.0983C7.17369 11.0059 7.24697 10.8962 7.29695 10.7755C7.34693 10.6547 7.37263 10.5253 7.37258 10.3947C7.37254 10.264 7.34674 10.1347 7.29667 10.014C7.24661 9.8933 7.17325 9.78365 7.08078 9.69129C6.98832 9.59894 6.87856 9.5257 6.75777 9.47574C6.63698 9.42579 6.50753 9.4001 6.37682 9.40015C6.2461 9.40019 6.11667 9.42597 5.99592 9.47602C5.87517 9.52606 5.76546 9.59938 5.67306 9.6918V9.6918Z" fill="#EEF2F4"/>
</svg>
