<svg width="20" height="20" viewBox="0 0 20 20" fill="none" xmlns="http://www.w3.org/2000/svg">
<path d="M19.8281 0.928101L13.0615 19.6663C13.0158 19.766 12.9425 19.8504 12.8502 19.9096C12.758 19.9688 12.6506 20.0003 12.541 20.0003C12.4314 20.0003 12.324 19.9688 12.2318 19.9096C12.1395 19.8504 12.0662 19.766 12.0205 19.6663L10.3213 10.4672L1.08989 8.73568C0.990222 8.69 0.905762 8.61668 0.846549 8.52441C0.787336 8.43214 0.755859 8.32481 0.755859 8.21517C0.755859 8.10554 0.787336 7.99821 0.846549 7.90594C0.905762 7.81367 0.990222 7.74034 1.08989 7.69467L19.8281 0.928101Z" fill="#EEF2F4"/>
</svg>
