<svg width="17" height="17" viewBox="0 0 17 17" fill="none" xmlns="http://www.w3.org/2000/svg">
<path d="M15.7402 7.01599H9.74023V1.01599C9.74023 0.750775 9.63488 0.496421 9.44734 0.308885C9.2598 0.121348 9.00545 0.0159912 8.74023 0.0159912C8.47502 0.0159912 8.22066 0.121348 8.03313 0.308885C7.84559 0.496421 7.74023 0.750775 7.74023 1.01599V7.01599H1.74023C1.47502 7.01599 1.22066 7.12135 1.03313 7.30888C0.845591 7.49642 0.740234 7.75077 0.740234 8.01599C0.740234 8.28121 0.845591 8.53556 1.03313 8.7231C1.22066 8.91063 1.47502 9.01599 1.74023 9.01599H7.74023V15.016C7.74023 15.2812 7.84559 15.5356 8.03313 15.7231C8.22066 15.9106 8.47502 16.016 8.74023 16.016C9.00545 16.016 9.2598 15.9106 9.44734 15.7231C9.63488 15.5356 9.74023 15.2812 9.74023 15.016V9.01599H15.7402C16.0055 9.01599 16.2598 8.91063 16.4473 8.7231C16.6349 8.53556 16.7402 8.28121 16.7402 8.01599C16.7402 7.75077 16.6349 7.49642 16.4473 7.30888C16.2598 7.12135 16.0055 7.01599 15.7402 7.01599Z" fill="#00213D" fill-opacity="0.6"/>
</svg>
