<svg width="28" height="28" viewBox="0 0 28 28" fill="none" xmlns="http://www.w3.org/2000/svg">
<g clip-path="url(#clip0_52047_300824)">
<path d="M22.4757 14.0101C22.6625 13.6728 22.9593 13.4096 23.3165 13.2643C23.6737 13.1191 24.0699 13.1006 24.4391 13.2119L25.0441 13.3942L25.2061 13.4482C25.7072 13.6315 26.1493 13.9472 26.4854 14.3617C26.8214 14.7762 27.0389 15.274 27.1147 15.8023C27.3653 17.5471 26.805 19.5873 25.4542 21.927C24.1067 24.2609 22.6234 25.7644 20.9907 26.4225C20.4662 26.634 19.8919 26.6903 19.3362 26.5848C18.7806 26.4794 18.2669 26.2166 17.8562 25.8277L17.3989 25.394L17.296 25.2877C17.0416 25.0007 16.8926 24.6357 16.8734 24.2528C16.8543 23.8698 16.9661 23.4918 17.1905 23.1809L18.3355 21.5946L18.4122 21.4984C18.5731 21.3162 18.7829 21.1841 19.0168 21.118C19.2506 21.0519 19.4986 21.0545 19.731 21.1255L21.4616 21.6545L21.5063 21.6629H21.5426C21.7493 21.6402 22.1695 21.2225 22.6858 20.3281C23.2596 19.3342 23.3777 18.7529 23.2199 18.6027L22.3399 17.7825L22.2277 17.6703C21.9475 17.3667 21.7628 16.9875 21.6965 16.5797C21.6302 16.172 21.6852 15.7537 21.8547 15.377L22.4133 14.1359L22.4757 14.0101Z" fill="#D75DC3"/>
<g clip-path="url(#clip1_52047_300824)">
<path fill-rule="evenodd" clip-rule="evenodd" d="M13.725 10.8978C13.8735 11.1619 14.0223 11.4072 14.1715 11.6335L13.3191 12.2017C13.0865 12.3568 13.0236 12.6712 13.1787 12.9038C13.3338 13.1364 13.6481 13.1993 13.8807 13.0442L14.7775 12.4463C14.9848 12.6881 15.1928 12.8938 15.4014 13.0635L14.6691 13.5517C14.4365 13.7068 14.3736 14.0212 14.5287 14.2538C14.6838 14.4864 14.9981 14.5493 15.2307 14.3942L16.4133 13.6058C16.4145 13.605 16.4158 13.6041 16.4171 13.6033C16.5732 13.6427 16.7297 13.6625 16.8866 13.6625C17.4923 13.6625 18.0246 13.7793 18.4832 14.013C18.9419 14.2466 19.288 14.5408 19.5217 14.8957C19.7553 15.2505 19.9284 15.6053 20.0409 15.9601C20.1534 16.3149 20.2096 16.6567 20.2096 16.9856V17.853C20.2096 18.1472 20.1015 18.4025 19.8851 18.6188C19.6688 18.8352 19.4048 18.9434 19.0933 18.9434H8.03369C7.72215 18.9434 7.45821 18.8352 7.24186 18.6188C7.02552 18.4025 6.91734 18.1472 6.91734 17.853V16.9856H7.20292C6.66638 15.1509 6.79619 13.749 7.59234 12.7798C7.88657 12.2606 8.03369 11.2567 8.03369 9.76825C8.03369 9.47402 8.14186 9.21873 8.35821 9.00238C8.57455 8.78604 8.82984 8.67786 9.12407 8.67786H11.902C12.3346 8.67786 12.6635 8.85959 12.8885 9.22306C12.9058 9.25767 12.9274 9.30959 12.9534 9.37883C12.9794 9.44806 13.0053 9.50863 13.0313 9.56056C13.0572 9.61248 13.0875 9.6644 13.1221 9.71633C13.1684 9.81545 13.2148 9.9127 13.2612 10.0081C13.2233 10.0217 13.1866 10.0401 13.1516 10.0634L11.9691 10.8517C11.7364 11.0068 11.6736 11.3212 11.8287 11.5538C11.9838 11.7864 12.2981 11.8493 12.5307 11.6942L13.7133 10.9058L13.725 10.8978ZM11.4345 15.0125C11.4345 15.5717 10.9812 16.025 10.422 16.025C9.8628 16.025 9.40948 15.5717 9.40948 15.0125C9.40948 14.4533 9.8628 14 10.422 14C10.9812 14 11.4345 14.4533 11.4345 15.0125Z" fill="#D75DC3"/>
</g>
<path fill-rule="evenodd" clip-rule="evenodd" d="M2.00885 6.97868C2.00885 5.11472 3.51989 3.60368 5.38385 3.60368H21.678C23.542 3.60368 25.053 5.11472 25.053 6.97868V10.5427H23.703V6.97868C23.703 5.86031 22.7964 4.95368 21.678 4.95368H5.38385C4.26547 4.95368 3.35885 5.86031 3.35885 6.97868V18.9787C3.35885 20.0971 4.26547 21.0037 5.38385 21.0037H15.5583V22.3537H5.38385C3.51989 22.3537 2.00885 20.8427 2.00885 18.9787V6.97868Z" fill="#D75DC3"/>
</g>
<defs>
<clipPath id="clip0_52047_300824">
<rect width="27" height="27" fill="white" transform="translate(0.172852 0.5)"/>
</clipPath>
<clipPath id="clip1_52047_300824">
<rect width="13.5" height="13.5" fill="white" transform="translate(6.70947 7.25)"/>
</clipPath>
</defs>
</svg>
