<svg width="28" height="28" viewBox="0 0 28 28" fill="none" xmlns="http://www.w3.org/2000/svg">
<path fill-rule="evenodd" clip-rule="evenodd" d="M13.9779 7.96495C13.9779 9.47115 13.1558 10.7853 11.9358 11.4832C12.5698 11.6728 13.3674 12.0417 14.2206 12.4702C13.7027 13.4925 13.4109 14.6488 13.4109 15.8732C13.4109 17.4459 13.8924 18.9061 14.7159 20.1146H11.5465C11.2704 20.1146 11.0465 19.8907 11.0465 19.6146V16.9012C11.0458 16.8682 11.0362 16.836 11.0188 16.808C11.0186 16.8076 11.0187 16.8072 11.019 16.807C11.0193 16.8068 11.0195 16.8064 11.0193 16.8061L10.1066 15.2255L10.1041 15.2213C10.1023 15.2183 10.1005 15.2153 10.099 15.2123L10.0895 15.1981C10.0564 15.1411 9.99762 15.1012 9.92722 15.1012C9.85731 15.1012 9.79881 15.1408 9.76561 15.1969C9.7654 15.1972 9.76506 15.1975 9.76468 15.1975C9.76437 15.1976 9.76403 15.1975 9.76374 15.1974C9.76309 15.197 9.76224 15.1972 9.76186 15.1979L8.83408 16.8048C8.83371 16.8054 8.83392 16.8063 8.83457 16.8067C8.83523 16.807 8.83543 16.8079 8.83503 16.8086C8.81788 16.8364 8.80843 16.8682 8.80766 16.9009V19.6143C8.80766 19.8905 8.5838 20.1143 8.30766 20.1143H3.25897C2.70669 20.1143 2.25897 19.6666 2.25897 19.1143V15.423C2.25897 14.6632 2.68867 13.9692 3.37174 13.6365C4.77062 12.9552 7.09669 11.8406 7.98798 11.5216C6.73024 10.8343 5.87715 9.49924 5.87715 7.96495C5.87715 5.72797 7.69057 3.91455 9.92754 3.91455C12.1645 3.91455 13.9779 5.72797 13.9779 7.96495ZM11.0199 12.8756L11.0197 12.8762C11.0196 12.8767 11.0199 12.8772 11.0203 12.8775C11.0206 12.8777 11.0209 12.8779 11.021 12.8783C11.0211 12.8786 11.021 12.879 11.0208 12.8793L10.0928 14.4863C10.0924 14.4869 10.0916 14.4871 10.0909 14.4868L10.0902 14.4866C10.0897 14.4866 10.0893 14.4868 10.0891 14.4872C10.073 14.5157 10.0497 14.5395 10.0216 14.5562C9.99311 14.5732 9.96062 14.5823 9.92745 14.5827C9.89428 14.5823 9.8618 14.5732 9.83329 14.5562C9.80499 14.5394 9.78161 14.5154 9.76549 14.4866C9.76531 14.4863 9.76488 14.4862 9.76456 14.4864C9.76424 14.4866 9.76382 14.4865 9.76363 14.4862L9.75452 14.4704L9.75169 14.4657L8.83482 12.8775C8.8172 12.8493 8.80843 12.8162 8.80766 12.783C8.80766 12.6778 8.89294 12.5925 8.99807 12.5925H10.8564C10.9615 12.5925 11.0468 12.6778 11.0468 12.783C11.0464 12.8157 11.0371 12.8477 11.0199 12.8756Z" fill="#D75DC3"/>
<path d="M15.793 15.8733C15.793 18.7225 18.1027 21.0322 20.9519 21.0322C23.8011 21.0322 26.1108 18.7225 26.1108 15.8733C26.1108 13.0241 23.8011 10.7143 20.9519 10.7143C18.1027 10.7143 15.793 13.0241 15.793 15.8733Z" stroke="#D75DC3" stroke-width="1.5"/>
<path d="M17.2584 20.1145L13.9229 23.4499" stroke="#D75DC3" stroke-width="1.5" stroke-linecap="round"/>
</svg>
