<svg width="28" height="28" viewBox="0 0 28 28" fill="none" xmlns="http://www.w3.org/2000/svg">
<path fill-rule="evenodd" clip-rule="evenodd" d="M13.9821 18.4347H5.72854V20.2347C5.72854 20.4734 5.63372 20.7023 5.46494 20.8711C5.29615 21.0398 5.06723 21.1347 4.82854 21.1347H3.92854C3.68984 21.1347 3.46093 21.0398 3.29214 20.8711C3.12336 20.7023 3.02854 20.4734 3.02854 20.2347V18.1854C2.49214 17.8731 2.12854 17.2989 2.12854 16.6347V12.1347C2.12854 11.7798 2.23346 11.4328 2.4301 11.1373C2.62674 10.8419 2.90634 10.6112 3.23374 10.4742L4.46494 6.78057C4.64354 6.2428 4.98708 5.775 5.44674 5.44363C5.90639 5.11225 6.45879 4.93417 7.02544 4.93467H15.2316C15.7983 4.93417 16.3507 5.11225 16.8103 5.44363C17.27 5.775 17.6135 6.2428 17.7921 6.78057L18.4643 8.79707C17.8883 9.00982 17.3453 9.2909 16.8454 9.63047L16.0848 7.35027C15.9624 6.98127 15.6186 6.73467 15.2307 6.73467H7.02544C6.83647 6.73462 6.65228 6.79406 6.49898 6.90455C6.34568 7.01504 6.23105 7.17098 6.17134 7.35027L5.17684 10.3347H15.9591C14.469 11.7123 13.5359 13.6838 13.5359 15.8732C13.5359 16.7725 13.6933 17.635 13.9821 18.4347ZM4.76178 15.6317C4.9256 15.6996 5.1012 15.7346 5.27854 15.7347C5.6367 15.7348 5.98024 15.5926 6.23358 15.3394C6.48693 15.0863 6.62932 14.7428 6.62944 14.3847C6.62956 14.0265 6.48739 13.683 6.23422 13.4296C5.98105 13.1763 5.6376 13.0339 5.27944 13.0338C5.1021 13.0337 4.92648 13.0686 4.76261 13.1364C4.59874 13.2042 4.44984 13.3036 4.3244 13.429C4.19895 13.5543 4.09943 13.7032 4.03151 13.867C3.96359 14.0308 3.9286 14.2064 3.92854 14.3838C3.92848 14.5611 3.96335 14.7367 4.03116 14.9006C4.09898 15.0645 4.1984 15.2134 4.32376 15.3388C4.44912 15.4643 4.59796 15.5638 4.76178 15.6317Z" fill="#D75DC3"/>
<path d="M15.918 15.8733C15.918 18.7225 18.2277 21.0322 21.0769 21.0322C23.9261 21.0322 26.2358 18.7225 26.2358 15.8733C26.2358 13.0241 23.9261 10.7143 21.0769 10.7143C18.2277 10.7143 15.918 13.0241 15.918 15.8733Z" stroke="#D75DC3" stroke-width="1.5"/>
<path d="M17.3834 20.1145L14.0479 23.4499" stroke="#D75DC3" stroke-width="1.5" stroke-linecap="round"/>
</svg>
