<svg width="28" height="28" viewBox="0 0 28 28" fill="none" xmlns="http://www.w3.org/2000/svg">
<path d="M21.7492 14.0101C21.936 13.6728 22.2328 13.4096 22.59 13.2643C22.9472 13.1191 23.3434 13.1006 23.7126 13.2119L24.3176 13.3942L24.4796 13.4482C24.9807 13.6315 25.4228 13.9472 25.7589 14.3617C26.0949 14.7762 26.3124 15.274 26.3882 15.8023C26.6388 17.5471 26.0785 19.5873 24.7277 21.927C23.3802 24.2609 21.8969 25.7644 20.2642 26.4225C19.7397 26.634 19.1654 26.6903 18.6097 26.5848C18.0541 26.4794 17.5404 26.2166 17.1297 25.8277L16.6724 25.394L16.5695 25.2877C16.3151 25.0007 16.1661 24.6357 16.1469 24.2528C16.1278 23.8698 16.2396 23.4918 16.464 23.1809L17.609 21.5946L17.6857 21.4984C17.8465 21.3162 18.0564 21.1841 18.2903 21.118C18.5241 21.0519 18.7721 21.0545 19.0045 21.1255L20.7351 21.6545L20.7798 21.6629H20.8161C21.0228 21.6402 21.443 21.2225 21.9593 20.3281C22.5331 19.3342 22.6512 18.7529 22.4934 18.6027L21.6134 17.7825L21.5012 17.6703C21.221 17.3667 21.0363 16.9875 20.97 16.5797C20.9037 16.172 20.9587 15.7537 21.1282 15.377L21.6868 14.1359L21.7492 14.0101Z" fill="#D75DC3"/>
<path d="M7.32172 22.4459H14.2309C14.7832 22.4459 15.208 21.9815 15.4111 21.468C15.8647 20.3215 17.0675 19.7434 17.7738 19.1351C18.2784 18.7006 18.5411 18.8937 18.7065 18.6034C19.5565 17.1126 17.6026 15.4773 15.8866 15.4773H9.32172C7.66486 15.4773 6.32172 16.8205 6.32172 18.4773V21.4459C6.32172 21.9982 6.76943 22.4459 7.32172 22.4459Z" fill="#D75DC3"/>
<path fill-rule="evenodd" clip-rule="evenodd" d="M2.13715 7.0151C2.13715 5.15114 3.64818 3.6401 5.51215 3.6401H21.8063C23.6703 3.6401 25.1813 5.15114 25.1813 7.0151V10.5791H23.8313V7.0151C23.8313 5.89672 22.9247 4.9901 21.8063 4.9901H5.51215C4.39377 4.9901 3.48715 5.89672 3.48715 7.0151V19.0152C3.48715 20.1335 4.39377 21.0402 5.51215 21.0402H10.2866V22.3902H5.51215C3.64819 22.3902 2.13715 20.8791 2.13715 19.0152V7.0151Z" fill="#D75DC3"/>
<ellipse cx="12.342" cy="10.5699" rx="3.43006" ry="3.43007" fill="#D75DC3"/>
</svg>
