<svg width="24" height="22" viewBox="0 0 24 22" fill="none" xmlns="http://www.w3.org/2000/svg">
<path fill-rule="evenodd" clip-rule="evenodd" d="M13.2635 0.533009C13.7405 0.0557159 14.5141 0.0555793 14.9912 0.532703L20.948 6.48948C21.4249 6.96634 21.4252 7.7394 20.9486 8.2166C20.6213 8.54443 20.1366 8.65887 19.6972 8.51212L19.5121 8.45032L13.1426 2.11435C13.1147 2.08658 13.0851 2.06148 13.0542 2.03908L12.9687 1.78232C12.8226 1.34364 12.9367 0.860069 13.2635 0.533009ZM12.0637 3.12902L7.82976 7.36227L14.1173 13.6498L15.5242 12.2429L20.4134 17.133C20.7991 17.5188 21.4246 17.5188 21.8103 17.1331C22.196 16.7474 22.196 16.122 21.8103 15.7362L16.9201 10.846L18.3667 9.40113L12.0975 3.16496C12.0858 3.15327 12.0745 3.14128 12.0637 3.12902ZM6.64986 8.27806L13.2024 14.8306L13.2914 15.1867C13.3766 15.5276 13.2767 15.8882 13.0281 16.1366L12.738 16.4265C12.3474 16.8168 11.7144 16.8167 11.324 16.4263L5.23949 10.3417C4.74655 9.8488 4.74669 9.04954 5.2398 8.55677C5.55311 8.24369 6.00762 8.11778 6.43736 8.22503L6.64986 8.27806Z" fill="#D75DC3"/>
<path d="M23.1054 17.5773L22.2724 18.3878C21.8842 18.7656 21.2657 18.7655 20.8775 18.3876L17.6552 15.2506C17.2496 14.8558 17.2523 14.2034 17.6611 13.8119L18.424 13.0812C18.8064 12.7149 19.4081 12.7103 19.7962 13.0706L23.0885 16.1278C23.5078 16.5172 23.5155 17.1783 23.1054 17.5773Z" fill="#D75DC3"/>
<rect x="0.581665" y="19.4987" width="12.4129" height="2.27616" rx="1" fill="#D75DC3"/>
</svg>
